<?xml version="1.0" standalone="no"?>
<!DOCTYPE svg PUBLIC "-//W3C//DTD SVG 1.1//EN" "http://www.w3.org/Graphics/SVG/1.1/DTD/svg11.dtd" >
<svg>
<metadata>
Created by FontForge 20090914 at Fri Feb 22 05:44:27 2019
 By www-data
Copyright 2011 The Comfortaa Project Authors (https://github.com/alexeiva/comfortaa), with Reserved Font Name "Comfortaa".
</metadata>
<defs>
<font id="Comfortaa-Regular" horiz-adv-x="677" >
  <font-face 
    font-family="Comfortaa"
    font-weight="400"
    font-stretch="normal"
    units-per-em="1000"
    panose-1="0 0 5 0 0 0 0 0 0 0"
    ascent="800"
    descent="-200"
    x-height="547"
    cap-height="780.998"
    bbox="-850 -289 1271 1264"
    underline-thickness="50"
    underline-position="-50"
    unicode-range="U+000D-U+FB02"
  />
<missing-glyph horiz-adv-x="625" 
d="M577.5 772.5c5.66699 -5.66699 8.5 -12.5 8.5 -20.5v-723c0 -8 -2.83301 -14.833 -8.5 -20.5s-12.5 -8.5 -20.5 -8.5h-489c-8.66699 -0 -15.667 2.83301 -21 8.5s-8 12.5 -8 20.5v723c0 8 2.66699 14.833 8 20.5s12.333 8.5 21 8.5h489c8 0 14.833 -2.83301 20.5 -8.5z
M93 54h439v673h-439v-673zM423 616c28.667 -27.333 43 -62.002 43 -104.002c0 -23.333 -4 -43.5 -12 -60.5s-17 -30.833 -27 -41.5s-28 -28 -54 -52c-20 -18 -30 -43 -30 -75c0 -8.66699 -3 -16 -9 -22s-13.333 -9 -22 -9s-16 3 -22 9s-9 13.333 -9 22
c0 18.667 4.5 38.167 13.5 58.5s20.833 37.5 35.5 51.5l15 14c21.333 19.333 36.833 36.333 46.5 51s14.5 33.334 14.5 56.001c0 24.667 -8.66699 45 -26 61s-39.333 24 -66 24c-28.667 0 -51.667 -8.66699 -69 -26s-26 -40.666 -26 -69.999
c0 -8.66699 -2.83301 -15.834 -8.5 -21.501s-13.167 -8.5 -22.5 -8.5c-8.66699 0 -16 2.83301 -22 8.5s-9 12.834 -9 21.501c0 45.333 14.667 82.333 44 111s67 43 113 43c44 0 80.333 -13.667 109 -41zM342.5 203.498c8.33301 -8.33301 12.5 -18.5 12.5 -30.5
s-4.16699 -22.167 -12.5 -30.5s-18.5 -12.5 -30.5 -12.5s-22.167 4.16699 -30.5 12.5s-12.5 18.5 -12.5 30.5c0 11.333 4.16699 21.333 12.5 30s18.5 13 30.5 13s22.167 -4.16699 30.5 -12.5z" />
    <glyph glyph-name="fi" unicode="fi" horiz-adv-x="606" 
d="M344.5 517.5c6.33301 -6.33301 9.49902 -14.4961 9.49902 -24.4961c0 -9.33301 -3.16699 -17.166 -9.5 -23.499s-14.833 -9.5 -25.5 -9.5h-121v-421c0 -10.667 -3.66699 -19.834 -11 -27.501s-16.666 -11.5 -27.999 -11.5c-10.667 0 -19.667 3.66699 -27 11
s-11 16.666 -11 27.999v421h-64c-10.667 0 -19.167 3.16699 -25.5 9.5s-9.5 14.166 -9.5 23.499c0 10 3.16699 18.167 9.5 24.5s14.833 9.5 25.5 9.5h64v25c0 71.333 19.167 127.833 57.5 169.5s98.5 62.5 180.5 62.5c42.667 0 79.5 -6.83301 110.5 -20.5
s46.5 -31.834 46.5 -54.501c0 -28.667 -16.333 -43 -49 -43c-9.33301 0 -18.166 2 -26.499 6s-18.166 10.333 -29.499 19c-12.667 10 -24.834 17.833 -36.501 23.5s-24.834 8.5 -39.501 8.5c-43.333 0 -77 -13.333 -101 -40s-36 -70.334 -36 -131.001v-25h121
c10.667 0 19.167 -3.16699 25.5 -9.5zM496.499 536.004c7 -7.33301 10.5 -16.666 10.5 -27.999v-469c0 -11.333 -3.5 -20.666 -10.5 -27.999s-16.167 -11 -27.5 -11s-20.666 3.66699 -27.999 11s-11 16.666 -11 27.999v469c0 11.333 3.66699 20.666 11 27.999
s16.666 11 27.999 11s20.5 -3.66699 27.5 -11z" />
    <glyph glyph-name="fl" unicode="fl" horiz-adv-x="642" 
d="M616.5 65.5c6.33301 -7 9.50293 -16.1641 9.50293 -27.4971s-4.33301 -20.5 -13 -27.5s-19.667 -10.5 -33 -10.5h-12c-26.667 0 -50.5 7.33301 -71.5 22s-37.5 35.167 -49.5 61.5s-18 56.166 -18 89.499v523c-30.667 9.33301 -60.334 14 -89.001 14
c-94.667 0 -142 -49.333 -142 -148v-35h112c10.667 0 19.167 -3.16699 25.5 -9.5s9.5 -14.5 9.5 -24.5c0 -9.33301 -3.16699 -17.166 -9.5 -23.499s-14.833 -9.5 -25.5 -9.5h-112v-421c0 -10.667 -3.66699 -19.834 -11 -27.501s-16.666 -11.5 -27.999 -11.5
c-10.667 0 -19.667 3.66699 -27 11s-11 16.666 -11 27.999v421h-64c-10.667 0 -19.167 3.16699 -25.5 9.5s-9.5 14.166 -9.5 23.499c0 10 3.16699 18.167 9.5 24.5s14.833 9.5 25.5 9.5h64v37c0 41.333 8.16699 78.333 24.5 111s40.666 58.5 72.999 77.5
s71.5 28.5 117.5 28.5c33.333 0 66.666 -5 99.999 -15c8 10 18.667 15 32 15c11.333 0 20.5 -3.5 27.5 -10.5s10.5 -16.167 10.5 -27.5v-570c0 -28.667 5.83301 -52 17.5 -70s26.5 -27 44.5 -27h25c9.33301 0 17.166 -3.5 23.499 -10.5z" />
    <glyph glyph-name="f_f" unicode="ff" horiz-adv-x="732" 
d="M231.5 667c-22.333 -29.333 -33.501 -68.333 -33.501 -117v-23h120c10.667 0 19.167 -3.16699 25.5 -9.5s9.5 -14.5 9.5 -24.5c0 -9.33301 -3.16699 -17.166 -9.5 -23.499s-14.833 -9.5 -25.5 -9.5h-120v-421c0 -12 -3.5 -21.5 -10.5 -28.5s-16.833 -10.5 -29.5 -10.5
c-10.667 0 -19.5 3.5 -26.5 10.5s-10.5 16.5 -10.5 28.5v421h-64c-10.667 0 -19.167 3.16699 -25.5 9.5s-9.5 14.166 -9.5 23.499c0 10 3.16699 18.167 9.5 24.5s14.833 9.5 25.5 9.5h64v19c0 71.333 18.333 128.333 55 171s88.334 64 155.001 64
c11.333 0 20.666 -3.33301 27.999 -10s11 -15 11 -25s-3.66699 -18.333 -11 -25s-16.666 -10 -27.999 -10c-44 0 -77.167 -14.667 -99.5 -44zM597.499 667c-22.333 -29.333 -33.501 -68.333 -33.501 -117v-23h120c10.667 0 19.167 -3.16699 25.5 -9.5s9.5 -14.5 9.5 -24.5
c0 -9.33301 -3.16699 -17.166 -9.5 -23.499s-14.833 -9.5 -25.5 -9.5h-120v-421c0 -12 -3.5 -21.5 -10.5 -28.5s-16.833 -10.5 -29.5 -10.5c-10.667 0 -19.5 3.5 -26.5 10.5s-10.5 16.5 -10.5 28.5v421h-64c-10.667 0 -19.167 3.16699 -25.5 9.5s-9.5 14.166 -9.5 23.499
c0 10 3.16699 18.167 9.5 24.5s14.833 9.5 25.5 9.5h64v19c0 71.333 18.333 128.333 55 171s88.334 64 155.001 64c11.333 0 20.666 -3.33301 27.999 -10s11 -15 11 -25s-3.66699 -18.333 -11 -25s-16.666 -10 -27.999 -10c-44 0 -77.167 -14.667 -99.5 -44z" />
    <glyph glyph-name="f_f_i" unicode="ffi" horiz-adv-x="1021" 
d="M231.5 667c-22.333 -29.333 -33.501 -68.333 -33.501 -117v-23h120c10.667 0 19.167 -3.16699 25.5 -9.5s9.5 -14.5 9.5 -24.5c0 -9.33301 -3.16699 -17.166 -9.5 -23.499s-14.833 -9.5 -25.5 -9.5h-120v-421c0 -12 -3.5 -21.5 -10.5 -28.5s-16.833 -10.5 -29.5 -10.5
c-10.667 0 -19.5 3.5 -26.5 10.5s-10.5 16.5 -10.5 28.5v421h-64c-10.667 0 -19.167 3.16699 -25.5 9.5s-9.5 14.166 -9.5 23.499c0 10 3.16699 18.167 9.5 24.5s14.833 9.5 25.5 9.5h64v19c0 71.333 18.333 128.333 55 171s88.334 64 155.001 64
c11.333 0 20.666 -3.33301 27.999 -10s11 -15 11 -25s-3.66699 -18.333 -11 -25s-16.666 -10 -27.999 -10c-44 0 -77.167 -14.667 -99.5 -44zM597.499 667c-22.333 -29.333 -33.501 -68.333 -33.501 -117v-23h120c10.667 0 19.167 -3.16699 25.5 -9.5s9.5 -14.5 9.5 -24.5
c0 -9.33301 -3.16699 -17.166 -9.5 -23.499s-14.833 -9.5 -25.5 -9.5h-120v-421c0 -12 -3.5 -21.5 -10.5 -28.5s-16.833 -10.5 -29.5 -10.5c-10.667 0 -19.5 3.5 -26.5 10.5s-10.5 16.5 -10.5 28.5v421h-64c-10.667 0 -19.167 3.16699 -25.5 9.5s-9.5 14.166 -9.5 23.499
c0 10 3.16699 18.167 9.5 24.5s14.833 9.5 25.5 9.5h64v19c0 71.333 18.333 128.333 55 171s88.334 64 155.001 64c11.333 0 20.666 -3.33301 27.999 -10s11 -15 11 -25s-3.66699 -18.333 -11 -25s-16.666 -10 -27.999 -10c-44 0 -77.167 -14.667 -99.5 -44zM848.998 536
c7.33301 7.33301 16.666 11 27.999 11s20.5 -3.66699 27.5 -11s10.5 -16.666 10.5 -27.999v-469c0 -11.333 -3.5 -20.666 -10.5 -27.999s-16.167 -11 -27.5 -11s-20.666 3.66699 -27.999 11s-11 16.666 -11 27.999v469c0 11.333 3.66699 20.666 11 27.999zM914.998 745
c10.667 -10 15.998 -23 15.998 -39c0 -15.333 -5.33301 -28.333 -16 -39s-23.667 -16 -39 -16s-28.166 5.33301 -38.499 16s-15.5 23.667 -15.5 39c0 16 5.33301 29 16 39s23.667 15 39 15c14.667 0 27.334 -5 38.001 -15z" />
    <glyph glyph-name="f_f_l" unicode="ffl" horiz-adv-x="1014" 
d="M231.5 667c-22.333 -29.333 -33.501 -68.333 -33.501 -117v-23h120c10.667 0 19.167 -3.16699 25.5 -9.5s9.5 -14.5 9.5 -24.5c0 -9.33301 -3.16699 -17.166 -9.5 -23.499s-14.833 -9.5 -25.5 -9.5h-120v-421c0 -12 -3.5 -21.5 -10.5 -28.5s-16.833 -10.5 -29.5 -10.5
c-10.667 0 -19.5 3.5 -26.5 10.5s-10.5 16.5 -10.5 28.5v421h-64c-10.667 0 -19.167 3.16699 -25.5 9.5s-9.5 14.166 -9.5 23.499c0 10 3.16699 18.167 9.5 24.5s14.833 9.5 25.5 9.5h64v19c0 71.333 18.333 128.333 55 171s88.334 64 155.001 64
c11.333 0 20.666 -3.33301 27.999 -10s11 -15 11 -25s-3.66699 -18.333 -11 -25s-16.666 -10 -27.999 -10c-44 0 -77.167 -14.667 -99.5 -44zM597.499 667c-22.333 -29.333 -33.501 -68.333 -33.501 -117v-23h120c10.667 0 19.167 -3.16699 25.5 -9.5s9.5 -14.5 9.5 -24.5
c0 -9.33301 -3.16699 -17.166 -9.5 -23.499s-14.833 -9.5 -25.5 -9.5h-120v-421c0 -12 -3.5 -21.5 -10.5 -28.5s-16.833 -10.5 -29.5 -10.5c-10.667 0 -19.5 3.5 -26.5 10.5s-10.5 16.5 -10.5 28.5v421h-64c-10.667 0 -19.167 3.16699 -25.5 9.5s-9.5 14.166 -9.5 23.499
c0 10 3.16699 18.167 9.5 24.5s14.833 9.5 25.5 9.5h64v19c0 71.333 18.333 128.333 55 171s88.334 64 155.001 64c11.333 0 20.666 -3.33301 27.999 -10s11 -15 11 -25s-3.66699 -18.333 -11 -25s-16.666 -10 -27.999 -10c-44 0 -77.167 -14.667 -99.5 -44zM812.998 770.5
c7.33301 7 16.333 10.5 27 10.5c11.333 0 20.5 -3.5 27.5 -10.5s10.5 -16.167 10.5 -27.5v-570c0 -28.667 5.83301 -52 17.5 -70s26.5 -27 44.5 -27h25c10 0 18 -3.5 24 -10.5s9 -16.167 9 -27.5s-4.16699 -20.5 -12.5 -27.5s-19.166 -10.5 -32.499 -10.5h-13
c-40.667 0 -73.834 16.167 -99.501 48.5s-38.5 73.833 -38.5 124.5v570c0 11.333 3.66699 20.5 11 27.5z" />
    <glyph glyph-name=".notdef" horiz-adv-x="625" 
d="M577.5 772.5c5.66699 -5.66699 8.5 -12.5 8.5 -20.5v-723c0 -8 -2.83301 -14.833 -8.5 -20.5s-12.5 -8.5 -20.5 -8.5h-489c-8.66699 -0 -15.667 2.83301 -21 8.5s-8 12.5 -8 20.5v723c0 8 2.66699 14.833 8 20.5s12.333 8.5 21 8.5h489c8 0 14.833 -2.83301 20.5 -8.5z
M93 54h439v673h-439v-673zM423 616c28.667 -27.333 43 -62.002 43 -104.002c0 -23.333 -4 -43.5 -12 -60.5s-17 -30.833 -27 -41.5s-28 -28 -54 -52c-20 -18 -30 -43 -30 -75c0 -8.66699 -3 -16 -9 -22s-13.333 -9 -22 -9s-16 3 -22 9s-9 13.333 -9 22
c0 18.667 4.5 38.167 13.5 58.5s20.833 37.5 35.5 51.5l15 14c21.333 19.333 36.833 36.333 46.5 51s14.5 33.334 14.5 56.001c0 24.667 -8.66699 45 -26 61s-39.333 24 -66 24c-28.667 0 -51.667 -8.66699 -69 -26s-26 -40.666 -26 -69.999
c0 -8.66699 -2.83301 -15.834 -8.5 -21.501s-13.167 -8.5 -22.5 -8.5c-8.66699 0 -16 2.83301 -22 8.5s-9 12.834 -9 21.501c0 45.333 14.667 82.333 44 111s67 43 113 43c44 0 80.333 -13.667 109 -41zM342.5 203.498c8.33301 -8.33301 12.5 -18.5 12.5 -30.5
s-4.16699 -22.167 -12.5 -30.5s-18.5 -12.5 -30.5 -12.5s-22.167 4.16699 -30.5 12.5s-12.5 18.5 -12.5 30.5c0 11.333 4.16699 21.333 12.5 30s18.5 13 30.5 13s22.167 -4.16699 30.5 -12.5z" />
    <glyph glyph-name="NULL" horiz-adv-x="0" 
 />
    <glyph glyph-name="NULL" horiz-adv-x="0" 
 />
    <glyph glyph-name="nonmarkingreturn" unicode="&#xd;" horiz-adv-x="293" 
 />
    <glyph glyph-name="space" unicode=" " horiz-adv-x="293" 
 />
    <glyph glyph-name="exclam" unicode="!" horiz-adv-x="266" 
d="M80 770.5c7.33301 7.66699 16.6689 11.5 28.002 11.5s20.666 -3.83301 27.999 -11.5s11 -17.167 11 -28.5v-526c0 -10.667 -4 -19.834 -12 -27.501s-17 -11.5 -27 -11.5c-10.667 0 -19.834 3.83301 -27.501 11.5s-11.5 16.834 -11.5 27.501v526
c0 11.333 3.66699 20.833 11 28.5zM149.003 99.5c11.333 -11.667 17 -25.5 17 -41.5s-5.66699 -29.667 -17 -41s-25 -17 -41 -17s-29.667 5.5 -41 16.5s-17 24.833 -17 41.5s5.66699 30.667 17 42s25 17 41 17s29.667 -5.83301 41 -17.5z" />
    <glyph glyph-name="quotedbl" unicode="&#x22;" horiz-adv-x="273" 
d="M172.5 770.5c7.66699 7.66699 16.834 11.5 27.501 11.5c11.333 0 20.666 -3.83301 27.999 -11.5s11 -17.167 11 -28.5l-10 -147c0 -8 -2.83301 -14.667 -8.5 -20s-12.5 -8 -20.5 -8c-7.33301 0 -13.833 2.66699 -19.5 8s-8.5 12 -8.5 20l-11 147
c0 11.333 3.83301 20.833 11.5 28.5zM52.5 770c7.66699 7.33301 16.833 11.002 27.5 11.002s19.667 -3.83301 27 -11.5s11 -16.834 11 -27.501l-10 -147c0 -8 -2.66699 -14.667 -8 -20s-12 -8 -20 -8c-8.66699 0 -15.667 2.66699 -21 8s-8.33301 12 -9 20l-9 147
c0 11.333 3.83301 20.666 11.5 27.999z" />
    <glyph glyph-name="numbersign" unicode="#" horiz-adv-x="724" 
d="M670 538c6 -5.33301 9.00098 -12.332 9.00098 -20.999c0 -11.333 -4 -20 -12 -26s-19.333 -9 -34 -9h-79l-30 -172h81c10.667 0 18.834 -2.83301 24.501 -8.5s8.5 -12.834 8.5 -21.501c0 -9.33301 -4 -17.333 -12 -24s-19.333 -10 -34 -10h-82l-36 -207
c-2.66699 -12 -7.83398 -21.5 -15.501 -28.5s-17.5 -10.5 -29.5 -10.5c-9.33301 0 -16.666 2.5 -21.999 7.5s-8 12.167 -8 21.5c0 4 0.333008 7.33301 1 10l35 207h-194l-36 -207c-2 -11.333 -7.16699 -20.666 -15.5 -27.999s-17.833 -11 -28.5 -11
c-9.33301 0 -16.833 2.66699 -22.5 8s-8.5 12.666 -8.5 21.999l1 9l36 207h-84c-10 0 -17.833 2.5 -23.5 7.5s-8.5 11.5 -8.5 19.5c0 12 4 21.167 12 27.5s18.333 9.5 31 9.5h87l29 172h-83c-24 0 -36 10 -36 30c0 10.667 4 19 12 25s19 9 33 9h88l36 201
c2 12 7 21.667 15 29s17.667 11 29 11c9.33301 0 16.833 -2.83301 22.5 -8.5s8.5 -13.167 8.5 -22.5l-1 -8l-36 -202h195l36 201c1.33301 11.333 6.16602 20.833 14.499 28.5s18.166 11.5 29.499 11.5c10 0 17.5 -2.66699 22.5 -8s7.5 -12.333 7.5 -21
c0 -4.66699 -0.333008 -8 -1 -10l-35 -202h78c10.667 0 19 -2.66699 25 -8zM479.001 482.001h-195l-29 -172h194z" />
    <glyph glyph-name="dollar" unicode="$" horiz-adv-x="598" 
d="M493 56.5c-40.667 -37.667 -93.3311 -59.499 -157.998 -65.499v-62c0 -8.66699 -2.33301 -15.5 -7 -20.5s-10.667 -7.5 -18 -7.5c-8 0 -14.333 2.5 -19 7.5s-7 11.833 -7 20.5v61c-54.667 3.33301 -103 17.5 -145 42.5s-72 58.5 -90 100.5c-2 5.33301 -3 10.333 -3 15
c0 16 8.66699 26.667 26 32c2 0.666992 5 1 9 1c16 0 27.667 -8 35 -24c12 -27.333 33 -49.333 63 -66s65 -26 105 -28v307c-65.333 11.333 -116.833 35.666 -154.5 72.999s-56.5 83.666 -56.5 138.999c0 54.667 19.5 99 58.5 133s89.833 53.667 152.5 59v48
c0 8.66699 2.33301 15.5 7 20.5s11 7.5 19 7.5c7.33301 0 13.333 -2.5 18 -7.5s7 -11.833 7 -20.5v-48c45.333 -3.33301 85.166 -16.166 119.499 -38.499s60.5 -50.166 78.5 -83.499c4.66699 -7.33301 7 -15.333 7 -24c0 -12.667 -5.66699 -22 -17 -28
c-4.66699 -2.66699 -10 -4 -16 -4c-13.333 0 -24.333 6.33301 -33 19c-30 53.333 -76.333 82.666 -139 87.999v-275c71.333 -12.667 125.666 -38 162.999 -76s56 -86.667 56 -146c0 -62 -20.333 -111.833 -61 -149.5zM284.003 437.001v266
c-42.667 -3.33301 -76 -15.333 -100 -36s-36 -49.667 -36 -87c0 -73.333 45.333 -121 136 -143zM441.503 304.001c-23.667 27.333 -59.167 46.333 -106.5 57v-297c43.333 5.33301 77.833 20.333 103.5 45s38.5 57 38.5 97c0 38 -11.833 70.667 -35.5 98z" />
    <glyph glyph-name="percent" unicode="%" horiz-adv-x="859" 
d="M329 755.5c30 -17.667 53.834 -41.5 71.501 -71.5s26.5 -62.667 26.5 -98s-8.83301 -67.833 -26.5 -97.5s-41.334 -53.334 -71.001 -71.001s-62.167 -26.5 -97.5 -26.5s-68 8.83301 -98 26.5s-53.833 41.334 -71.5 71.001s-26.5 62.167 -26.5 97.5s8.83301 68 26.5 98
s41.5 53.833 71.5 71.5s62.667 26.5 98 26.5c34.667 0 67 -8.83301 97 -26.5zM710.001 782c11.333 0 20.668 -3.83105 28.001 -11.498s11 -17.167 11 -28.5c0 -8.66699 -2.33301 -16.334 -7 -23.001l-553 -706c-8.66699 -8.66699 -18.667 -13 -30 -13
c-10.667 0 -19.667 3.66699 -27 11s-11 16.666 -11 27.999c0 9.33301 3 18 9 26l549 701c9.33301 10.667 19.666 16 30.999 16zM172.503 689.502c-18.333 -11 -33.001 -25.667 -44.001 -44s-16.5 -38.166 -16.5 -59.499s5.33301 -41 16 -59s25.334 -32.5 44.001 -43.5
s38.667 -16.5 60 -16.5s41.166 5.5 59.499 16.5s32.833 25.5 43.5 43.5s16 37.667 16 59s-5.5 41.166 -16.5 59.499s-25.667 33 -44 44s-37.833 16.5 -58.5 16.5c-21.333 0 -41.166 -5.5 -59.499 -16.5zM735.002 364.002c30 -17.333 53.833 -41.002 71.5 -71.002
s26.5 -62.667 26.5 -98s-8.83301 -68 -26.5 -98s-41.5 -53.667 -71.5 -71s-62.667 -26 -98 -26s-67.833 8.83301 -97.5 26.5s-53.334 41.334 -71.001 71.001s-26.5 62.167 -26.5 97.5s8.83301 67.833 26.5 97.5s41.334 53.334 71.001 71.001s62.167 26.5 97.5 26.5
s68 -8.66699 98 -26zM553.002 279c-23.333 -23.333 -35 -51.333 -35 -84s11.667 -60.667 35 -84s51.333 -35 84 -35c21.333 0 41.166 5.5 59.499 16.5s33 25.667 44 44s16.5 37.833 16.5 58.5s-5.5 40.167 -16.5 58.5s-25.667 33 -44 44s-38.166 16.5 -59.499 16.5
c-32.667 0 -60.667 -11.667 -84 -35z" />
    <glyph glyph-name="ampersand" unicode="&#x26;" horiz-adv-x="720" 
d="M680 46c0 -6.66699 -3.66602 -13.667 -10.999 -21c-8 -8 -16.667 -12 -26 -12c-8.66699 0 -17 4 -25 12l-111 111l-20 -21c-37.333 -40 -74.333 -70.333 -111 -91s-76.667 -31 -120 -31c-64.667 0 -116 17 -154 51s-57 79 -57 135c0 41.333 12.833 80.166 38.5 116.499
s66.5 76.166 122.5 119.499l12 10l-54 54c-46 46 -69 96.333 -69 151c0 30 7.66699 57.167 23 81.5s36.166 43.5 62.499 57.5s55.833 21 88.5 21c33.333 0 63.5 -7.33301 90.5 -22s48.167 -34.667 63.5 -60s23 -53.666 23 -84.999
c-0.666992 -36.667 -11 -69.834 -31 -99.501s-50.333 -60.5 -91 -92.5l-10 -8l192 -192l85 90c9.33301 10 18 15 26 15c6.66699 0 13.667 -3.33301 21 -10c8.66699 -7.33301 13 -15.666 13 -24.999c0 -7.33301 -4 -15.666 -12 -24.999l-86 -91l112 -112
c10 -10 15 -19 15 -27zM271.001 466l19.001 14.999c57.333 45.333 86 93 86 143c0 28.667 -9.5 52.834 -28.5 72.501s-45.167 29.5 -78.5 29.5c-29.333 0 -54 -9.33301 -74 -28s-30 -41 -30 -67c0 -20.667 4.16699 -39.667 12.5 -57s21.166 -35 38.499 -53zM460.002 182.999
l-199 199l-20 -15c-42.667 -34 -73.667 -66 -93 -96s-29 -60.667 -29 -92c0 -36 12.167 -64.833 36.5 -86.5s58.5 -32.5 102.5 -32.5c32.667 0 63 8.16699 91 24.5s58 41.5 90 75.5z" />
    <glyph glyph-name="quotesingle" unicode="'" horiz-adv-x="156" 
d="M52.5 770c7.66699 7.33301 16.832 11 27.499 11s19.834 -3.66699 27.501 -11s11.5 -16.333 11.5 -27l-10 -147c0 -8.66699 -2.83301 -15.667 -8.5 -21s-12.5 -8 -20.5 -8s-14.833 2.66699 -20.5 8s-8.5 12.333 -8.5 21l-10 147c0 10.667 3.83301 19.667 11.5 27z" />
    <glyph glyph-name="parenleft" unicode="(" horiz-adv-x="256" 
d="M234 771c7.33301 -7.33301 11.001 -16.335 11.001 -27.002c0 -7.33301 -2 -14.666 -6 -21.999c-73.333 -147.333 -110 -296.666 -110 -447.999c0 -149.333 37 -299 111 -449c4 -8 6 -15 6 -21c0 -10.667 -3.66699 -19.667 -11 -27s-16.666 -11 -27.999 -11
c-8.66699 0 -15.834 2 -21.501 6s-10.834 10.667 -15.501 20c-78 160 -117 321 -117 483c0 162.667 39 323 117 481c8 17.333 20.333 26 37 26c10.667 0 19.667 -3.66699 27 -11z" />
    <glyph glyph-name="parenright" unicode=")" horiz-adv-x="256" 
d="M22 771c-7.33301 -7.33301 -11.001 -16.335 -11.001 -27.002c0 -7.33301 2 -14.666 6 -21.999c73.333 -147.333 110 -296.666 110 -447.999c0 -149.333 -37 -299 -111 -449c-4 -8 -6 -15 -6 -21c0 -10.667 3.66699 -19.667 11 -27s16.666 -11 27.999 -11
c8.66699 0 15.834 2 21.501 6s10.834 10.667 15.501 20c78 160 117 321 117 483c0 162.667 -39 323 -117 481c-8 17.333 -20.333 26 -37 26c-10.667 0 -19.667 -3.66699 -27 -11z" />
    <glyph glyph-name="asterisk" unicode="*" horiz-adv-x="381" 
d="M155 743c0 11.333 3.83301 20.665 11.5 27.998s16.834 11 27.501 11c11.333 0 20.666 -3.66699 27.999 -11s11 -16.666 11 -27.999c0 -3.33301 -0.666992 -7.66602 -2 -12.999l-18 -78l73 45c6 4 12.333 6 19 6c10 0 19 -3.66699 27 -11s12 -16.666 12 -27.999
s-3.5 -20.333 -10.5 -27s-16.167 -10.667 -27.5 -12l-81 -7l63 -52c12 -10 18 -21 18 -33c0 -10.667 -3.83301 -19.834 -11.5 -27.501s-18.167 -11.5 -31.5 -11.5c-14 0.666992 -25 9.33398 -33 26.001l-35 78l-36 -77c-6 -18 -18.667 -27 -38 -27
c-11.333 0 -20.5 3.83301 -27.5 11.5s-10.5 16.834 -10.5 27.501c0 12 4.66699 21.333 14 28l68 57l-81 7c-12 1.33301 -21.5 5.66602 -28.5 12.999s-10.5 16 -10.5 26c0.666992 11.333 4.66699 20.666 12 27.999s16.333 11 27 11c8 0 16.333 -3 25 -9l66 -41l-17 77
c-2 4 -3 8.33301 -3 13z" />
    <glyph glyph-name="plus" unicode="+" horiz-adv-x="547" 
d="M245 614c7.33301 7.33301 16.333 11.0039 27 11.0039c11.333 0 20.666 -3.66699 27.999 -11s11 -16.333 11 -27v-157h157c10.667 0 19.834 -3.83301 27.501 -11.5s11.5 -16.834 11.5 -27.501s-3.83301 -19.834 -11.5 -27.501s-16.834 -11.5 -27.501 -11.5h-157v-157
c0 -11.333 -3.66699 -20.666 -11 -27.999s-16.666 -11 -27.999 -11c-10.667 0 -19.667 3.66699 -27 11s-11 16.666 -11 27.999v157h-157c-10.667 0 -19.667 3.66699 -27 11s-11 16.666 -11 27.999s3.66699 20.666 11 27.999s16.333 11 27 11h157v157
c0 10.667 3.66699 19.667 11 27z" />
    <glyph glyph-name="comma" unicode="," horiz-adv-x="226" 
d="M157.5 78.5c12.333 -15.667 18.5 -37.4971 18.5 -65.4971c0 -24.667 -4.66699 -50.834 -14 -78.501s-21.5 -50.667 -36.5 -69s-29.833 -27.5 -44.5 -27.5c-14 0 -21 6.66699 -21 20c0 6 1.33301 11.833 4 17.5s7 12.167 13 19.5c6.66699 10 11.667 18.667 15 26
s5 15.666 5 24.999c0 10.667 -2 19.667 -6 27s-10 15.666 -18 24.999s-13.833 17.333 -17.5 24s-5.5 15 -5.5 25c0 16.667 5.5 30 16.5 40s24.833 15 41.5 15c20.667 0 37.167 -7.83301 49.5 -23.5z" />
    <glyph glyph-name="hyphen" unicode="-" horiz-adv-x="391" 
d="M339 301c7.33301 -7.33301 11 -16.666 11 -27.999c0 -10.667 -3.66699 -19.667 -11 -27s-16.666 -11 -27.999 -11h-235c-10.667 0 -19.667 3.66699 -27 11s-11 16.333 -11 27c0 11.333 3.5 20.666 10.5 27.999s16.167 11 27.5 11h235
c11.333 0 20.666 -3.66699 27.999 -11z" />
    <glyph glyph-name="period" unicode="." horiz-adv-x="216" 
d="M149 83.5c11.333 -11.667 17 -25.5 17 -41.5s-5.66699 -29.667 -17 -41s-25 -17 -41 -17s-29.667 5.66699 -41 17s-17 25 -17 41c0 16.667 5.83301 30.667 17.5 42s25.167 17 40.5 17c16 0 29.667 -5.83301 41 -17.5z" />
    <glyph glyph-name="slash" unicode="/" horiz-adv-x="469" 
d="M370.5 777c6.33301 4 13.501 6 21.501 6c11.333 0 20.5 -3.83301 27.5 -11.5s10.5 -16.834 10.5 -27.501c0 -5.33301 -1 -10.666 -3 -15.999l-314 -784c-5.33301 -14.667 -17.333 -22 -36 -22c-10.667 0 -19.667 3.66699 -27 11s-11 16.333 -11 27c0 5.33301 1 11 3 17
l314 783c3.33301 7.33301 8.16602 13 14.499 17z" />
    <glyph glyph-name="zero" unicode="0" horiz-adv-x="571" 
d="M413 735.5c35.333 -31.667 62.167 -76.834 80.5 -135.501s27.5 -128 27.5 -208c0 -122.667 -20.667 -218.667 -62 -288s-99.333 -104 -174 -104c-49.333 0 -91.666 15.667 -126.999 47s-62.166 76.333 -80.499 135s-27.5 128.667 -27.5 210
c0 80.667 9.16699 150.334 27.5 209.001s45.166 103.667 80.499 135s77.666 47 126.999 47c50 0 92.667 -15.833 128 -47.5zM168.001 619c-26.667 -57.333 -40 -133 -40 -227c0 -95.333 13.333 -171.5 40 -228.5s65.667 -85.5 117 -85.5c52 0 91.333 28.667 118 86
s40 133.333 40 228c0 94 -13.5 169.667 -40.5 227s-66.167 86 -117.5 86s-90.333 -28.667 -117 -86z" />
    <glyph glyph-name="one" unicode="1" horiz-adv-x="378" 
d="M80 649c-11.333 0 -20.666 3.5 -27.999 10.5s-11 16.167 -11 27.5c0 19.333 8.33301 31.666 25 36.999l154 53c10 3.33301 16.667 5 20 5c10.667 0 19.667 -3.66699 27 -11s11 -16.666 11 -27.999v-704c0 -10.667 -3.66699 -19.834 -11 -27.501
s-16.666 -11.5 -27.999 -11.5c-10.667 0 -19.834 3.83301 -27.501 11.5s-11.5 16.834 -11.5 27.501v650l-100 -35c-6.66699 -3.33301 -13.334 -5 -20.001 -5z" />
    <glyph glyph-name="two" unicode="2" horiz-adv-x="581" 
d="M522.5 66.5c7.66699 -7.66699 11.501 -16.834 11.501 -27.501s-3.66699 -19.834 -11 -27.501s-16.666 -11.5 -27.999 -11.5h-385c-10.667 0 -19.834 3.83301 -27.501 11.5s-11.5 16.834 -11.5 27.501s3.66699 19.667 11 27l303 358c16.667 18 30 38.167 40 60.5
s15 43.166 15 62.499c0 46.667 -13.833 85 -41.5 115s-62.834 45 -105.501 45c-28 0 -53.333 -7.16699 -76 -21.5s-40.667 -33.666 -54 -57.999s-20 -51.166 -20 -80.499c0 -10.667 -3.83301 -19.667 -11.5 -27s-16.834 -11 -27.501 -11s-19.834 3.66699 -27.501 11
s-11.5 16.333 -11.5 27c0 44 10 84 30 120s47.333 64.167 82 84.5s73.334 30.5 116.001 30.5c43.333 0 81.833 -10 115.5 -30s60 -47.833 79 -83.5s28.5 -76.167 28.5 -121.5c0 -54 -26 -111.333 -78 -172l-256 -297h313c10.667 0 19.834 -3.83301 27.501 -11.5z" />
    <glyph glyph-name="three" unicode="3" horiz-adv-x="585" 
d="M406.5 760.5c31.667 -17 56.499 -40.3389 74.499 -70.0059s27 -62.834 27 -99.501c0 -33.333 -11.5 -65.166 -34.5 -95.499s-51.167 -52.833 -84.5 -67.5c49.333 -14.667 86.833 -40.5 112.5 -77.5s38.5 -79.5 38.5 -127.5c0 -42.667 -10.5 -81.5 -31.5 -116.5
s-49.833 -62.333 -86.5 -82s-77.334 -29.5 -122.001 -29.5c-46 0 -87.667 10.167 -125 30.5s-66.666 48.333 -87.999 84s-32 75.5 -32 119.5c0 11.333 3.5 21 10.5 29s15.833 12 26.5 12s19.5 -4 26.5 -12s10.5 -17.667 10.5 -29c0 -30 7.33301 -57.333 22 -82
s34.834 -44.167 60.501 -58.5s54.167 -21.5 85.5 -21.5c51.333 0 91.833 14.333 121.5 43s44.5 66.334 44.5 113.001c0 32 -7 60.333 -21 85s-33 43.834 -57 57.501s-51 20.5 -81 20.5c-10.667 0 -19.667 3.66699 -27 11s-11 16.666 -11 27.999s3.66699 20.5 11 27.5
s16.333 10.5 27 10.5c22.667 0 44 5.83301 64 17.5s36 27.334 48 47.001s18 40.834 18 63.501c0 35.333 -12.167 64.833 -36.5 88.5s-56.166 35.5 -95.499 35.5c-42 0 -76.667 -11.667 -104 -35s-41 -52.666 -41 -87.999c0 -11.333 -3.5 -20.833 -10.5 -28.5
s-15.833 -11.5 -26.5 -11.5s-19.5 3.83301 -26.5 11.5s-10.5 16.834 -10.5 27.501c0 36.667 9.5 69.834 28.5 99.501s45.167 53 78.5 70s70.666 25.5 111.999 25.5c38 0 72.833 -8.5 104.5 -25.5z" />
    <glyph glyph-name="four" unicode="4" horiz-adv-x="647" 
d="M604 221c0 -8.66699 -3.83496 -16.498 -11.502 -23.498s-16.5 -10.5 -26.5 -10.5h-79v-148c0 -10.667 -3.66699 -19.834 -11 -27.501s-16.666 -11.5 -27.999 -11.5c-10.667 0 -19.5 3.66699 -26.5 11s-10.5 16.666 -10.5 27.999v148h-358
c-11.333 0 -20.666 3.83301 -27.999 11.5s-11 16.5 -11 26.5c0 8 2.66699 15.667 8 23l396 518c7.33301 10.667 18 16 32 16c10.667 0 19.5 -3.83301 26.5 -11.5s10.5 -17.167 10.5 -28.5v-485h79c25.333 0 38 -12 38 -36zM410.998 257.002v382l-293 -382h293z" />
    <glyph glyph-name="five" unicode="5" horiz-adv-x="627" 
d="M447.5 474.5c39 -22.333 69.499 -52.8291 91.499 -91.4961s33 -81.667 33 -129s-11 -90.5 -33 -129.5s-52.5 -69.5 -91.5 -91.5s-82.167 -33 -129.5 -33s-90.333 11 -129 33s-69 52.5 -91 91.5s-33 82.167 -33 129.5c0 11.333 3.66699 20.666 11 27.999s16.333 11 27 11
c11.333 0 20.833 -3.83301 28.5 -11.5s11.5 -16.834 11.5 -27.501c0 -32.667 7.66699 -62.5 23 -89.5s36.333 -48.167 63 -63.5s56.334 -23 89.001 -23s62.5 7.66699 89.5 23s48.167 36.5 63.5 63.5s23 56.833 23 89.5s-7.66699 62.5 -23 89.5s-36.5 48.167 -63.5 63.5
s-56.833 23 -89.5 23h-175c-10.667 0 -19.834 3.83301 -27.501 11.5s-11.5 16.834 -11.5 27.501v274c0 11.333 3.83301 20.666 11.5 27.999s16.834 11 27.501 11h351c10.667 0 19.834 -3.83301 27.501 -11.5s11.5 -16.834 11.5 -27.501s-3.83301 -19.834 -11.5 -27.501
s-16.834 -11.5 -27.501 -11.5h-313v-196h137c47.333 0 90.5 -11.167 129.5 -33.5z" />
    <glyph glyph-name="six" unicode="6" horiz-adv-x="579" 
d="M419.5 439.5c35.667 -20.333 63.667 -48.332 84 -83.999s30.5 -75.834 30.5 -120.501s-10.167 -84.834 -30.5 -120.501s-48.166 -63.667 -83.499 -84s-75.333 -30.5 -120 -30.5s-84.834 10.167 -120.501 30.5s-63.667 48.333 -84 84s-30.5 75.834 -30.5 120.501
c0 43.333 10 83.333 30 120l-1 -1l247 406c9.33301 14 21 21 35 21c11.333 0 20.833 -3.83301 28.5 -11.5s11.5 -16.5 11.5 -26.5c0 -6.66699 -2 -13.667 -6 -21l-157 -256c13.333 2.66699 29 4 47 4c44 0 83.833 -10.167 119.5 -30.5zM380.5 93.001
c24.333 14 43.5 33.5 57.5 58.5s21 52.833 21 83.5s-7 58.5 -21 83.5s-33.167 44.667 -57.5 59s-51.5 21.5 -81.5 21.5s-57.167 -7.16699 -81.5 -21.5s-43.5 -34 -57.5 -59s-21 -52.833 -21 -83.5s7 -58.5 21 -83.5s33.167 -44.5 57.5 -58.5s51.5 -21 81.5 -21
s57.167 7 81.5 21z" />
    <glyph glyph-name="seven" unicode="7" horiz-adv-x="568" 
d="M57.5 715.5c-7.66699 7.66699 -11.501 16.832 -11.501 27.499s3.83301 19.834 11.5 27.501s17.167 11.5 28.5 11.5h407c10.667 0 19.667 -3.83301 27 -11.5s11 -16.834 11 -27.501c0 -4.66699 -2 -11.667 -6 -21l-327 -700c-3.33301 -6.66699 -8.16602 -12 -14.499 -16
s-13.166 -6 -20.499 -6c-10.667 0 -19.834 3.83301 -27.501 11.5s-11.5 16.834 -11.5 27.501c0 6 2.66699 14.333 8 25l298 640h-344c-11.333 0 -20.833 3.83301 -28.5 11.5z" />
    <glyph glyph-name="eight" unicode="8" horiz-adv-x="593" 
d="M498 356.5c21.333 -35 31.998 -74.502 31.998 -118.502c0 -45.333 -10.167 -86.333 -30.5 -123s-48.333 -65.667 -84 -87s-75.167 -32 -118.5 -32c-44 0 -83.833 10.5 -119.5 31.5s-63.667 49.667 -84 86s-30.5 76.833 -30.5 121.5s10.833 84.834 32.5 120.501
s50.834 63.167 87.501 82.5c-24.667 17.333 -44 39.5 -58 66.5s-21 56.833 -21 89.5c0 35.333 8.5 67.5 25.5 96.5s40.333 51.667 70 68s62.834 24.5 99.501 24.5c36 0 68.5 -8.16699 97.5 -24.5s51.667 -38.666 68 -66.999s24.5 -60.166 24.5 -95.499
c0 -32.667 -7 -62.834 -21 -90.501s-33 -50.167 -57 -67.5c36.667 -19.333 65.667 -46.5 87 -81.5zM211.998 505.498c22.667 -23.667 51 -35.499 85 -35.499s62.167 12.167 84.5 36.5s33.5 54.5 33.5 90.5c0 32.667 -11.333 60 -34 82s-50.667 33 -84 33
c-34 0 -62.333 -11.333 -85 -34s-34 -51 -34 -85c0 -34.667 11.333 -63.834 34 -87.501zM431.498 317.999c-13.667 24 -32.333 43.0039 -56 57.0039s-49.834 21 -78.501 21c-29.333 0 -56 -7.16699 -80 -21.5s-42.667 -33.833 -56 -58.5s-20 -52.334 -20 -83.001
s6.83301 -58.834 20.5 -84.501s32.334 -45.834 56.001 -60.501s50.167 -22 79.5 -22s55.833 7.5 79.5 22.5s42.167 35.667 55.5 62s20 55.166 20 86.499c0 30 -6.83301 57 -20.5 81z" />
    <glyph glyph-name="nine" unicode="9" horiz-adv-x="579" 
d="M159.5 342.5c-35.667 20.333 -63.667 48.332 -84 83.999s-30.5 75.834 -30.5 120.501s10.167 84.834 30.5 120.501s48.166 63.667 83.499 84s75.333 30.5 120 30.5s84.834 -10.167 120.501 -30.5s63.667 -48.333 84 -84s30.5 -75.834 30.5 -120.501
c0 -43.333 -10 -83.333 -30 -120l1 1l-247 -406c-9.33301 -14 -21 -21 -35 -21c-11.333 0 -20.833 3.83301 -28.5 11.5s-11.5 16.5 -11.5 26.5c0 6.66699 2 13.667 6 21l157 256c-13.333 -2.66699 -29 -4 -47 -4c-44 0 -83.833 10.167 -119.5 30.5zM198.5 688.999
c-24.333 -14 -43.5 -33.5 -57.5 -58.5s-21 -52.833 -21 -83.5s7 -58.5 21 -83.5s33.167 -44.667 57.5 -59s51.5 -21.5 81.5 -21.5s57.167 7.16699 81.5 21.5s43.5 34 57.5 59s21 52.833 21 83.5s-7 58.5 -21 83.5s-33.167 44.5 -57.5 58.5s-51.5 21 -81.5 21
s-57.167 -7 -81.5 -21z" />
    <glyph glyph-name="colon" unicode=":" horiz-adv-x="195" 
d="M130.5 523.5c11 -11.667 16.5 -25.5 16.5 -41.5s-5.5 -29.667 -16.5 -41s-24.5 -17 -40.5 -17s-29.833 5.66699 -41.5 17s-17.5 25 -17.5 41c0 16.667 5.66699 30.667 17 42s25.333 17 42 17c16 0 29.5 -5.83301 40.5 -17.5zM133 83.5c11.333 -11.667 17 -25.5 17 -41.5
s-5.66699 -29.667 -17 -41s-25 -17 -41 -17s-29.667 5.66699 -41 17s-17 25 -17 41c0 16.667 5.83301 30.667 17.5 42s25.167 17 40.5 17c16 0 29.667 -5.83301 41 -17.5z" />
    <glyph glyph-name="semicolon" unicode=";" horiz-adv-x="200" 
d="M157.5 78.5c12.333 -15.667 18.5 -37.4971 18.5 -65.4971c0 -24.667 -4.66699 -50.834 -14 -78.501s-21.5 -50.667 -36.5 -69s-29.833 -27.5 -44.5 -27.5c-14 0 -21 6.66699 -21 20c0 6 1.33301 11.833 4 17.5s7 12.167 13 19.5c6.66699 10 11.667 18.667 15 26
s5 15.666 5 24.999c0 10.667 -2 19.667 -6 27s-10 15.666 -18 24.999s-13.833 17.333 -17.5 24s-5.5 15 -5.5 25c0 16.667 5.5 30 16.5 40s24.833 15 41.5 15c20.667 0 37.167 -7.83301 49.5 -23.5zM132.5 523.503c11 -11.667 16.5 -25.5 16.5 -41.5s-5.5 -29.667 -16.5 -41
s-24.5 -17 -40.5 -17s-29.833 5.66699 -41.5 17s-17.5 25 -17.5 41c0 16.667 5.66699 30.667 17 42s25.333 17 42 17c16 0 29.5 -5.83301 40.5 -17.5z" />
    <glyph glyph-name="less" unicode="&#x3c;" horiz-adv-x="547" 
d="M507 117c0 -11.333 -4.00098 -20.667 -12.001 -28s-17.333 -11 -28 -11c-6.66699 0 -12.667 1.66699 -18 5l-389 234c-14 8 -21 19.667 -21 35c0 12.667 7 24.334 21 35.001l389 234c6.66699 3.33301 13.334 5 20.001 5c10.667 0 19.667 -3.33301 27 -10
s11 -15.334 11 -26.001c0 -15.333 -6.33301 -27 -19 -35l-339 -202l339 -202c12.667 -8.66699 19 -20 19 -34z" />
    <glyph glyph-name="equal" unicode="=" horiz-adv-x="508" 
d="M457 496.5c7.33301 -7.66699 11 -16.8301 11 -27.4971s-3.66699 -19.834 -11 -27.501s-16.333 -11.5 -27 -11.5h-353c-10.667 0 -19.667 3.66699 -27 11s-11 16.666 -11 27.999s3.66699 20.666 11 27.999s16.333 11 27 11h353c10.667 0 19.667 -3.83301 27 -11.5z
M457 261.504c7.33301 -7.66699 11 -16.832 11 -27.499s-3.66699 -19.667 -11 -27s-16.333 -11 -27 -11l-353 -1c-11.333 0.666992 -20.5 4.66699 -27.5 12s-10.5 16.333 -10.5 27c0 11.333 3.5 20.666 10.5 27.999s16.167 11 27.5 11h353c10.667 0 19.667 -3.83301 27 -11.5
z" />
    <glyph glyph-name="greater" unicode="&#x3e;" horiz-adv-x="547" 
d="M507 352c0 -15.333 -7.00098 -26.999 -21.001 -34.999l-389 -234c-4.66699 -3.33301 -10.667 -5 -18 -5c-10.667 0 -20 3.66699 -28 11s-12 16.666 -12 27.999c0 14 6.33301 25.333 19 34l339 202l-339 202c-12.667 8 -19 19.667 -19 35
c0 10.667 3.66699 19.334 11 26.001s16.333 10 27 10c6.66699 0 13.334 -1.66699 20.001 -5l389 -234c14 -10.667 21 -22.334 21 -35.001z" />
    <glyph glyph-name="question" unicode="?" horiz-adv-x="547" 
d="M395.5 768.5c35 -19 62.3301 -45.165 81.9971 -78.498s29.5 -71 29.5 -113c0 -32.667 -5.33301 -61.167 -16 -85.5s-24.167 -45.833 -40.5 -64.5s-39.5 -41.667 -69.5 -69l-18 -16c-18.667 -16.667 -31.834 -36.167 -39.501 -58.5s-11.5 -44.5 -11.5 -66.5
c0 -11.333 -3.66699 -20.833 -11 -28.5s-16.666 -11.5 -27.999 -11.5s-20.666 3.83301 -27.999 11.5s-11 17.167 -11 28.5c0 27.333 6.66699 56.333 20 87s31.333 56.667 54 78l25 23c22.667 21.333 40.334 39.166 53.001 53.499s23.167 31.666 31.5 51.999
s12.5 43.833 12.5 70.5c0 26 -6.33301 49.833 -19 71.5s-30.667 38.834 -54 51.501s-50 19 -80 19c-49.333 0 -88.5 -14.833 -117.5 -44.5s-43.5 -68.167 -43.5 -115.5c0 -11.333 -3.5 -20.5 -10.5 -27.5s-16.167 -10.5 -27.5 -10.5s-20.666 3.5 -27.999 10.5
s-11 16.167 -11 27.5c0 45.333 10 85.666 30 120.999s48 63 84 83s77.333 30 124 30c44 0 83.5 -9.5 118.5 -28.5zM314.497 100.002c11.667 -11.333 17.5 -25.333 17.5 -42c0 -16 -5.83301 -29.667 -17.5 -41s-25.5 -17 -41.5 -17c-16.667 0 -30.5 5.66699 -41.5 17
s-16.5 25 -16.5 41c0 16.667 5.66699 30.667 17 42s25 17 41 17s29.833 -5.66699 41.5 -17z" />
    <glyph glyph-name="at" unicode="@" horiz-adv-x="1094" 
d="M832.5 55c7.66699 -10.667 18.5029 -16.001 32.5029 -16.001c21.333 0 40.5 10 57.5 30s30.333 47.833 40 83.5s14.5 76.167 14.5 121.5c0 82.667 -18.333 156.5 -55 221.5s-87.5 115.833 -152.5 152.5s-138.833 55 -221.5 55s-156.667 -18.333 -222 -55
s-116.166 -87.5 -152.499 -152.5s-54.5 -138.833 -54.5 -221.5c0 -83.333 18.167 -157.5 54.5 -222.5s87 -115.667 152 -152s139.167 -54.5 222.5 -54.5c29.333 0 60.5 3.33301 93.5 10s60.5 15.334 82.5 26.001c9.33301 4.66699 18.666 7 27.999 7
c10 0 17.667 -3.33301 23 -10s8 -16 8 -28c0 -14 -10.167 -27.333 -30.5 -40s-48.5 -23 -84.5 -31s-76 -12 -120 -12c-98 0 -185.5 21.5 -262.5 64.5s-137 103 -180 180s-64.5 164.5 -64.5 262.5s21.5 185.5 64.5 262.5s103 137 180 180s164.5 64.5 262.5 64.5
s185.5 -21.5 262.5 -64.5s137 -103 180 -180s64.5 -164.5 64.5 -262.5c0 -60.667 -8.33301 -114.667 -25 -162s-39.667 -84.333 -69 -111s-63 -40 -101 -40c-34 0 -61.833 10.167 -83.5 30.5s-32.5 46.833 -32.5 79.5v38c-19.333 -31.333 -47.833 -57.333 -85.5 -78
s-75.834 -31 -114.501 -31c-52 0 -98.333 11.667 -139 35s-72.5 55.833 -95.5 97.5s-34.5 88.834 -34.5 141.501s11.667 99.834 35 141.501s55.666 74.167 96.999 97.5s88.333 35 141 35s99.667 -11.667 141 -35s73.666 -55.833 96.999 -97.5s35 -88.834 35 -141.501v-172
c0 -20.667 3.83301 -36.334 11.5 -47.001zM447.003 443.999c-29.333 -16.667 -52.333 -39.834 -69 -69.501s-25 -63.167 -25 -100.5c0 -38 8.16699 -71.833 24.5 -101.5s39.333 -52.667 69 -69s63.5 -24.5 101.5 -24.5c37.333 0 70.833 8.33301 100.5 25
s52.834 39.667 69.501 69s25 63 25 101c0 37.333 -8.33301 70.833 -25 100.5s-39.834 52.834 -69.501 69.501s-63.167 25 -100.5 25c-38 0 -71.667 -8.33301 -101 -25z" />
    <glyph glyph-name="A" unicode="A" horiz-adv-x="703" 
d="M690 39c0 -10.667 -3.83301 -19.835 -11.5 -27.502s-16.834 -11.5 -27.501 -11.5c-17.333 0 -29.666 8 -36.999 24l-67 162h-387l-67 -162c-5.33301 -16 -17.333 -24 -36 -24c-11.333 0 -20.5 3.83301 -27.5 11.5s-10.5 16.834 -10.5 27.501c0 6.66699 1 12.334 3 17.001
l294 698c7.33301 18 20 27 38 27s30.333 -9 37 -27l295 -699c2.66699 -4.66699 4 -10 4 -16zM520 252.999l-166 401l-166 -401h332z" />
    <glyph glyph-name="B" unicode="B" horiz-adv-x="695" 
d="M490.5 755.5c32.333 -17 58.001 -40.499 77.001 -70.499s28.5 -63.667 28.5 -101c0 -35.333 -9.5 -67 -28.5 -95s-44.5 -49.667 -76.5 -65c46 -12.667 82.333 -35.5 109 -68.5s40 -74.5 40 -124.5c0 -44.667 -10.333 -84.5 -31 -119.5s-49.167 -62.333 -85.5 -82
s-77.833 -29.5 -124.5 -29.5h-255c-13.333 0 -24 3.5 -32 10.5s-12 16.5 -12 28.5v703c0 11.333 3.66699 20.666 11 27.999s16.666 11 27.999 11h243c40 0 76.167 -8.5 108.5 -25.5zM481.501 489.501c25.667 23 38.498 54.5 38.498 94.5c0 38.667 -12.667 68.667 -38 90
s-58.666 32 -99.999 32h-204v-251h204c40.667 0 73.834 11.5 99.501 34.5zM517.499 117.501c30.333 28.333 45.5 66.167 45.5 113.5c0 45.333 -15.167 81.5 -45.5 108.5s-69.833 40.5 -118.5 40.5h-221v-305h221c48.667 0 88.167 14.167 118.5 42.5z" />
    <glyph glyph-name="C" unicode="C" horiz-adv-x="771" 
d="M582 770c39.333 -14 77.3369 -36.333 114.004 -67c7.33301 -5.33301 11 -13 11 -23c0 -5.33301 -1.33301 -10.166 -4 -14.499s-6.33398 -7.5 -11.001 -9.5c-1.33301 -4.66699 -4.33301 -8.33398 -9 -11.001s-9.66699 -4 -15 -4c-10 0 -18.333 3 -25 9
c-26 23.333 -54.333 40.333 -85 51s-66.334 16 -107.001 16c-56 0 -108 -14.833 -156 -44.5s-86.167 -69.5 -114.5 -119.5s-42.5 -104 -42.5 -162c0 -59.333 14 -114 42 -164s66 -89.667 114 -119s100.333 -44 157 -44c72.667 0 138.334 23.333 197.001 70
c7.33301 5.33301 14.666 8 21.999 8c10 0 18.667 -3.5 26 -10.5s11 -16.167 11 -27.5c0 -10.667 -3.66699 -20 -11 -28c-62.667 -57.333 -144.334 -86 -245.001 -86c-70.667 0 -135.667 18 -195 54s-106.5 84.667 -141.5 146s-52.5 128.333 -52.5 201
c0 72 17.333 138.667 52 200s81.667 110 141 146s124.666 54 195.999 54c48 0 91.667 -7 131 -21z" />
    <glyph glyph-name="D" unicode="D" horiz-adv-x="770" 
d="M521 731c59.333 -33.333 105.5 -79.5 138.5 -138.5s49.5 -126.167 49.5 -201.5s-16.5 -142.666 -49.5 -201.999s-79.167 -105.666 -138.5 -138.999s-126.666 -50 -201.999 -50h-180c-11.333 0 -20.666 3.66699 -27.999 11s-11 16.666 -11 27.999v703
c0 11.333 3.66699 20.666 11 27.999s16.666 11 27.999 11h180c75.333 0 142.666 -16.667 201.999 -50zM481 111.5c47.333 27.667 84.333 65.833 111 114.5s40 103.667 40 165s-13.333 116.333 -40 165s-63.667 86.667 -111 114s-101.333 41 -162 41h-141v-641h141
c60.667 0 114.667 13.833 162 41.5z" />
    <glyph glyph-name="E" unicode="E" horiz-adv-x="692" 
d="M636 64.5c7.33301 -7 11.002 -15.833 11.002 -26.5s-3.66699 -19.667 -11 -27s-16.666 -11 -27.999 -11h-469c-10.667 -0 -19.834 3.83301 -27.501 11.5s-11.5 16.834 -11.5 27.501v703c0 11.333 3.83301 20.666 11.5 27.999s16.834 11 27.501 11h469
c11.333 0 20.666 -3.66699 27.999 -11s11 -16.333 11 -27s-3.66699 -19.5 -11 -26.5s-16.666 -10.5 -27.999 -10.5h-430v-276h313c11.333 0 20.666 -3.66699 27.999 -11s11 -16.333 11 -27s-3.83301 -19.667 -11.5 -27s-16.834 -11 -27.501 -11h-313v-279h430
c11.333 0 20.666 -3.5 27.999 -10.5z" />
    <glyph glyph-name="F" unicode="F" horiz-adv-x="625" 
d="M457 419.5c7.33301 -7 10.999 -16.166 10.999 -27.499c0 -10.667 -3.66699 -19.667 -11 -27s-16.666 -11 -27.999 -11h-313v-315c0 -10.667 -3.66699 -19.834 -11 -27.501s-16.666 -11.5 -27.999 -11.5c-10.667 -0 -19.834 3.83301 -27.501 11.5
s-11.5 16.834 -11.5 27.501v703c0 11.333 3.83301 20.666 11.5 27.999s16.834 11 27.501 11h469c11.333 0 20.666 -3.66699 27.999 -11s11 -16.333 11 -27s-3.66699 -19.5 -11 -26.5s-16.666 -10.5 -27.999 -10.5h-430v-276h313c11.333 0 20.666 -3.5 27.999 -10.5z" />
    <glyph glyph-name="G" unicode="G" horiz-adv-x="771" 
d="M696 379.5c7.33301 -7 11.0029 -16.1689 11.0029 -27.502v-248c0 -11.333 -3.66699 -20.666 -11 -27.999c-62 -57.333 -143.667 -86 -245 -86c-70.667 0 -135.667 18 -195 54s-106.5 84.667 -141.5 146s-52.5 128.333 -52.5 201c0 72 17.333 138.667 52 200
s81.667 110 141 146s124.666 54 195.999 54c48 0 91.667 -7 131 -21s77.333 -36.333 114 -67c7.33301 -5.33301 11 -13 11 -23c0 -5.33301 -1.33301 -10.166 -4 -14.499s-6.33398 -7.5 -11.001 -9.5c-1.33301 -4.66699 -4.33301 -8.5 -9 -11.5s-9.66699 -4.5 -15 -4.5
c-9.33301 0 -17.666 3.33301 -24.999 10c-26 23.333 -54.333 40.333 -85 51s-66.334 16 -107.001 16c-56 0 -108 -14.833 -156 -44.5s-86.167 -69.5 -114.5 -119.5s-42.5 -104 -42.5 -162c0 -59.333 14 -114 42 -164s66 -89.667 114 -119s100.333 -44 157 -44
c64.667 0 124.667 19 180 57v200h-156c-11.333 0 -20.666 3.33301 -27.999 10s-11 15 -11 25s3.66699 18.167 11 24.5s16.666 9.5 27.999 9.5h193c11.333 0 20.666 -3.5 27.999 -10.5z" />
    <glyph glyph-name="H" unicode="H" horiz-adv-x="844" 
d="M677.5 770c7.66699 7.33301 16.834 11 27.501 11c11.333 0 20.666 -3.66699 27.999 -11s11 -16.666 11 -27.999v-703c0 -10.667 -3.66699 -19.834 -11 -27.501s-16.666 -11.5 -27.999 -11.5c-10.667 -0 -19.834 3.83301 -27.501 11.5s-11.5 16.834 -11.5 27.501v321h-488
v-321c0 -10.667 -3.66699 -19.834 -11 -27.501s-16.666 -11.5 -27.999 -11.5c-10.667 -0 -19.834 3.83301 -27.501 11.5s-11.5 16.834 -11.5 27.501v703c0 11.333 3.83301 20.666 11.5 27.999s16.834 11 27.501 11c11.333 0 20.666 -3.66699 27.999 -11
s11 -16.666 11 -27.999v-312h488v312c0 11.333 3.83301 20.666 11.5 27.999z" />
    <glyph glyph-name="I" unicode="I" horiz-adv-x="278" 
d="M111.5 770c7.66699 7.33301 16.834 11 27.501 11c11.333 0 20.666 -3.66699 27.999 -11s11 -16.666 11 -27.999v-703c0 -10.667 -3.66699 -19.834 -11 -27.501s-16.666 -11.5 -27.999 -11.5c-10.667 -0 -19.834 3.83301 -27.501 11.5s-11.5 16.834 -11.5 27.501v703
c0 11.333 3.83301 20.666 11.5 27.999z" />
    <glyph glyph-name="J" unicode="J" horiz-adv-x="614" 
d="M483 105.5c-20.667 -35.667 -48.8301 -63.832 -84.4971 -84.499s-75.167 -31 -118.5 -31c-44 0 -83.833 10.333 -119.5 31s-63.834 48.834 -84.501 84.501s-31 75.167 -31 118.5c0 11.333 3.66699 20.666 11 27.999s16.666 11 27.999 11s20.666 -3.66699 27.999 -11
s11 -16.666 11 -27.999c0 -30 7 -57.167 21 -81.5s33 -43.5 57 -57.5s50.333 -21 79 -21s55 7.16699 79 21.5s42.833 33.666 56.5 57.999s20.5 51.166 20.5 80.499v518c0 11.333 3.83301 20.666 11.5 27.999s16.834 11 27.501 11c11.333 0 20.666 -3.66699 27.999 -11
s11 -16.666 11 -27.999v-518c0 -43.333 -10.333 -82.833 -31 -118.5z" />
    <glyph glyph-name="K" unicode="K" horiz-adv-x="655" 
d="M167 11.5c-7.33301 -7.66699 -16.6641 -11.502 -27.9971 -11.502c-10.667 0 -19.834 3.83301 -27.501 11.5s-11.5 16.834 -11.5 27.501v703c0 10.667 3.83301 19.834 11.5 27.501s16.834 11.5 27.501 11.5c11.333 0 20.666 -3.66699 27.999 -11s11 -16.666 11 -27.999
v-340l365 365c9.33301 9.33301 19.666 14 30.999 14s20.166 -3.33301 26.499 -10s9.5 -15 9.5 -25c0 -12 -4.33301 -22.667 -13 -32l-274 -274l277 -378c5.33301 -8.66699 8 -16.667 8 -24c0 -10 -3.5 -18.833 -10.5 -26.5s-15.5 -11.5 -25.5 -11.5
c-14.667 0 -25.667 5.66699 -33 17l-272 368l-89 -90v-256c0 -10.667 -3.66699 -19.834 -11 -27.501z" />
    <glyph glyph-name="L" unicode="L" horiz-adv-x="633" 
d="M597 63.5c7.33301 -7 11.001 -15.8359 11.001 -26.5029s-3.66699 -19.5 -11 -26.5s-16.666 -10.5 -27.999 -10.5h-430c-10.667 0 -19.834 3.83301 -27.501 11.5s-11.5 16.834 -11.5 27.501v703c0 10.667 3.83301 19.834 11.5 27.501s16.834 11.5 27.501 11.5
c11.333 0 20.666 -3.66699 27.999 -11s11 -16.666 11 -27.999v-668h391c11.333 0 20.666 -3.5 27.999 -10.5z" />
    <glyph glyph-name="M" unicode="M" horiz-adv-x="981" 
d="M870 770c7.33301 -7.33301 10.999 -16.666 10.999 -27.999v-703c0 -10.667 -3.66699 -19.834 -11 -27.501s-16.333 -11.5 -27 -11.5c-11.333 -0 -20.833 3.83301 -28.5 11.5s-11.5 16.834 -11.5 27.501v566l-278 -568c-8 -12.667 -19.333 -19 -34 -19
c-16.667 0 -28.667 8 -36 24l-277 554v-557c0 -10.667 -3.66699 -19.834 -11 -27.501s-16.666 -11.5 -27.999 -11.5c-10.667 -0 -19.834 3.83301 -27.501 11.5s-11.5 16.834 -11.5 27.501v703c0 11.333 3.83301 20.666 11.5 27.999s16.834 11 27.501 11
c15.333 0 27 -6.66699 35 -20l320 -636l314 636c8 13.333 19.667 20 35 20c10.667 0 19.667 -3.66699 27 -11z" />
    <glyph glyph-name="N" unicode="N" horiz-adv-x="825" 
d="M658.5 770c7.66699 7.33301 16.832 11.0039 27.499 11.0039c11.333 0 20.666 -3.66699 27.999 -11s11 -16.666 11 -27.999v-703c0 -10.667 -3.66699 -19.834 -11 -27.501s-16.666 -11.5 -27.999 -11.5c-13.333 0 -23 4.33301 -29 13l-479 628v-602
c0 -10.667 -3.66699 -19.834 -11 -27.501s-16.666 -11.5 -27.999 -11.5s-20.666 3.66699 -27.999 11s-11 16.666 -11 27.999v703c0 11.333 3.66699 20.666 11 27.999s16.666 11 27.999 11c12 0 22 -4.66699 30 -14l478 -628v603c0 11.333 3.83301 20.666 11.5 27.999z" />
    <glyph glyph-name="O" unicode="O" horiz-adv-x="921" 
d="M665.5 739c61 -34.667 108.667 -82.334 143 -143.001s51.5 -129 51.5 -205s-17.167 -144.5 -51.5 -205.5s-82 -108.833 -143 -143.5s-129.167 -52 -204.5 -52c-76 0 -144.333 17.333 -205 52s-108.167 82.5 -142.5 143.5s-51.5 129.5 -51.5 205.5
s17.167 144.333 51.5 205s81.833 108.334 142.5 143.001s129 52 205 52c75.333 0 143.5 -17.333 204.5 -52zM295.5 674c-49 -28.667 -87.5 -67.834 -115.5 -117.501s-42 -104.834 -42 -165.501c0 -61.333 14 -116.833 42 -166.5s66.5 -88.834 115.5 -117.501
s104.167 -43 165.5 -43c60.667 0 115.5 14.333 164.5 43s87.5 67.834 115.5 117.501s42 105.167 42 166.5c0 60.667 -14 115.834 -42 165.501s-66.5 88.834 -115.5 117.501s-103.833 43 -164.5 43c-61.333 0 -116.5 -14.333 -165.5 -43z" />
    <glyph glyph-name="P" unicode="P" horiz-adv-x="612" 
d="M167 11c-7.33301 -7.33301 -16.667 -11 -28 -11s-20.666 3.66699 -27.999 11s-11 16.666 -11 27.999v703c0 11.333 3.66699 20.666 11 27.999s16.666 11 27.999 11h200c48.667 0 92.167 -10.833 130.5 -32.5s68.166 -51.667 89.499 -90s32 -82.166 32 -131.499
c0 -48.667 -10.667 -92 -32 -130s-51.166 -67.667 -89.499 -89s-81.833 -32 -130.5 -32h-161v-237c0 -11.333 -3.66699 -20.666 -11 -27.999zM429.999 373.5c26.667 15 47.5 35.833 62.5 62.5s22.5 57 22.5 91c0 34.667 -7.5 65.5 -22.5 92.5s-35.833 48.167 -62.5 63.5
s-57 23 -91 23h-161v-355h161c34 0 64.333 7.5 91 22.5z" />
    <glyph glyph-name="Q" unicode="Q" horiz-adv-x="921" 
d="M809 65c7.33301 -7.33301 11.001 -16 11.001 -26c0 -10.667 -3.66699 -19.667 -11 -27c-8 -8 -17 -12 -27 -12s-19 4 -27 12l-53 53c-33.333 -24 -70.5 -42.5 -111.5 -55.5s-84.167 -19.5 -129.5 -19.5c-76 0 -144.333 17.333 -205 52s-108.167 82.5 -142.5 143.5
s-51.5 129.5 -51.5 205.5s17.167 144.333 51.5 205s81.833 108.334 142.5 143.001s129 52 205 52c75.333 0 143.5 -17.333 204.5 -52s108.667 -82.334 143 -143.001s51.5 -129 51.5 -205c0 -54 -8.83301 -104.5 -26.5 -151.5s-42.834 -88.167 -75.501 -123.5zM646.001 120
l-107.001 107.001c-8 8 -12 17 -12 27s4 19 12 27c7.33301 7.33301 16 11 26 11c10.667 0 19.667 -3.66699 27 -11l111 -111c25.333 29.333 45 63 59 101s21 78 21 120c0 60.667 -14 115.834 -42 165.501s-66.5 88.834 -115.5 117.501s-103.833 43 -164.5 43
c-61.333 0 -116.5 -14.333 -165.5 -43s-87.5 -67.834 -115.5 -117.501s-42 -104.834 -42 -165.501c0 -61.333 14 -116.833 42 -166.5s66.5 -88.834 115.5 -117.501s104.167 -43 165.5 -43c70.667 0 132.334 18.667 185.001 56z" />
    <glyph glyph-name="R" unicode="R" horiz-adv-x="618" 
d="M597 33c0 -10 -3.66797 -17.9971 -11.001 -23.9971s-17 -9 -29 -9c-8 0 -14.667 1.66699 -20 5s-10 8.33301 -14 15l-180 286h-17h-148v-267c0 -11.333 -3.66699 -20.666 -11 -27.999s-16.666 -11 -27.999 -11s-20.666 3.66699 -27.999 11s-11 16.666 -11 27.999v703
c0 11.333 3.66699 20.666 11 27.999s16.666 11 27.999 11h187c48.667 0 92 -10.167 130 -30.5s67.833 -48.833 89.5 -85.5s32.5 -78.334 32.5 -125.001c0 -51.333 -13.833 -96.333 -41.5 -135s-65.167 -66.334 -112.5 -83.001l164 -262c6 -10 9 -19 9 -27zM325.999 381.003
c33.333 0 63.5 6.83301 90.5 20.5s48 32.5 63 56.5s22.5 51.333 22.5 82c0 32 -7.5 60.667 -22.5 86s-35.833 45 -62.5 59s-57 21 -91 21h-148v-325h148z" />
    <glyph glyph-name="S" unicode="S" horiz-adv-x="662" 
d="M479 756c40 -23.333 71.3291 -53.666 93.9961 -90.999c4.66699 -7.33301 7 -15.333 7 -24c0 -12.667 -6 -22.667 -18 -30c-5.33301 -2.66699 -11.333 -4 -18 -4c-7.33301 0 -14.166 1.83301 -20.499 5.5s-11.5 8.83398 -15.5 15.501
c-37.333 58.667 -93.666 88.334 -168.999 89.001c-54 0 -96.667 -11.333 -128 -34s-47 -55 -47 -97c0 -78 63 -125.333 189 -142c82.667 -12 144.334 -37.333 185.001 -76s61 -89.667 61 -153c0 -46.667 -11.333 -87 -34 -121s-53.667 -59.833 -93 -77.5
s-83.333 -26.5 -132 -26.5c-63.333 0 -119.5 13.5 -168.5 40.5s-84.167 63.5 -105.5 109.5c-2.66699 4.66699 -4 10 -4 16c0 9.33301 3.5 17.166 10.5 23.499s16.5 9.5 28.5 9.5c8 0 15.5 -2.16699 22.5 -6.5s12.167 -10.5 15.5 -18.5c15.333 -30 40.833 -54.167 76.5 -72.5
s77.167 -27.5 124.5 -27.5c54.667 0 98.667 13.167 132 39.5s50 63.166 50 110.499c0 42 -15.5 77.333 -46.5 106s-77.5 47 -139.5 55c-77.333 9.33301 -138.166 33.5 -182.499 72.5s-66.5 86.833 -66.5 143.5c0 40 10.833 75.167 32.5 105.5s51.667 53.666 90 69.999
s81.833 24.5 130.5 24.5c52.667 0 99 -11.667 139 -35z" />
    <glyph glyph-name="T" unicode="T" horiz-adv-x="655" 
d="M630 771c6.66699 -6.66699 10 -15.334 10 -26.001c0 -10 -3.33301 -18.333 -10 -25s-15.334 -10 -26.001 -10h-238v-671c0 -10.667 -3.66699 -19.834 -11 -27.501s-16.666 -11.5 -27.999 -11.5c-10.667 0 -19.834 3.83301 -27.501 11.5s-11.5 16.834 -11.5 27.501v671
h-237c-10.667 0 -19.334 3.33301 -26.001 10s-10 15 -10 25c0 10.667 3.33301 19.334 10 26.001s15.334 10 26.001 10h553c10.667 0 19.334 -3.33301 26.001 -10z" />
    <glyph glyph-name="U" unicode="U" horiz-adv-x="819" 
d="M111 770c7.33301 7.33301 16.668 11 28.001 11s20.666 -3.66699 27.999 -11s11 -16.666 11 -27.999v-484c0 -38.667 9.83301 -73.167 29.5 -103.5s47.167 -54 82.5 -71s75.666 -25.5 120.999 -25.5c44.667 0 84.334 8.5 119.001 25.5s61.834 40.667 81.501 71
s29.5 64.833 29.5 103.5v484c0 11.333 3.66699 20.666 11 27.999s16.666 11 27.999 11s20.666 -3.66699 27.999 -11s11 -16.666 11 -27.999v-484c0 -52.667 -13.167 -99.834 -39.5 -141.501s-62.833 -74.167 -109.5 -97.5s-99.667 -35 -159 -35
c-60 0 -113.667 11.667 -161 35s-84.166 55.833 -110.499 97.5s-39.5 88.834 -39.5 141.501v484c0 11.333 3.66699 20.666 11 27.999z" />
    <glyph glyph-name="V" unicode="V" horiz-adv-x="716" 
d="M687.5 771c6.33301 -6.66699 9.50098 -15 9.50098 -25c0 -6.66699 -1.66699 -14 -5 -22l-298 -699c-7.33301 -16.667 -19 -25 -35 -25c-8.66699 -0 -15.834 1.83301 -21.501 5.5s-10.5 10.167 -14.5 19.5l-297 695c-4 10 -6 18.667 -6 26c0 10.667 3.5 19.167 10.5 25.5
s16.167 9.5 27.5 9.5c17.333 0 29.333 -8.33301 36 -25l265 -634l264 632c4 10 9 17 15 21s14 6 24 6c10.667 0 19.167 -3.33301 25.5 -10z" />
    <glyph glyph-name="W" unicode="W" horiz-adv-x="938" 
d="M907 770.5c6 -7 8.99609 -15.833 8.99609 -26.5c0 -5.33301 -1 -11.666 -3 -18.999l-204 -692c-3.33301 -10.667 -8.5 -18.834 -15.5 -24.501s-15.167 -8.5 -24.5 -8.5s-17.5 3 -24.5 9s-11.833 13.667 -14.5 23l-162 591l-161 -590c-3.33301 -10 -8.5 -18 -15.5 -24
s-15.167 -9 -24.5 -9s-17.5 3 -24.5 9s-11.833 13.667 -14.5 23l-205 693c-2 7.33301 -3 13.333 -3 18c0 11.333 3.33301 20.5 10 27.5s15.334 10.5 26.001 10.5c18.667 0 31.334 -10 38.001 -30l173 -603l164 586c2 7.33301 6.5 13.333 13.5 18s14.833 7 23.5 7
s16.334 -2.33301 23.001 -7s11.334 -11 14.001 -19l165 -586l174 608c5.33301 17.333 18 26 38 26c10.667 0 19 -3.5 25 -10.5z" />
    <glyph glyph-name="X" unicode="X" horiz-adv-x="707" 
d="M662 38c0 -10.667 -3.33496 -19.666 -10.002 -26.999s-15.667 -11 -27 -11c-13.333 0 -23.333 4.66699 -30 14l-239 331l-244 -333c-6.66699 -8 -16 -12 -28 -12c-11.333 0 -20.333 3.5 -27 10.5s-10 15.5 -10 25.5s3 19 9 27l247 336l-231 321
c-5.33301 8.66699 -8 16.667 -8 24c0 10 3.33301 18.667 10 26s15.334 11 26.001 11c13.333 0 23.333 -4.66699 30 -14l227 -314l230 314c7.33301 9.33301 17.333 14 30 14c10.667 0 19.334 -3.83301 26.001 -11.5s10 -16.5 10 -26.5
c0 -8.66699 -2.33301 -16.334 -7 -23.001l-236 -320l243 -337c6 -8 9 -16.333 9 -25z" />
    <glyph glyph-name="Y" unicode="Y" horiz-adv-x="648" 
d="M633.5 770.5c6.33301 -7 9.50098 -15.5 9.50098 -25.5c0 -9.33301 -2.33301 -17.666 -7 -24.999l-273 -431v-250c0 -10.667 -3.66699 -19.834 -11 -27.501s-16.666 -11.5 -27.999 -11.5c-10.667 -0 -19.834 3.83301 -27.501 11.5s-11.5 16.834 -11.5 27.501v250l-272 431
c-5.33301 8.66699 -8 17 -8 25c0 10 3.66699 18.5 11 25.5s16.333 10.5 27 10.5c7.33301 0 13.5 -1.5 18.5 -4.5s9.83301 -7.83301 14.5 -14.5l249 -401l248 399c5.33301 7.33301 10.666 12.666 15.999 15.999s12 5 20 5c10 0 18.167 -3.5 24.5 -10.5z" />
    <glyph glyph-name="Z" unicode="Z" horiz-adv-x="724" 
d="M64 720c-6.66699 6 -10 14.333 -10 25c0 10 3.66699 18.5 11 25.5s16.666 10.5 27.999 10.5h542c12 0 21.5 -4 28.5 -12s10.5 -17.333 10.5 -28c0 -8.66699 -2.33301 -15.667 -7 -21l-519 -650h487c11.333 0 20.666 -3.16699 27.999 -9.5s11 -14.833 11 -25.5
c0 -10 -3.66699 -18.333 -11 -25s-16.666 -10 -27.999 -10h-547c-11.333 0 -20.666 4 -27.999 12s-11 17 -11 27s2.66699 18 8 24l517 648h-482c-12 0 -21.333 3 -28 9z" />
    <glyph glyph-name="bracketleft" unicode="[" horiz-adv-x="302" 
d="M290.5 -167c7.66699 -8 11.5 -17.3291 11.5 -27.9961s-3.83301 -19.834 -11.5 -27.501s-17.167 -11.5 -28.5 -11.5h-158c-10.667 0 -19.834 3.66699 -27.501 11s-11.5 16.666 -11.5 27.999v938c0 11.333 3.83301 20.666 11.5 27.999s16.834 11 27.501 11h158
c11.333 0 20.833 -3.83301 28.5 -11.5s11.5 -16.834 11.5 -27.501s-3.83301 -20 -11.5 -28s-17.167 -12 -28.5 -12h-119v-858h119c11.333 0 20.833 -4 28.5 -12z" />
    <glyph glyph-name="backslash" unicode="\" horiz-adv-x="469" 
d="M39 742c0 11.333 3.83203 20.833 11.499 28.5s17.167 11.5 28.5 11.5c8 0 15.167 -2 21.5 -6s10.833 -9.66699 13.5 -17l315 -784c2.66699 -4.66699 4 -10 4 -16c0 -11.333 -3.66699 -20.666 -11 -27.999s-16.666 -11 -27.999 -11c-7.33301 0 -14.333 2 -21 6
s-11.667 9.66699 -15 17l-316 783c-2 5.33301 -3 10.666 -3 15.999z" />
    <glyph glyph-name="bracketright" unicode="]" horiz-adv-x="302" 
d="M11.5 -167c-7.66699 -8 -11.5 -17.3291 -11.5 -27.9961s3.83301 -19.834 11.5 -27.501s17.167 -11.5 28.5 -11.5h158c10.667 0 19.834 3.66699 27.501 11s11.5 16.666 11.5 27.999v938c0 11.333 -3.83301 20.666 -11.5 27.999s-16.834 11 -27.501 11h-158
c-11.333 0 -20.833 -3.83301 -28.5 -11.5s-11.5 -16.834 -11.5 -27.501s3.83301 -20 11.5 -28s17.167 -12 28.5 -12h119v-858h-119c-11.333 0 -20.833 -4 -28.5 -12z" />
    <glyph glyph-name="asciicircum" unicode="^" horiz-adv-x="469" 
d="M82 470c-11.333 0 -20.833 3.66602 -28.5 10.999s-11.5 16.333 -11.5 27c0 6.66699 2 13.334 6 20.001l158 238c8 10.667 18.667 16 32 16c12.667 0 23 -5.33301 31 -16l158 -238c4 -6 6 -12.667 6 -20c0 -10.667 -3.83301 -19.667 -11.5 -27s-16.834 -11 -27.501 -11
c-13.333 0 -23.666 4.66699 -30.999 14l-125 188l-126 -188c-7.33301 -9.33301 -17.333 -14 -30 -14z" />
    <glyph glyph-name="underscore" unicode="_" horiz-adv-x="469" 
d="M507 -11.5c7.33301 -7.66699 11 -16.832 11 -27.499s-3.66699 -19.834 -11 -27.501s-16.333 -11.5 -27 -11.5h-479c-11.333 0 -20.666 3.66699 -27.999 11s-11 16.666 -11 27.999c0 10.667 3.66699 19.834 11 27.501s16.666 11.5 27.999 11.5h479
c10.667 0 19.667 -3.83301 27 -11.5z" />
    <glyph glyph-name="grave" unicode="`" horiz-adv-x="273" 
d="M43 742c0 11.333 3.66602 20.833 10.999 28.5s16.333 11.5 27 11.5s20 -4 28 -12l112 -113c6.66699 -6 10 -14.333 10 -25c0 -11.333 -3.66699 -20.833 -11 -28.5s-16.666 -11.5 -27.999 -11.5c-10 0 -18.667 3.66699 -26 11l-113 112
c-6.66699 6.66699 -10 15.667 -10 27z" />
    <glyph glyph-name="a" unicode="a" 
d="M480.5 515.5c42.333 -24.333 75.666 -57.832 99.999 -100.499s36.5 -90 36.5 -142v-235c0 -10.667 -3.66699 -19.667 -11 -27s-16.666 -11 -27.999 -11s-20.666 3.5 -27.999 10.5s-11 16.167 -11 27.5v60c-23.333 -32 -53 -57.167 -89 -75.5s-75.667 -27.5 -119 -27.5
c-50.667 0 -96.5 12.167 -137.5 36.5s-73.333 57.666 -97 99.999s-35.5 89.5 -35.5 141.5s12.167 99.333 36.5 142s57.666 76.167 99.999 100.5s89.5 36.5 141.5 36.5s99.167 -12.167 141.5 -36.5zM442 92.001c30.667 18 54.834 42.833 72.501 74.5s26.5 67.167 26.5 106.5
s-8.83301 74.833 -26.5 106.5s-41.834 56.667 -72.501 75s-65 27.5 -103 27.5s-72.5 -9.16699 -103.5 -27.5s-55.333 -43.333 -73 -75s-26.5 -67.167 -26.5 -106.5s8.83301 -74.833 26.5 -106.5s42 -56.5 73 -74.5s65.5 -27 103.5 -27s72.333 9 103 27z" />
    <glyph glyph-name="b" unicode="b" horiz-adv-x="707" 
d="M90 509l0.000976562 -234.999c0 -52 12.167 -99.333 36.5 -142s57.666 -76.167 99.999 -100.5s89.5 -36.5 141.5 -36.5s99.167 12.167 141.5 36.5s75.666 57.833 99.999 100.5s36.5 90 36.5 142s-11.833 99.167 -35.5 141.5s-56 75.666 -97 99.999
s-86.833 36.5 -137.5 36.5c-43.333 0 -83 -9.16699 -119 -27.5s-65.667 -43.5 -89 -75.5v293c0 11.333 -3.66699 20.666 -11 27.999s-16.666 11 -27.999 11s-20.5 -3.66699 -27.5 -11s-10.5 -16.666 -10.5 -27.999v-224c-0.666992 -2 -1 -5 -1 -9zM265.001 92.501
c-30.667 18.333 -54.833 43.334 -72.5 75.001s-26.5 67.167 -26.5 106.5c0 11.333 0.333008 19.666 1 24.999c0.666992 1.33301 1 3 1 5c6.66699 52 28.5 94.667 65.5 128s81.833 50 134.5 50c38 0 72.5 -9 103.5 -27s55.333 -42.833 73 -74.5s26.5 -67.167 26.5 -106.5
s-8.83301 -74.833 -26.5 -106.5s-42 -56.667 -73 -75s-65.5 -27.5 -103.5 -27.5s-72.333 9.16699 -103 27.5z" />
    <glyph glyph-name="c" unicode="c" horiz-adv-x="596" 
d="M527 456c5.33301 -6 8.00195 -12.998 8.00195 -20.998c0 -10.667 -5.66699 -20 -17 -28c-6 -4 -12.333 -6 -19 -6c-10 0 -19.667 5 -29 15c-20 22 -42 38.5 -66 49.5s-50.667 16.5 -80 16.5c-36.667 0 -69.334 -8.83301 -98.001 -26.5s-50.834 -42.5 -66.501 -74.5
s-23.5 -68 -23.5 -108c0 -39.333 8.33301 -74.833 25 -106.5s40 -56.5 70 -74.5s64.333 -27 103 -27c53.333 0 96.333 14.333 129 43c8.66699 7.33301 17.667 11 27 11c8 0 15.333 -2.66699 22 -8c9.33301 -8 14 -17 14 -27c0 -8.66699 -3.33301 -16 -10 -22
c-48 -44.667 -108.667 -67 -182 -67c-52 0 -98.667 12.167 -140 36.5s-73.833 57.666 -97.5 99.999s-35.5 89.5 -35.5 141.5c0 53.333 11.333 101.166 34 143.499s54 75.5 94 99.5s85 36 135 36c83.333 0 151 -32 203 -96z" />
    <glyph glyph-name="d" unicode="d" horiz-adv-x="707" 
d="M617 509l-0.000976562 -234.999c0 -52 -12.167 -99.333 -36.5 -142s-57.666 -76.167 -99.999 -100.5s-89.5 -36.5 -141.5 -36.5s-99.167 12.167 -141.5 36.5s-75.666 57.833 -99.999 100.5s-36.5 90 -36.5 142s11.833 99.167 35.5 141.5s56 75.666 97 99.999
s86.833 36.5 137.5 36.5c43.333 0 83 -9.16699 119 -27.5s65.667 -43.5 89 -75.5v293c0 11.333 3.66699 20.666 11 27.999s16.666 11 27.999 11s20.5 -3.66699 27.5 -11s10.5 -16.666 10.5 -27.999v-224c0.666992 -2 1 -5 1 -9zM441.999 92.501
c30.667 18.333 54.833 43.334 72.5 75.001s26.5 67.167 26.5 106.5c0 11.333 -0.333008 19.666 -1 24.999c-0.666992 1.33301 -1 3 -1 5c-6.66699 52 -28.5 94.667 -65.5 128s-81.833 50 -134.5 50c-38 0 -72.5 -9 -103.5 -27s-55.333 -42.833 -73 -74.5
s-26.5 -67.167 -26.5 -106.5s8.83301 -74.833 26.5 -106.5s42 -56.667 73 -75s65.5 -27.5 103.5 -27.5s72.333 9.16699 103 27.5z" />
    <glyph glyph-name="e" unicode="e" horiz-adv-x="614" 
d="M454 517.5c38 -23 67.502 -54.8311 88.502 -95.498s31.5 -87 31.5 -139c0 -10.667 -3.33301 -19.167 -10 -25.5s-15.334 -9.5 -26.001 -9.5h-404c5.33301 -54.667 26.666 -99 63.999 -133s84 -51 140 -51c24 0 48.167 4.16699 72.5 12.5s43.833 18.833 58.5 31.5
c8.66699 6.66699 17.667 10 27 10c7.33301 0 14.666 -2.66699 21.999 -8c8.66699 -8 13 -17 13 -27c0 -8.66699 -3.66699 -16.334 -11 -23.001c-22 -18.667 -50 -34.167 -84 -46.5s-66.667 -18.5 -98 -18.5c-53.333 0 -101 11.833 -143 35.5s-74.833 56.667 -98.5 99
s-35.5 90.166 -35.5 143.499c0 54 11.167 102.167 33.5 144.5s53.333 75.333 93 99s84.834 35.5 135.501 35.5c49.333 0 93 -11.5 131 -34.5zM197.002 436.002c-33.333 -31.333 -53.667 -72.666 -61 -123.999h366c-5.33301 51.333 -24 92.666 -56 123.999s-73 47 -123 47
c-50.667 0 -92.667 -15.667 -126 -47z" />
    <glyph glyph-name="f" unicode="f" horiz-adv-x="366" 
d="M231.5 667c-22.333 -29.333 -33.501 -68.333 -33.501 -117v-23h120c10.667 0 19.167 -3.16699 25.5 -9.5s9.5 -14.5 9.5 -24.5c0 -9.33301 -3.16699 -17.166 -9.5 -23.499s-14.833 -9.5 -25.5 -9.5h-120v-421c0 -12 -3.5 -21.5 -10.5 -28.5s-16.833 -10.5 -29.5 -10.5
c-10.667 0 -19.5 3.5 -26.5 10.5s-10.5 16.5 -10.5 28.5v421h-64c-10.667 0 -19.167 3.16699 -25.5 9.5s-9.5 14.166 -9.5 23.499c0 10 3.16699 18.167 9.5 24.5s14.833 9.5 25.5 9.5h64v19c0 71.333 18.333 128.333 55 171s88.334 64 155.001 64
c11.333 0 20.666 -3.33301 27.999 -10s11 -15 11 -25s-3.66699 -18.333 -11 -25s-16.666 -10 -27.999 -10c-44 0 -77.167 -14.667 -99.5 -44z" />
    <glyph glyph-name="g" unicode="g" 
d="M482 516.5c42 -23.667 75.002 -56.668 99.002 -99.001s36 -90.5 36 -144.5v-204c0 -53.333 -11.833 -101.666 -35.5 -144.999s-56.5 -77.5 -98.5 -102.5s-89.333 -37.5 -142 -37.5c-51.333 0 -97 9.66699 -137 29s-73.667 46.333 -101 81c-6 6.66699 -9 14.334 -9 23.001
c0 10 4.66699 18.667 14 26c6.66699 4.66699 14 7 22 7c6 0 12 -1.5 18 -4.5s10.667 -6.83301 14 -11.5c20 -25.333 45.333 -45 76 -59s65.334 -21 104.001 -21c37.333 0 71.166 9.16699 101.499 27.5s54.166 44 71.499 77s26 70.833 26 113.5v45
c-20 -38 -48.333 -67.833 -85 -89.5s-78.334 -32.5 -125.001 -32.5c-52 0 -98.5 11.833 -139.5 35.5s-73 56.667 -96 99s-34.5 90.166 -34.5 143.499c0 54 12 102.167 36 144.5s57.167 75.333 99.5 99s89.833 35.5 142.5 35.5c53.333 0 101 -11.833 143 -35.5z
M443.002 91.499c30.667 17.667 54.667 42.334 72 74.001s26 67.5 26 107.5s-8.66699 75.833 -26 107.5s-41.333 56.5 -72 74.5s-65.334 27 -104.001 27c-39.333 0 -74.333 -9 -105 -27s-54.667 -42.833 -72 -74.5s-26 -67.5 -26 -107.5s8.66699 -75.833 26 -107.5
s41.333 -56.334 72 -74.001s65.667 -26.5 105 -26.5c38.667 0 73.334 8.83301 104.001 26.5z" />
    <glyph glyph-name="h" unicode="h" 
d="M476.5 523c37.667 -20 67.165 -49.1689 88.498 -87.502s32 -84.166 32 -137.499v-260c0 -10.667 -3.66699 -19.667 -11 -27s-16.333 -11 -27 -11c-11.333 0 -20.666 3.66699 -27.999 11s-11 16.333 -11 27v260c0 59.333 -16.5 104.5 -49.5 135.5
s-76.167 46.5 -129.5 46.5c-32.667 0 -62.167 -6.33301 -88.5 -19s-47.166 -30.167 -62.499 -52.5s-23 -47.166 -23 -74.499v-296c0 -11.333 -3.5 -20.5 -10.5 -27.5s-16.167 -10.5 -27.5 -10.5s-20.666 3.5 -27.999 10.5s-11 16.167 -11 27.5v704
c0 11.333 3.66699 20.666 11 27.999s16.666 11 27.999 11s20.5 -3.66699 27.5 -11s10.5 -16.666 10.5 -27.999v-268c22 24.667 48.667 44 80 58s65.333 21 102 21c47.333 0 89.833 -10 127.5 -30z" />
    <glyph glyph-name="i" unicode="i" horiz-adv-x="289" 
d="M117 536c7.33301 7.33301 16.666 11 27.999 11s20.5 -3.66699 27.5 -11s10.5 -16.666 10.5 -27.999v-469c0 -11.333 -3.5 -20.666 -10.5 -27.999s-16.167 -11 -27.5 -11s-20.666 3.66699 -27.999 11s-11 16.666 -11 27.999v469c0 11.333 3.66699 20.666 11 27.999z
M183 745c10.667 -10 15.998 -23 15.998 -39c0 -15.333 -5.33301 -28.333 -16 -39s-23.667 -16 -39 -16s-28.166 5.33301 -38.499 16s-15.5 23.667 -15.5 39c0 16 5.33301 29 16 39s23.667 15 39 15c14.667 0 27.334 -5 38.001 -15z" />
    <glyph glyph-name="j" unicode="j" horiz-adv-x="285" 
d="M149 -121c-20 -35.333 -47.667 -62.998 -83 -82.998s-75.666 -30 -120.999 -30c-11.333 0 -20.666 3.66699 -27.999 11s-11 16.666 -11 27.999s3.66699 20.666 11 27.999s16.666 11 27.999 11c46 0 83.667 14.667 113 44s44 66.666 44 111.999v508
c0 11.333 3.5 20.666 10.5 27.999s16.167 11 27.5 11s20.666 -3.66699 27.999 -11s11 -16.666 11 -27.999v-508c0 -45.333 -10 -85.666 -30 -120.999zM178 745.002c10.667 -10 15.998 -23 15.998 -39c0 -15.333 -5.33301 -28.333 -16 -39s-23.667 -16 -39 -16
s-28.166 5.33301 -38.499 16s-15.5 23.667 -15.5 39c0 16 5.33301 29 16 39s23.667 15 39 15c14.667 0 27.334 -5 38.001 -15z" />
    <glyph glyph-name="k" unicode="k" horiz-adv-x="572" 
d="M512 32c0 -10 -4.66699 -19 -14 -27c-8 -6 -16 -9 -24 -9c-10.667 0 -19.667 4.66699 -27 14l-206 253l-75 -68v-157c0 -11.333 -3.5 -20.5 -10.5 -27.5s-16.167 -10.5 -27.5 -10.5s-20.5 3.5 -27.5 10.5s-10.5 16.167 -10.5 27.5v705c0 11.333 3.5 20.5 10.5 27.5
s16.167 10.5 27.5 10.5s20.5 -3.5 27.5 -10.5s10.5 -16.167 10.5 -27.5v-455l282 255c7.33301 6.66699 15.333 10 24 10c10 0 18.333 -4 25 -12c7.33301 -8.66699 11 -16.667 11 -24c0 -9.33301 -4.33301 -17.666 -13 -24.999l-200 -181l208 -256
c6 -6.66699 9 -14.334 9 -23.001z" />
    <glyph glyph-name="l" unicode="l" horiz-adv-x="282" 
d="M81 770.5c7.33301 7 16.333 10.5 27 10.5c11.333 0 20.5 -3.5 27.5 -10.5s10.5 -16.167 10.5 -27.5v-570c0 -28.667 5.83301 -52 17.5 -70s26.5 -27 44.5 -27h25c10 0 18 -3.5 24 -10.5s9 -16.167 9 -27.5s-4.16699 -20.5 -12.5 -27.5s-19.166 -10.5 -32.499 -10.5h-13
c-40.667 0 -73.834 16.167 -99.501 48.5s-38.5 73.833 -38.5 124.5v570c0 11.333 3.66699 20.5 11 27.5z" />
    <glyph glyph-name="m" unicode="m" horiz-adv-x="947" 
d="M770.5 525c30.333 -18.667 53.9971 -45.168 70.9971 -79.501s25.5 -74.166 25.5 -119.499v-288c0 -11.333 -3.5 -20.5 -10.5 -27.5s-16.167 -10.5 -27.5 -10.5s-20.666 3.5 -27.999 10.5s-11 16.167 -11 27.5v288c0 47.333 -12.167 84.833 -36.5 112.5
s-56.166 41.5 -95.499 41.5c-42 0 -76 -14 -102 -42s-38.667 -64.667 -38 -110v-2v-288c0 -11.333 -3.5 -20.5 -10.5 -27.5s-16.167 -10.5 -27.5 -10.5s-20.666 3.5 -27.999 10.5s-11 16.167 -11 27.5v288c0 47.333 -12.167 84.833 -36.5 112.5s-56.166 41.5 -95.499 41.5
c-41.333 0 -75.333 -13.667 -102 -41s-40 -62.333 -40 -105v-296c0 -11.333 -3.5 -20.5 -10.5 -27.5s-16.167 -10.5 -27.5 -10.5s-20.666 3.5 -27.999 10.5s-11 16.167 -11 27.5v470c0 11.333 3.66699 20.666 11 27.999s16.666 11 27.999 11s20.5 -3.66699 27.5 -11
s10.5 -16.666 10.5 -27.999v-22c18.667 21.333 40.834 37.833 66.501 49.5s53.5 17.5 83.5 17.5c36.667 0 69.667 -8.33301 99 -25s52.666 -40 69.999 -70c19.333 30 44.5 53.333 75.5 70s65.833 25 104.5 25c39.333 0 74.166 -9.33301 104.499 -28z" />
    <glyph glyph-name="n" unicode="n" 
d="M476.5 523c37.667 -20 67.165 -49.1689 88.498 -87.502s32 -84.166 32 -137.499v-260c0 -10.667 -3.66699 -19.667 -11 -27s-16.333 -11 -27 -11c-11.333 0 -20.666 3.66699 -27.999 11s-11 16.333 -11 27v260c0 59.333 -16.5 104.5 -49.5 135.5
s-76.167 46.5 -129.5 46.5c-32.667 0 -62.167 -6.33301 -88.5 -19s-47.166 -30.167 -62.499 -52.5s-23 -47.166 -23 -74.499v-296c0 -11.333 -3.5 -20.5 -10.5 -27.5s-16.167 -10.5 -27.5 -10.5s-20.666 3.5 -27.999 10.5s-11 16.167 -11 27.5v470
c0 11.333 3.66699 20.666 11 27.999s16.666 11 27.999 11s20.5 -3.66699 27.5 -11s10.5 -16.666 10.5 -27.999v-34c22 24.667 48.667 44 80 58s65.333 21 102 21c47.333 0 89.833 -10 127.5 -30z" />
    <glyph glyph-name="o" unicode="o" 
d="M481 516c42 -24 75.167 -57.333 99.5 -100s36.5 -90.334 36.5 -143.001s-12 -100.167 -36 -142.5s-57.167 -75.5 -99.5 -99.5s-89.833 -36 -142.5 -36s-100.167 12 -142.5 36s-75.5 57.167 -99.5 99.5s-36 89.833 -36 142.5s12 100.334 36 143.001s57.167 76 99.5 100
s89.833 36 142.5 36s100 -12 142 -36zM235.5 455c-31 -18 -55.333 -42.833 -73 -74.5s-26.5 -67.5 -26.5 -107.5c0 -39.333 8.83301 -74.833 26.5 -106.5s42 -56.5 73 -74.5s65.5 -27 103.5 -27c38.667 0 73.334 9 104.001 27s54.667 42.833 72 74.5s26 67.167 26 106.5
c0 40 -8.66699 75.833 -26 107.5s-41.333 56.5 -72 74.5s-65.334 27 -104.001 27c-38 0 -72.5 -9 -103.5 -27z" />
    <glyph glyph-name="p" unicode="p" horiz-adv-x="707" 
d="M509.5 515.5c42.333 -24.333 75.667 -57.834 100 -100.501s36.5 -90 36.5 -142s-11.833 -99.167 -35.5 -141.5s-56 -75.666 -97 -99.999s-86.833 -36.5 -137.5 -36.5c-43.333 0 -83 9.16699 -119 27.5s-65.667 43.5 -89 75.5v-293
c0 -11.333 -3.66699 -20.666 -11 -27.999s-16.666 -11 -27.999 -11s-20.5 3.66699 -27.5 11s-10.5 16.666 -10.5 27.999v224c-0.666992 2 -1 5 -1 9v235c0 52 12.167 99.333 36.5 142s57.666 76.167 99.999 100.5s89.5 36.5 141.5 36.5s99.167 -12.167 141.5 -36.5z
M471.501 91.999c31 18 55.334 42.832 73.001 74.499s26.5 67.167 26.5 106.5s-8.83301 74.833 -26.5 106.5s-42 56.667 -73 75s-65.5 27.5 -103.5 27.5s-72.333 -9.16699 -103 -27.5s-54.834 -43.333 -72.501 -75s-26.5 -67.167 -26.5 -106.5
c0 -11.333 0.333008 -19.666 1 -24.999c0.666992 -1.33301 1 -3 1 -5c6.66699 -52 28.5 -94.667 65.5 -128s81.833 -50 134.5 -50c38 0 72.5 9 103.5 27z" />
    <glyph glyph-name="q" unicode="q" horiz-adv-x="707" 
d="M617 38c0 -4 -0.332031 -6.99902 -0.999023 -8.99902v-224c0 -11.333 -3.5 -20.666 -10.5 -27.999s-16.167 -11 -27.5 -11s-20.666 3.66699 -27.999 11s-11 16.666 -11 27.999v293c-23.333 -32 -53 -57.167 -89 -75.5s-75.667 -27.5 -119 -27.5
c-50.667 0 -96.5 12.167 -137.5 36.5s-73.333 57.666 -97 99.999s-35.5 89.5 -35.5 141.5s12.167 99.333 36.5 142s57.666 76.167 99.999 100.5s89.5 36.5 141.5 36.5s99.167 -12.167 141.5 -36.5s75.666 -57.833 99.999 -100.5s36.5 -90 36.5 -142v-235zM473.501 115.001
c37 33.333 58.834 76.001 65.501 128.001c0 2 0.333008 3.66699 1 5c0.666992 5.33301 1 13.666 1 24.999c0 39.333 -8.83301 74.833 -26.5 106.5s-41.834 56.667 -72.501 75s-65 27.5 -103 27.5s-72.5 -9.16699 -103.5 -27.5s-55.333 -43.333 -73 -75
s-26.5 -67.167 -26.5 -106.5s8.83301 -74.833 26.5 -106.5s42 -56.5 73 -74.5s65.5 -27 103.5 -27c52.667 0 97.5 16.667 134.5 50z" />
    <glyph glyph-name="r" unicode="r" horiz-adv-x="458" 
d="M403.5 542c16.333 -7.33301 24.501 -17.667 24.501 -31c0 -4 -0.333008 -7 -1 -9c-2.66699 -9.33301 -6.83398 -15.666 -12.501 -18.999s-13.5 -5 -23.5 -5c-6 0 -16.333 0.666992 -31 2c-5.33301 0.666992 -13.333 1 -24 1c-50 0 -90.833 -13.333 -122.5 -40
s-47.5 -61.334 -47.5 -104.001v-299c0 -12 -3.33301 -21.333 -10 -28s-16 -10 -28 -10s-21.333 3.33301 -28 10s-10 16 -10 28v471c0 12 3.33301 21.333 10 28s16 10 28 10s21.333 -3.33301 28 -10s10 -16 10 -28v-44c19.333 28 44 49.667 74 65s62.333 23 97 23
c28 0 50.167 -3.66699 66.5 -11z" />
    <glyph glyph-name="s" unicode="s" horiz-adv-x="539" 
d="M394 529.5c32.667 -15 58.998 -35.832 78.998 -62.499c5.33301 -8.66699 8 -16.334 8 -23.001c0 -11.333 -5.33301 -20.333 -16 -27c-4.66699 -3.33301 -11 -5 -19 -5c-14 0 -25.667 5 -35 15c-32.667 37.333 -77.334 56 -134.001 56c-36.667 0 -66 -7.5 -88 -22.5
s-33 -33.833 -33 -56.5c0 -24 10.333 -43.167 31 -57.5s57.334 -25.833 110.001 -34.5c71.333 -12 122.333 -31.5 153 -58.5s46 -60.5 46 -100.5c0 -30.667 -9.16699 -58 -27.5 -82s-43.833 -42.667 -76.5 -56s-69.667 -20 -111 -20s-81 7 -119 21s-68.667 33.667 -92 59
c-6.66699 8 -10 15.667 -10 23c0 11.333 5.33301 21.333 16 30c8 6 16.333 9 25 9c11.333 0 21 -4.66699 29 -14c16 -18.667 37.167 -33 63.5 -43s55.5 -15 87.5 -15c46.667 0 81.667 8 105 24s35.333 37 36 63c0 24 -11.667 44 -35 60s-60.333 28 -111 36
c-65.333 10.667 -114.166 29.167 -146.499 55.5s-48.5 58.166 -48.5 95.499c0 48.667 18.833 86.334 56.5 113.001s84.834 40 141.501 40c44 0 82.333 -7.5 115 -22.5z" />
    <glyph glyph-name="t" unicode="t" horiz-adv-x="402" 
d="M357 66c6.66699 -7.33301 10 -16.667 10 -28c0 -10.667 -4 -19.667 -12 -27s-18 -11 -30 -11h-21c-35.333 0 -67 8.5 -95 25.5s-49.833 40 -65.5 69s-23.5 61.833 -23.5 98.5v267h-65c-10.667 0 -19.167 3.16699 -25.5 9.5s-9.5 14.166 -9.5 23.499
c0 10 3.16699 18.167 9.5 24.5s14.833 9.5 25.5 9.5h65v155c0 11.333 3.5 20.666 10.5 27.999s16.167 11 27.5 11s20.666 -3.66699 27.999 -11s11 -16.666 11 -27.999v-155h113c10.667 0 19.167 -3.16699 25.5 -9.5s9.5 -14.5 9.5 -24.5
c0 -9.33301 -3.16699 -17.166 -9.5 -23.499s-14.833 -9.5 -25.5 -9.5h-113v-267c0 -34 10 -61.833 30 -83.5s45.667 -32.5 77 -32.5h27c10.667 0 19.334 -3.66699 26.001 -11z" />
    <glyph glyph-name="u" unicode="u" 
d="M576 536.5c7.33301 -7 11.002 -16.165 11.002 -27.498v-470c0 -11.333 -3.66699 -20.666 -11 -27.999s-16.666 -11 -27.999 -11s-20.5 3.66699 -27.5 11s-10.5 16.666 -10.5 27.999v34c-22 -24.667 -48.667 -44 -80 -58s-65.333 -21 -102 -21
c-47.333 0 -89.833 10 -127.5 30s-67.167 49.167 -88.5 87.5s-32 84.166 -32 137.499v260c0 10.667 3.66699 19.667 11 27s16.333 11 27 11c11.333 0 20.666 -3.66699 27.999 -11s11 -16.333 11 -27v-260c0 -59.333 16.5 -104.5 49.5 -135.5s76.167 -46.5 129.5 -46.5
c32.667 0 62.167 6.33301 88.5 19s47.166 30.167 62.499 52.5s23 47.166 23 74.499v296c0 11.333 3.5 20.5 10.5 27.5s16.167 10.5 27.5 10.5s20.666 -3.5 27.999 -10.5z" />
    <glyph glyph-name="v" unicode="v" horiz-adv-x="553" 
d="M537 512c0 -4 -1.00098 -8.66699 -3.00098 -14l-219 -472c-8.66699 -17.333 -21.334 -26 -38.001 -26c-16 0 -28 8.66699 -36 26l-222 471c-2 4 -3 8.66699 -3 14c0 14 7.33301 24.667 22 32c4.66699 2.66699 10 4 16 4c6.66699 0 12.834 -1.66699 18.501 -5
s9.83398 -8.33301 12.501 -15l192 -416l190 416c2.66699 6.66699 7 11.834 13 15.501s12.667 5.5 20 5.5c6 0 11.333 -1.33301 16 -4c14 -6.66699 21 -17.334 21 -32.001z" />
    <glyph glyph-name="w" unicode="w" horiz-adv-x="740" 
d="M714 538c6 -6 8.99902 -14 8.99902 -24c0 -8 -1.33301 -15 -4 -21l-156 -468c-2.66699 -7.33301 -7.16699 -13.333 -13.5 -18s-13.833 -7 -22.5 -7s-16.5 2.33301 -23.5 7s-11.5 10.667 -13.5 18l-120 398l-120 -398c-2.66699 -8 -7.33398 -14.167 -14.001 -18.5
s-14 -6.5 -22 -6.5c-8.66699 -0 -16.167 2.33301 -22.5 7s-11.166 10.667 -14.499 18l-156 468c-2 8 -3 15 -3 21c0 22 10.667 33 32 33c18.667 0 31.334 -9.66699 38.001 -29l128 -390l118 389c2.66699 9.33301 7.16699 16.666 13.5 21.999s14.5 8 24.5 8
s18.167 -2.66699 24.5 -8s10.833 -12.666 13.5 -21.999l115 -387l127 388c6.66699 19.333 19 29 37 29c10.667 0 19 -3 25 -9z" />
    <glyph glyph-name="x" unicode="x" horiz-adv-x="548" 
d="M506 33c0 -9.33301 -3.5 -17.168 -10.5 -23.501s-14.833 -9.5 -23.5 -9.5c-8 0 -14.667 1.33301 -20 4s-10.333 7.33398 -15 14.001l-164 209l-170 -215c-6 -8 -15 -12 -27 -12c-10.667 -0 -19.167 3.33301 -25.5 10s-9.5 14.667 -9.5 24c0 10.667 3.33301 19.667 10 27
l173 216l-164 208c-6.66699 7.33301 -10 16.333 -10 27c0 10 3 18.333 9 25s14.667 10 26 10s21 -4 29 -12l161 -207l159 201c9.33301 12 20.333 18 33 18c10.667 0 19.167 -3.33301 25.5 -10s9.5 -14.667 9.5 -24c0 -10 -3.66699 -19.667 -11 -29l-166 -206l170 -218
c7.33301 -9.33301 11 -18.333 11 -27z" />
    <glyph glyph-name="y" unicode="y" horiz-adv-x="548" 
d="M541 515c0 -6 -1.33301 -12 -4 -18l-324 -712c-6 -15.333 -15.667 -23 -29 -23c-6.66699 0 -12.667 1.33301 -18 4c-15.333 6 -23 16 -23 30c0 6 1.33301 12 4 18l99 219v1l-223 462c-2.66699 5.33301 -4 11.333 -4 18c0 14 7.33301 24 22 30
c5.33301 2.66699 11.333 4 18 4c14 0 24 -7 30 -21l195 -411l186 410c6.66699 14.667 16.667 22 30 22c6 0 12 -1.33301 18 -4c15.333 -6 23 -15.667 23 -29z" />
    <glyph glyph-name="z" unicode="z" horiz-adv-x="549" 
d="M506 35c0 -23.333 -11.667 -34.998 -35 -34.998h-371c-23.333 0 -35 11.667 -35 35c0 11.333 2.33301 19.666 7 24.999l328 417h-304c-23.333 0 -35 11.667 -35 35s11.667 35 35 35h371c23.333 0 35 -11.667 35 -35c0 -10.667 -2.66699 -19.334 -8 -26.001l-325 -416h302
c23.333 0 35 -11.667 35 -35z" />
    <glyph glyph-name="braceleft" unicode="{" horiz-adv-x="378" 
d="M327 -156c10.667 0 19.667 -3.66797 27 -11.001s11 -16.666 11 -27.999s-3.66699 -20.666 -11 -27.999s-16.333 -11 -27 -11c-104 0 -156 52 -156 156v234c0 52.667 -26.333 79 -79 79c-11.333 0 -20.666 3.66699 -27.999 11s-11 16.333 -11 27
c0 11.333 3.66699 20.666 11 27.999s16.666 11 27.999 11c52.667 0 79 26.333 79 79v234c0 104.667 52 157 156 157c10.667 0 19.667 -3.83301 27 -11.5s11 -17.167 11 -28.5c0 -10.667 -3.5 -19.667 -10.5 -27s-16.167 -11 -27.5 -11c-52.667 0 -79 -26.333 -79 -79v-234
c0 -48.667 -13 -88 -39 -118c26 -29.333 39 -68.333 39 -117v-234c0 -52 26.333 -78 79 -78z" />
    <glyph glyph-name="bar" unicode="|" horiz-adv-x="391" 
d="M167.5 771c7.66699 7.33301 16.834 11 27.501 11c11.333 0 20.666 -3.66699 27.999 -11s11 -16.666 11 -27.999v-938c0 -11.333 -3.66699 -20.666 -11 -27.999s-16.666 -11 -27.999 -11c-10.667 0 -19.834 3.66699 -27.501 11s-11.5 16.666 -11.5 27.999v938
c0 11.333 3.83301 20.666 11.5 27.999z" />
    <glyph glyph-name="braceright" unicode="}" horiz-adv-x="378" 
d="M51 -156c-10.667 0 -19.667 -3.66797 -27 -11.001s-11 -16.666 -11 -27.999s3.66699 -20.666 11 -27.999s16.333 -11 27 -11c104 0 156 52 156 156v234c0 52.667 26.333 79 79 79c11.333 0 20.666 3.66699 27.999 11s11 16.333 11 27
c0 11.333 -3.66699 20.666 -11 27.999s-16.666 11 -27.999 11c-52.667 0 -79 26.333 -79 79v234c0 104.667 -52 157 -156 157c-10.667 0 -19.667 -3.83301 -27 -11.5s-11 -17.167 -11 -28.5c0 -10.667 3.5 -19.667 10.5 -27s16.167 -11 27.5 -11c52.667 0 79 -26.333 79 -79
v-234c0 -48.667 13 -88 39 -118c-26 -29.333 -39 -68.333 -39 -117v-234c0 -52 -26.333 -78 -79 -78z" />
    <glyph glyph-name="asciitilde" unicode="~" horiz-adv-x="469" 
d="M220 422c13.333 -5.33301 28.6709 -13.335 46.0039 -24.002c15.333 -9.33301 26.833 -15.666 34.5 -18.999s16.5 -5 26.5 -5c20.667 0 37 6.66699 49 20c10 11.333 20.333 17 31 17c5.33301 0 10.666 -1.66699 15.999 -5c12 -6 18 -15.333 18 -28
c0 -7.33301 -2.66699 -14.666 -8 -21.999c-26.667 -32.667 -61.667 -49 -105 -49c-18.667 0 -35.334 3 -50.001 9s-30.334 14 -47.001 24c-14 8.66699 -25.333 14.667 -34 18s-17.334 5 -26.001 5c-24.667 0 -46.667 -11.667 -66 -35c-4 -6 -9 -10.667 -15 -14
s-12 -5 -18 -5s-11.667 1.66699 -17 5c-4.66699 2.66699 -8.5 6.5 -11.5 11.5s-4.5 10.167 -4.5 15.5c0 8 2.33301 15.333 7 22c16.667 21.333 36 37.833 58 49.5s45 17.5 69 17.5c18 0 33.667 -2.66699 47 -8z" />
    <glyph glyph-name="uni00A0" unicode="&#xa0;" horiz-adv-x="293" 
 />
    <glyph glyph-name="exclamdown" unicode="&#xa1;" horiz-adv-x="266" 
d="M130 -222.5c7.33301 -7.66699 16.6689 -11.5 28.002 -11.5s20.666 3.83301 27.999 11.5s11 17.167 11 28.5v526c0 10.667 -4 19.834 -12 27.501s-17 11.5 -27 11.5c-10.667 0 -19.834 -3.83301 -27.501 -11.5s-11.5 -16.834 -11.5 -27.501v-526
c0 -11.333 3.66699 -20.833 11 -28.5zM199.003 448.5c11.333 11.667 17 25.5 17 41.5s-5.66699 29.667 -17 41s-25 17 -41 17s-29.667 -5.5 -41 -16.5s-17 -24.833 -17 -41.5s5.66699 -30.667 17 -42s25 -17 41 -17s29.667 5.83301 41 17.5z" />
    <glyph glyph-name="cent" unicode="&#xa2;" horiz-adv-x="596" 
d="M526 84c0 -8.66699 -3.33496 -16 -10.002 -22c-48 -44.667 -108.667 -67 -182 -67c-32 0 -62.667 5 -92 15l-31 -84c-6 -15.333 -16 -23 -30 -23c-8 0 -14.5 2.5 -19.5 7.5s-7.5 11.5 -7.5 19.5c0 4.66699 1 10 3 16l33 88c-40 24 -71.5 57 -94.5 99
s-34.5 88.667 -34.5 140c0 53.333 11.333 101.166 34 143.499s54 75.5 94 99.5s85 36 135 36c20.667 0 40.334 -2 59.001 -6l31 83c4.66699 14 14.334 21 29.001 21c8 0 14.5 -2.66699 19.5 -8s7.5 -11.666 7.5 -18.999c0 -2.66699 -0.666992 -6.66699 -2 -12l-31 -83
c34 -16 64 -40 90 -72c5.33301 -6 8 -13 8 -21c0 -10.667 -5.66699 -20 -17 -28c-6 -4 -12.333 -6 -19 -6c-10 0 -19.667 5 -29 15c-18 20 -37.333 35.333 -58 46l-145 -386c22 -7.33301 44.333 -11 67 -11c53.333 0 96.333 14.333 129 43c8.66699 7.33301 17.667 11 27 11
c8 0 15.333 -2.66699 22 -8c9.33301 -8 14 -17 14 -27zM156.998 174.5c14 -29.667 33.6689 -53.833 59.002 -72.5l142 377c-10.667 2 -22 3 -34 3c-36.667 0 -69.334 -8.83301 -98.001 -26.5s-50.834 -42.5 -66.501 -74.5s-23.5 -68 -23.5 -108c0 -36 7 -68.833 21 -98.5z
" />
    <glyph glyph-name="sterling" unicode="&#xa3;" horiz-adv-x="508" 
d="M446 137c6.66699 12.667 17.667 19.002 33 19.002c10.667 0 19.834 -3.83301 27.501 -11.5s11.5 -16.834 11.5 -27.501c0 -7.33301 -1.33301 -13.333 -4 -18l-38 -76c-3.33301 -7.33301 -8.33301 -13 -15 -17s-13.667 -6 -21 -6h-322c-12 0 -21.5 3.66699 -28.5 11
s-10.5 16.666 -10.5 27.999c0 3.33301 0.666992 8.33301 2 15c37.333 87.333 56 173.333 56 258h-59c-10.667 0 -19.834 3.83301 -27.501 11.5s-11.5 17.167 -11.5 28.5c0 10.667 3.66699 19.667 11 27s16.666 11 27.999 11h52c-20 54.667 -33.5 94.5 -40.5 119.5
s-10.5 50.5 -10.5 76.5c0 35.333 8.83301 68 26.5 98s41.5 53.833 71.5 71.5s62.667 26.5 98 26.5c64 0 116.333 -23.333 157 -70c15.333 -16.667 23 -30.667 23 -42c0 -10.667 -3.66699 -19.834 -11 -27.501s-16.666 -11.5 -27.999 -11.5s-20 3.66699 -26 11
c-17.333 21.333 -34.833 37.333 -52.5 48s-38.167 16 -61.5 16c-34 0 -62.333 -11.833 -85 -35.5s-34 -52.5 -34 -86.5c0 -21.333 3 -42.666 9 -63.999s16.333 -53.333 31 -96l12 -34h145c11.333 0 20.5 -3.5 27.5 -10.5s10.5 -16.167 10.5 -27.5
s-3.66699 -20.833 -11 -28.5s-16.333 -11.5 -27 -11.5h-139c0 -76.667 -13.667 -154.667 -41 -234h241z" />
    <glyph glyph-name="currency" unicode="&#xa4;" horiz-adv-x="501" 
d="M411 572c12.667 0 23.333 -4.16699 32 -12.5s13 -18.833 13 -31.5c0 -13.333 -4.33301 -24.333 -13 -33l-39 -36c16.667 -30 25 -61 25 -93c0 -31.333 -8 -61 -24 -89l38 -40c8.66699 -9.33301 13 -20 13 -32c0 -12.667 -4.16699 -23.334 -12.5 -32.001
s-18.833 -13 -31.5 -13c-11.333 0 -21.666 4 -30.999 12l-38 41c-28.667 -16.667 -59.334 -25 -92.001 -25c-30 0 -59.667 7.66699 -89 23l-42 -39c-8 -8 -18.333 -12 -31 -12s-23.167 4.33301 -31.5 13s-12.5 19.334 -12.5 32.001c0 12 4.33301 22.333 13 31l40 38
c-17.333 29.333 -26 59.666 -26 90.999c0 30.667 8.33301 61 25 91l-39 40c-8.66699 8.66699 -13 19.334 -13 32.001s4.16699 23.167 12.5 31.5s18.833 12.5 31.5 12.5c12 0 22.333 -3.66699 31 -11l39 -42c28.667 16.667 59.334 25 92.001 25c32 0 61.667 -7.66699 89 -23
l40 39c11.333 8 21.666 12 30.999 12zM182.999 434.5c-19.333 -19.667 -29 -42.5 -29 -68.5s9.5 -48.667 28.5 -68s41.833 -29 68.5 -29c26 0 48.5 9.5 67.5 28.5s28.5 41.833 28.5 68.5s-9.5 49.667 -28.5 69s-41.5 29 -67.5 29s-48.667 -9.83301 -68 -29.5z" />
    <glyph glyph-name="yen" unicode="&#xa5;" horiz-adv-x="648" 
d="M633.5 770.5c6.33301 -7 9.50098 -15.5 9.50098 -25.5c0 -9.33301 -2.33301 -17.666 -7 -24.999l-229 -362h77c11.333 0 20.333 -3 27 -9s10 -14.333 10 -25s-3.33301 -19 -10 -25s-15.667 -9 -27 -9h-120l-1 -1v-59h121c11.333 0 20.333 -3 27 -9s10 -14.333 10 -25
s-3.33301 -19 -10 -25s-15.667 -9 -27 -9h-121v-123c0 -10.667 -3.66699 -19.834 -11 -27.501s-16.666 -11.5 -27.999 -11.5c-10.667 -0 -19.834 3.83301 -27.501 11.5s-11.5 16.834 -11.5 27.501v123h-120c-11.333 0 -20.333 3 -27 9s-10 14.333 -10 25s3.33301 19 10 25
s15.667 9 27 9h120v59l-1 1h-119c-11.333 0 -20.333 3 -27 9s-10 14.333 -10 25s3.33301 19 10 25s15.667 9 27 9h76l-228 362c-5.33301 8.66699 -8 17 -8 25c0 10 3.66699 18.5 11 25.5s16.333 10.5 27 10.5c7.33301 0 13.5 -1.5 18.5 -4.5s9.83301 -7.83301 14.5 -14.5
l249 -401l248 399c5.33301 7.33301 10.666 12.666 15.999 15.999s12 5 20 5c10 0 18.167 -3.5 24.5 -10.5z" />
    <glyph glyph-name="brokenbar" unicode="&#xa6;" horiz-adv-x="234" 
d="M89 848.5c7.33301 7.66699 16.668 11.5 28.001 11.5s20.666 -3.83301 27.999 -11.5s11 -17.167 11 -28.5v-351c0 -10.667 -3.66699 -19.834 -11 -27.501s-16.666 -11.5 -27.999 -11.5c-10.667 0 -19.834 3.83301 -27.501 11.5s-11.5 16.834 -11.5 27.501v351
c0 11.333 3.66699 20.833 11 28.5zM89.002 179c7.33301 7.33301 16.668 11 28.001 11s20.666 -3.66699 27.999 -11s11 -16.333 11 -27v-347c0 -11.333 -3.66699 -20.666 -11 -27.999s-16.666 -11 -27.999 -11c-10.667 0 -19.834 3.66699 -27.501 11
s-11.5 16.666 -11.5 27.999v347c0 10.667 3.66699 19.667 11 27z" />
    <glyph glyph-name="section" unicode="&#xa7;" horiz-adv-x="469" 
d="M334.5 754.5c30.333 -17.667 54.333 -41.335 72 -71.002s26.5 -62.167 26.5 -97.5c0 -11.333 -3.66699 -20.666 -11 -27.999s-16.666 -11 -27.999 -11c-10.667 0 -19.834 3.83301 -27.501 11.5s-11.5 16.834 -11.5 27.501c0 20.667 -5.5 40 -16.5 58
s-25.667 32.333 -44 43s-37.833 16 -58.5 16s-40.167 -5.16699 -58.5 -15.5s-33 -24.5 -44 -42.5s-16.5 -37.667 -16.5 -59c0 -32.667 11.667 -60.334 35 -83.001s51.333 -34 84 -34c35.333 0 68.166 -8.83301 98.499 -26.5s54.333 -41.5 72 -71.5s26.5 -62.667 26.5 -98
c0 -30.667 -6.66699 -59.5 -20 -86.5s-33 -50.167 -59 -69.5c26 -19.333 45.667 -42.333 59 -69s20 -55.334 20 -86.001c0 -35.333 -8.83301 -68 -26.5 -98s-41.667 -53.833 -72 -71.5s-63.166 -26.5 -98.499 -26.5c-36 0 -69 8.83301 -99 26.5s-53.833 41.5 -71.5 71.5
s-26.5 62.667 -26.5 98c0 10.667 3.83301 19.834 11.5 27.501s17.167 11.5 28.5 11.5c10.667 0 19.667 -3.83301 27 -11.5s11 -16.834 11 -27.501c0 -21.333 5.5 -41 16.5 -59s25.667 -32.333 44 -43s37.833 -16 58.5 -16s40.167 5.33301 58.5 16s33 25 44 43
s16.5 37.667 16.5 59c0 20.667 -5.5 39.834 -16.5 57.501s-25.667 31.834 -44 42.501s-37.833 16 -58.5 16c-35.333 0 -68.166 8.66699 -98.499 26s-54.333 41 -72 71s-26.5 62.667 -26.5 98c0 63.333 26.333 115.666 79 156.999c-52.667 40 -79 92 -79 156
c0 35.333 8.83301 67.833 26.5 97.5s41.5 53.334 71.5 71.001s63 26.5 99 26.5c35.333 0 68.166 -8.83301 98.499 -26.5zM177 374.999c-18 -10.667 -32.5 -25 -43.5 -43s-16.5 -37.667 -16.5 -59c0 -32 11.833 -59.333 35.5 -82s51.5 -34 83.5 -34s59.833 11.333 83.5 34
s35.5 50 35.5 82c0 21.333 -5.5 41 -16.5 59s-25.667 32.333 -44 43s-37.833 16 -58.5 16c-21.333 0 -41 -5.33301 -59 -16z" />
    <glyph glyph-name="dieresis" unicode="&#xa8;" horiz-adv-x="469" 
d="M179 716c10.667 -10.667 16 -23.667 16 -39s-5.33301 -28.333 -16 -39s-23.667 -16 -39 -16s-28.333 5.33301 -39 16s-16 23.667 -16 39s5.33301 28.333 16 39s23.667 16 39 16s28.333 -5.33301 39 -16zM388 716c10.667 -10.667 16 -23.667 16 -39
s-5.33301 -28.333 -16 -39s-23.667 -16 -39 -16s-28.333 5.33301 -39 16s-16 23.667 -16 39s5.33301 28.333 16 39s23.667 16 39 16s28.333 -5.33301 39 -16z" />
    <glyph glyph-name="copyright" unicode="&#xa9;" horiz-adv-x="859" 
d="M631 729c60 -35.333 107.667 -82.833 143 -142.5s53 -124.5 53 -194.5c0 -72 -17.5 -138 -52.5 -198s-82.333 -107.333 -142 -142s-125.167 -52 -196.5 -52s-137 17.333 -197 52s-107.333 82 -142 142s-52 126 -52 198c0 70 17.5 135 52.5 195s82.333 107.5 142 142.5
s125.167 52.5 196.5 52.5c70 0 135 -17.667 195 -53zM273 673c-50 -29.333 -89.668 -68.833 -119.001 -118.5s-44 -103.834 -44 -162.501s14.667 -112.834 44 -162.501s68.833 -89.167 118.5 -118.5s103.834 -44 162.501 -44s113 14.667 163 44s89.667 68.833 119 118.5
s44 103.834 44 162.501s-14.667 112.834 -44 162.501s-69 89.167 -119 118.5s-104.333 44 -163 44c-58 0 -112 -14.667 -162 -44zM611.999 557c5.33301 -6 8.00293 -13.333 8.00293 -22c0 -11.333 -5.66699 -20.666 -17 -27.999c-6.66699 -4.66699 -13 -7 -19 -7
c-11.333 0 -21 5 -29 15c-32.667 37.333 -73.667 56 -123 56c-47.333 0 -85.5 -16.5 -114.5 -49.5s-43.5 -75.833 -43.5 -128.5c0 -34.667 7.16699 -65.5 21.5 -92.5s34.166 -48.167 59.499 -63.5s54 -23 86 -23c44 0 80 12.333 108 37c9.33301 7.33301 18.666 11 27.999 11
c7.33301 0 14.333 -2.66699 21 -8c9.33301 -8 14 -17.333 14 -28c0 -9.33301 -3.33301 -17 -10 -23c-42.667 -40.667 -96.334 -61 -161.001 -61c-46 0 -87.333 10.833 -124 32.5s-65.5 51.667 -86.5 90s-31.5 81.166 -31.5 128.499s10 90 30 128s47.667 67.833 83 89.5
s75.333 32.5 120 32.5c74.667 0 134.667 -28.667 180 -86z" />
    <glyph glyph-name="ordfeminine" unicode="&#xaa;" horiz-adv-x="475" 
d="M336 764.5c30 -17 53.5 -40.499 70.5 -70.499s25.5 -63.333 25.5 -100v-159c0 -10.667 -3.5 -19.834 -10.5 -27.501s-15.5 -11.5 -25.5 -11.5c-11.333 0 -20.333 3.66699 -27 11s-9.66699 16.666 -9 27.999l1 19c-33.333 -37.333 -75 -56 -125 -56
c-36.667 0 -70 8.66699 -100 26s-53.5 40.833 -70.5 70.5s-25.5 62.834 -25.5 99.501s8.5 70 25.5 100s40.5 53.5 70.5 70.5s63.333 25.5 100 25.5s70 -8.5 100 -25.5zM323 507.501c23.333 23 35 51.833 35 86.5c0 35.333 -11.5 64.5 -34.5 87.5s-52.167 34.5 -87.5 34.5
c-34.667 0 -63.667 -11.5 -87 -34.5s-35 -52.167 -35 -87.5c0 -34.667 11.667 -63.5 35 -86.5s52.333 -34.5 87 -34.5s63.667 11.5 87 34.5z" />
    <glyph glyph-name="guillemotleft" unicode="&#xab;" horiz-adv-x="469" 
d="M234 39c0 -10.667 -3.66699 -19.833 -11 -27.5s-16.666 -11.5 -27.999 -11.5c-16 0 -28 8 -36 24l-114 228c-4 8 -6 15 -6 21c0 4.66699 1.66699 11 5 19l115 230c7.33301 16 19.333 24 36 24c11.333 0 20.666 -3.66699 27.999 -11s11 -16.333 11 -27
c0 -6 -1 -11.667 -3 -17l-109 -218l109 -218c2 -4 3 -9.33301 3 -16zM433 39.001c0 -10.667 -3.66699 -19.832 -11 -27.499s-16.666 -11.5 -27.999 -11.5c-16 0 -28 8 -36 24l-115 228c-3.33301 8.66699 -5 15.667 -5 21c0 3.33301 1.33301 9.66602 4 18.999l116 230
c7.33301 16 19.333 24 36 24c11.333 0 20.666 -3.66699 27.999 -11s11 -16.333 11 -27c0 -4.66699 -1.33301 -10.334 -4 -17.001l-109 -218l109 -218c2.66699 -5.33301 4 -10.666 4 -15.999z" />
    <glyph glyph-name="logicalnot" unicode="&#xac;" horiz-adv-x="547" 
d="M50.5 480.5c-7.66699 7.66699 -11.5 16.833 -11.5 27.5c0 11.333 3.83301 20.666 11.5 27.999s16.834 11 27.501 11h390c11.333 0 20.666 -3.66699 27.999 -11s11 -16.666 11 -27.999v-156c0 -10.667 -3.66699 -19.834 -11 -27.501s-16.666 -11.5 -27.999 -11.5
c-10.667 0 -19.667 3.83301 -27 11.5s-11 16.834 -11 27.501v117h-352c-10.667 0 -19.834 3.83301 -27.501 11.5z" />
    <glyph glyph-name="uni00AD" unicode="&#xad;" horiz-adv-x="391" 
d="M339 301c7.33301 -7.33301 11 -16.666 11 -27.999c0 -10.667 -3.66699 -19.667 -11 -27s-16.666 -11 -27.999 -11h-235c-10.667 0 -19.667 3.66699 -27 11s-11 16.333 -11 27c0 11.333 3.5 20.666 10.5 27.999s16.167 11 27.5 11h235
c11.333 0 20.666 -3.66699 27.999 -11z" />
    <glyph glyph-name="registered" unicode="&#xae;" horiz-adv-x="859" 
d="M631 729c60 -35.333 107.667 -82.833 143 -142.5s53 -124.5 53 -194.5c0 -72 -17.5 -138 -52.5 -198s-82.333 -107.333 -142 -142s-125.167 -52 -196.5 -52s-137 17.333 -197 52s-107.333 82 -142 142s-52 126 -52 198c0 70 17.5 135 52.5 195s82.333 107.5 142 142.5
s125.167 52.5 196.5 52.5c70 0 135 -17.667 195 -53zM598 111c50 29.333 89.666 68.833 118.999 118.5s44 103.834 44 162.501s-14.667 112.834 -44 162.501s-69 89.167 -119 118.5s-104.333 44 -163 44c-58 0 -112 -14.667 -162 -44s-89.667 -68.833 -119 -118.5
s-44 -103.834 -44 -162.501s14.667 -112.834 44 -162.501s68.833 -89.167 118.5 -118.5s103.834 -44 162.501 -44s113 14.667 163 44zM602.999 206c5.33301 -9.33301 8.00098 -17.332 8.00098 -23.999c0 -8 -3 -14.5 -9 -19.5s-14 -7.5 -24 -7.5
c-12.667 0 -22.334 5.33301 -29.001 16l-106 170h-7h-81v-153c0 -9.33301 -3 -17.166 -9 -23.499s-14 -9.5 -24 -9.5s-18.167 3.16699 -24.5 9.5s-9.5 14.166 -9.5 23.499v424c0 9.33301 3.33301 17.166 10 23.499s15 9.5 25 9.5h113c48.667 0 88.5 -14.167 119.5 -42.5
s46.5 -64.833 46.5 -109.5c0 -30.667 -8.33301 -58 -25 -82s-39 -42.333 -67 -55zM355 402.001h83c29.333 0 53 8 71 24s27 38.333 27 67s-9 51.167 -27 67.5s-41.667 24.5 -71 24.5h-83v-183z" />
    <glyph glyph-name="macron" unicode="&#xaf;" horiz-adv-x="547" 
d="M430.5 700c7.66699 -6.66699 11.5 -15.334 11.5 -26.001s-3.83301 -19.334 -11.5 -26.001s-16.834 -10 -27.501 -10h-259c-11.333 0 -20.666 3.33301 -27.999 10s-11 15.334 -11 26.001s3.66699 19.334 11 26.001s16.666 10 27.999 10h259
c10.667 0 19.834 -3.33301 27.501 -10z" />
    <glyph glyph-name="degree" unicode="&#xb0;" horiz-adv-x="469" 
d="M332 755.5c30 -17.667 53.834 -41.5 71.501 -71.5s26.5 -62.333 26.5 -97c0 -35.333 -8.83301 -68 -26.5 -98s-41.5 -53.833 -71.5 -71.5s-62.667 -26.5 -98 -26.5s-67.833 8.83301 -97.5 26.5s-53.334 41.5 -71.001 71.5s-26.5 62.667 -26.5 98
c0 34.667 8.66699 67 26 97s41 53.833 71 71.5s62.667 26.5 98 26.5s68 -8.83301 98 -26.5zM176.001 688c-18 -10.667 -32.333 -25 -43 -43s-16 -37.333 -16 -58c0 -32.667 11.5 -60.5 34.5 -83.5s50.5 -34.5 82.5 -34.5s59.667 11.5 83 34.5s35 50.833 35 83.5
c0 20.667 -5.5 40 -16.5 58s-25.5 32.333 -43.5 43s-37.333 16 -58 16s-40 -5.33301 -58 -16z" />
    <glyph glyph-name="plusminus" unicode="&#xb1;" horiz-adv-x="547" 
d="M245.5 614c7.66699 7.33301 16.832 11 27.499 11c11.333 0 20.666 -3.66699 27.999 -11s11 -16.333 11 -27v-157h156c10.667 0 19.834 -3.83301 27.501 -11.5s11.5 -16.834 11.5 -27.501s-3.66699 -19.834 -11 -27.501s-16.666 -11.5 -27.999 -11.5h-156v-157
c0 -11.333 -3.66699 -20.666 -11 -27.999s-16.666 -11 -27.999 -11c-10.667 0 -19.834 3.83301 -27.501 11.5s-11.5 16.834 -11.5 27.501v157h-156c-10.667 0 -19.834 3.83301 -27.501 11.5s-11.5 16.834 -11.5 27.501c0 11.333 3.83301 20.666 11.5 27.999
s16.834 11 27.501 11h156v157c0 10.667 3.83301 19.667 11.5 27zM495.998 67c7.33301 -7.33301 10.998 -16.666 10.998 -27.999s-3.5 -20.666 -10.5 -27.999s-16.167 -11 -27.5 -11h-391c-11.333 0 -20.666 3.66699 -27.999 11s-11 16.666 -11 27.999
s3.83301 20.666 11.5 27.999s16.834 11 27.501 11h391c10.667 0 19.667 -3.66699 27 -11z" />
    <glyph glyph-name="uni00B2" unicode="&#xb2;" horiz-adv-x="365" 
d="M309.5 443c7 -5.33301 10.498 -13.3311 10.498 -23.998s-3.5 -18.834 -10.5 -24.501s-15.833 -8.5 -26.5 -8.5h-195c-10.667 0 -19.5 3.5 -26.5 10.5s-10.5 15.833 -10.5 26.5c0 11.333 3 20 9 26l159 172c14.667 15.333 22 32 22 50c0 16.667 -6 30.667 -18 42
s-27 17 -45 17c-22 0 -39.833 -6.33301 -53.5 -19s-20.5 -28.334 -20.5 -47.001c0 -11.333 -2.5 -20.333 -7.5 -27s-12.833 -10 -23.5 -10c-9.33301 0 -16.666 3.5 -21.999 10.5s-8 15.833 -8 26.5c0 36.667 12.667 67.167 38 91.5s58 36.5 98 36.5
c38 0 68.833 -11.5 92.5 -34.5s35.5 -52.167 35.5 -87.5c0 -18.667 -4.66699 -35.167 -14 -49.5s-22.666 -30.5 -39.999 -48.5l-114 -121h144c10.667 0 19.5 -2.66699 26.5 -8z" />
    <glyph glyph-name="uni00B3" unicode="&#xb3;" horiz-adv-x="366" 
d="M267.5 760.5c23.667 -21 35.498 -47.8311 35.498 -80.498c0 -18 -5.5 -35 -16.5 -51s-24.833 -27.667 -41.5 -35c22 -7.33301 39.167 -19.5 51.5 -36.5s18.5 -37.167 18.5 -60.5c0 -34.667 -12.5 -63.167 -37.5 -85.5s-56.5 -33.5 -94.5 -33.5c-40 0 -73 11.667 -99 35
s-39 52.666 -39 87.999c0 11.333 3.16699 20.333 9.5 27s14.833 10 25.5 10c10 0 17.5 -3.33301 22.5 -10s7.5 -15.667 7.5 -27c0 -17.333 6.83301 -31.833 20.5 -43.5s30.834 -17.5 51.501 -17.5c18.667 0 34.334 5.33301 47.001 16s19 24.667 19 42
c0 18.667 -5.33301 34 -16 46s-24 18 -40 18c-12.667 0 -22.5 2.83301 -29.5 8.5s-10.5 13.167 -10.5 22.5c0 22 11.667 33 35 33c16.667 0 29.5 4.33301 38.5 13s13.5 21.334 13.5 38.001c0 15.333 -5.5 27.666 -16.5 36.999s-25.5 14 -43.5 14
c-20 0 -35.833 -4.5 -47.5 -13.5s-18.834 -20.833 -21.501 -35.5c-1.33301 -8 -4.66602 -15 -9.99902 -21s-11.333 -9 -18 -9c-9.33301 0 -17.333 3.16699 -24 9.5s-10 14.166 -10 23.499c0 30.667 12.5 56.667 37.5 78s55.833 32 92.5 32c36 0 65.833 -10.5 89.5 -31.5z
" />
    <glyph glyph-name="acute" unicode="&#xb4;" horiz-adv-x="273" 
d="M195 781c11.333 0 20.6689 -3.83398 28.002 -11.501s11 -17.167 11 -28.5c0 -10.667 -3.66699 -19.334 -11 -26.001l-112 -113c-6.66699 -6.66699 -15.334 -10 -26.001 -10s-19.834 3.83301 -27.501 11.5s-11.5 16.834 -11.5 27.501s3 19.334 9 26.001l113 113
c7.33301 7.33301 16.333 11 27 11z" />
    <glyph glyph-name="uni00B5" unicode="&#xb5;" 
d="M576 536.5c7.33301 -7 10.999 -16.165 10.999 -27.498v-470c0 -11.333 -3.66699 -20.666 -11 -27.999s-16.666 -11 -27.999 -11s-20.5 3.66699 -27.5 11s-10.5 16.666 -10.5 27.999v40c-20 -26.667 -45.167 -47.5 -75.5 -62.5s-63.166 -22.5 -98.499 -22.5
c-38.667 0 -73.334 8.33301 -104.001 25s-55.667 40 -75 70v-284c0 -11.333 -3.66699 -20.666 -11 -27.999s-16.666 -11 -27.999 -11s-20.5 3.66699 -27.5 11s-10.5 16.666 -10.5 27.999v704c0 11.333 3.5 20.5 10.5 27.5s16.167 10.5 27.5 10.5s20.666 -3.5 27.999 -10.5
s11 -16.167 11 -27.5v-260c0 -34.667 7.66699 -65.834 23 -93.501s36.5 -49.334 63.5 -65.001s57.833 -23.5 92.5 -23.5c50.667 0 92.334 13.667 125.001 41s49 62.333 49 105v296c0 11.333 3.5 20.5 10.5 27.5s16.167 10.5 27.5 10.5s20.666 -3.5 27.999 -10.5z" />
    <glyph glyph-name="paragraph" unicode="&#xb6;" horiz-adv-x="571" 
d="M307 11.5c-7.33301 -7.66699 -16.665 -11.5 -27.998 -11.5c-10.667 -0 -19.834 3.83301 -27.501 11.5s-11.5 16.834 -11.5 27.501v352c-37.333 0.666992 -70.833 9.83398 -100.5 27.501s-52.834 41.167 -69.501 70.5s-25 61.666 -25 96.999c0 36 8.66699 69 26 99
s40.833 53.667 70.5 71s62.5 26 98.5 26h247c11.333 0 20.666 -3.83301 27.999 -11.5s11 -17.167 11 -28.5c0 -9.33301 -3.66699 -17.5 -11 -24.5s-16.666 -11.167 -27.999 -12.5v-666c0 -10.667 -3.66699 -19.834 -11 -27.501s-16.666 -11.5 -27.999 -11.5
c-10.667 -0 -19.834 3.83301 -27.501 11.5s-11.5 16.834 -11.5 27.501v665h-91v-665c0 -10.667 -3.66699 -19.834 -11 -27.501z" />
    <glyph glyph-name="periodcentered" unicode="&#xb7;" horiz-adv-x="195" 
d="M136.5 412.5c11 -11.667 16.5 -25.5 16.5 -41.5s-5.5 -29.667 -16.5 -41s-24.5 -17 -40.5 -17s-29.833 5.66699 -41.5 17s-17.5 25 -17.5 41c0 16.667 5.66699 30.667 17 42s25.333 17 42 17c16 0 29.5 -5.83301 40.5 -17.5z" />
    <glyph glyph-name="cedilla" unicode="&#xb8;" horiz-adv-x="313" 
d="M267.5 -72c14.333 -15.333 21.5 -34.332 21.5 -56.999c0 -18.667 -6 -36 -18 -52s-28.333 -28.667 -49 -38s-43.667 -14 -69 -14c-34.667 0 -63.667 7.33301 -87 22s-35 32 -35 52c0 10 3.66699 18.667 11 26s16 11 26 11c12.667 0 24.334 -7 35.001 -21
c10.667 -16 27.667 -24 51 -24c15.333 0 28 3.33301 38 10s15 16 15 28c0 12.667 -4 22.667 -12 30s-21.333 13.333 -40 18c-12.667 2.66699 -22.334 6.5 -29.001 11.5s-10 11.833 -10 20.5c0 5.33301 1.66699 13 5 23l16 41c6.66699 20 21.334 30 44.001 30
c10 0 18 -2.83301 24 -8.5s9 -12.834 9 -21.501c0 -4.66699 -1 -9.66699 -3 -15l-15 -36c33.333 -8.66699 57.166 -20.667 71.499 -36z" />
    <glyph glyph-name="uni00B9" unicode="&#xb9;" horiz-adv-x="274" 
d="M52 675c-21.333 0 -32.001 9.99902 -32.001 29.999c0 14.667 9 25.334 27 32.001l109 38c10 3.33301 18 5 24 5c20 0 30 -13 30 -39v-316c0 -26 -11.333 -39 -34 -39c-11.333 0 -19.833 3.5 -25.5 10.5s-8.5 16.5 -8.5 28.5v276l-62 -21
c-11.333 -3.33301 -20.666 -5 -27.999 -5z" />
    <glyph glyph-name="ordmasculine" unicode="&#xba;" horiz-adv-x="472" 
d="M336 764.5c30 -17 53.5 -40.5 70.5 -70.5s25.5 -63.333 25.5 -100s-8.5 -69.834 -25.5 -99.501s-40.5 -53.167 -70.5 -70.5s-63.333 -26 -100 -26s-70 8.66699 -100 26s-53.5 40.833 -70.5 70.5s-25.5 62.834 -25.5 99.501s8.5 70 25.5 100s40.5 53.5 70.5 70.5
s63.333 25.5 100 25.5s70 -8.5 100 -25.5zM149 681.5c-23.333 -23 -35 -52.167 -35 -87.5c0 -34.667 11.667 -63.5 35 -86.5s52.333 -34.5 87 -34.5s63.667 11.5 87 34.5s35 51.833 35 86.5c0 35.333 -11.5 64.5 -34.5 87.5s-52.167 34.5 -87.5 34.5
c-34.667 0 -63.667 -11.5 -87 -34.5z" />
    <glyph glyph-name="guillemotright" unicode="&#xbb;" horiz-adv-x="469" 
d="M39 508c0 10.667 3.66797 19.667 11.001 27s16.666 11 27.999 11c15.333 0 27.333 -8 36 -24l115 -230c3.33301 -8 5 -14.333 5 -19c0 -6 -2 -13 -6 -21l-114 -228c-8 -16 -20 -24 -36 -24c-10.667 0 -19.667 3.66699 -27 11s-11 16.666 -11 27.999c0 6 1 11.333 3 16
l108 218l-108 218c-2.66699 6.66699 -4 12.334 -4 17.001zM239.501 498c-1 3.33301 -1.49805 6.66699 -1.49805 10c0 10.667 3.66699 19.667 11 27s16.666 11 27.999 11c15.333 0 27.333 -8 36 -24l115 -230c3.33301 -8 5 -14.333 5 -19c0 -3.33301 -2 -10.333 -6 -21
l-114 -228c-8.66699 -16 -20.667 -24 -36 -24c-10.667 -0 -19.834 3.83301 -27.501 11.5s-11.5 16.834 -11.5 27.501c0 6 1 11.333 3 16l109 218l-109 218c0 1.33301 -0.5 3.66602 -1.5 6.99902z" />
    <glyph glyph-name="onequarter" unicode="&#xbc;" horiz-adv-x="764" 
d="M52 675c-21.333 0 -32.001 9.99902 -32.001 29.999c0 14.667 9 25.334 27 32.001l109 38c10 3.33301 18 5 24 5c20 0 30 -13 30 -39v-316c0 -26 -11.333 -39 -34 -39c-11.333 0 -19.833 3.5 -25.5 10.5s-8.5 16.5 -8.5 28.5v276l-62 -21
c-11.333 -3.33301 -20.666 -5 -27.999 -5zM615.999 786.999c9.33301 0 17 -2.83398 23 -8.50098s9 -12.834 9 -21.501c0 -7.33301 -3 -15.666 -9 -24.999l-469 -712c-8.66699 -13.333 -19 -20 -31 -20c-8.66699 0 -15.834 2.83301 -21.501 8.5s-8.5 12.5 -8.5 20.5
c0 6.66699 2 13.334 6 20.001l469 719c8.66699 12.667 19.334 19 32.001 19zM403.499 94.498c-7 6.33301 -10.5 14.166 -10.5 23.499c0 10 4 20.333 12 31l181 234c10 12 21.667 18 35 18c10 0 18.5 -3 25.5 -9s10.5 -14 10.5 -24v-223h35
c9.33301 0 16.833 -2.66699 22.5 -8s8.5 -12.666 8.5 -21.999c0 -10 -2.83301 -17.5 -8.5 -22.5s-13.167 -7.5 -22.5 -7.5h-35v-57c0 -21.333 -11.333 -32 -34 -32c-10 0 -18 3 -24 9s-9 13.667 -9 23v57h-160c-10.667 0 -19.5 3.16699 -26.5 9.5zM473.999 144.998h117
l1 156z" />
    <glyph glyph-name="onehalf" unicode="&#xbd;" horiz-adv-x="812" 
d="M52 675c-21.333 0 -32.001 9.99902 -32.001 29.999c0 14.667 9 25.334 27 32.001l109 38c10 3.33301 18 5 24 5c20 0 30 -13 30 -39v-316c0 -26 -11.333 -39 -34 -39c-11.333 0 -19.833 3.5 -25.5 10.5s-8.5 16.5 -8.5 28.5v276l-62 -21
c-11.333 -3.33301 -20.666 -5 -27.999 -5zM670.999 786.999c9.33301 0 17 -2.83398 23 -8.50098s9 -12.834 9 -21.501c0 -7.33301 -3 -15.666 -9 -24.999l-469 -712c-8.66699 -13.333 -19 -20 -31 -20c-8.66699 0 -15.834 2.83301 -21.501 8.5s-8.5 12.5 -8.5 20.5
c0 6.66699 2 13.334 6 20.001l469 719c8.66699 12.667 19.334 19 32.001 19zM767.499 56.998c7 -5.33301 10.498 -13.3311 10.498 -23.998s-3.5 -18.834 -10.5 -24.501s-15.833 -8.5 -26.5 -8.5h-195c-10.667 0 -19.5 3.5 -26.5 10.5s-10.5 15.833 -10.5 26.5
c0 11.333 3 20 9 26l159 172c14.667 15.333 22 32 22 50c0 16.667 -6 30.667 -18 42s-27 17 -45 17c-22 0 -39.833 -6.33301 -53.5 -19s-20.5 -28.334 -20.5 -47.001c0 -11.333 -2.5 -20.333 -7.5 -27s-12.833 -10 -23.5 -10c-9.33301 0 -16.666 3.5 -21.999 10.5
s-8 15.833 -8 26.5c0 36.667 12.667 67.167 38 91.5s58 36.5 98 36.5c38 0 68.833 -11.5 92.5 -34.5s35.5 -52.167 35.5 -87.5c0 -18.667 -4.66699 -35.167 -14 -49.5s-22.666 -30.5 -39.999 -48.5l-114 -121h144c10.667 0 19.5 -2.66699 26.5 -8z" />
    <glyph glyph-name="threequarters" unicode="&#xbe;" horiz-adv-x="837" 
d="M267.5 760.5c23.667 -21 35.498 -47.8311 35.498 -80.498c0 -18 -5.5 -35 -16.5 -51s-24.833 -27.667 -41.5 -35c22 -7.33301 39.167 -19.5 51.5 -36.5s18.5 -37.167 18.5 -60.5c0 -34.667 -12.5 -63.167 -37.5 -85.5s-56.5 -33.5 -94.5 -33.5c-40 0 -73 11.667 -99 35
s-39 52.666 -39 87.999c0 11.333 3.16699 20.333 9.5 27s14.833 10 25.5 10c10 0 17.5 -3.33301 22.5 -10s7.5 -15.667 7.5 -27c0 -17.333 6.83301 -31.833 20.5 -43.5s30.834 -17.5 51.501 -17.5c18.667 0 34.334 5.33301 47.001 16s19 24.667 19 42
c0 18.667 -5.33301 34 -16 46s-24 18 -40 18c-12.667 0 -22.5 2.83301 -29.5 8.5s-10.5 13.167 -10.5 22.5c0 22 11.667 33 35 33c16.667 0 29.5 4.33301 38.5 13s13.5 21.334 13.5 38.001c0 15.333 -5.5 27.666 -16.5 36.999s-25.5 14 -43.5 14
c-20 0 -35.833 -4.5 -47.5 -13.5s-18.834 -20.833 -21.501 -35.5c-1.33301 -8 -4.66602 -15 -9.99902 -21s-11.333 -9 -18 -9c-9.33301 0 -17.333 3.16699 -24 9.5s-10 14.166 -10 23.499c0 30.667 12.5 56.667 37.5 78s55.833 32 92.5 32c36 0 65.833 -10.5 89.5 -31.5z
M662.998 787.002c9.33301 0 17 -2.83398 23 -8.50098s9 -12.834 9 -21.501c0 -7.33301 -3 -15.666 -9 -24.999l-469 -712c-8.66699 -13.333 -19 -20 -31 -20c-8.66699 0 -15.834 2.83301 -21.501 8.5s-8.5 12.5 -8.5 20.5c0 6.66699 2 13.334 6 20.001l469 719
c8.66699 12.667 19.334 19 32.001 19zM471.498 94.501c-7 6.33301 -10.5 14.166 -10.5 23.499c0 10 4 20.333 12 31l181 234c10 12 21.667 18 35 18c10 0 18.5 -3 25.5 -9s10.5 -14 10.5 -24v-223h35c9.33301 0 16.833 -2.66699 22.5 -8s8.5 -12.666 8.5 -21.999
c0 -10 -2.83301 -17.5 -8.5 -22.5s-13.167 -7.5 -22.5 -7.5h-35v-57c0 -21.333 -11.333 -32 -34 -32c-10 0 -18 3 -24 9s-9 13.667 -9 23v57h-160c-10.667 0 -19.5 3.16699 -26.5 9.5zM541.998 145.001h117l1 156z" />
    <glyph glyph-name="questiondown" unicode="&#xbf;" horiz-adv-x="547" 
d="M148.5 -147.5c-35 19 -62.3301 45.165 -81.9971 78.498s-29.5 71 -29.5 113c0 32.667 5.33301 61.167 16 85.5s24.167 45.833 40.5 64.5s39.5 41.667 69.5 69l18 16c18.667 16.667 31.834 36.167 39.501 58.5s11.5 44.5 11.5 66.5c0 11.333 3.66699 20.833 11 28.5
s16.666 11.5 27.999 11.5s20.666 -3.83301 27.999 -11.5s11 -17.167 11 -28.5c0 -27.333 -6.66699 -56.333 -20 -87s-31.333 -56.667 -54 -78l-25 -23c-22.667 -21.333 -40.334 -39.166 -53.001 -53.499s-23.167 -31.666 -31.5 -51.999s-12.5 -43.833 -12.5 -70.5
c0 -26 6.33301 -49.833 19 -71.5s30.667 -38.834 54 -51.501s50 -19 80 -19c49.333 0 88.5 14.833 117.5 44.5s43.5 68.167 43.5 115.5c0 11.333 3.5 20.5 10.5 27.5s16.167 10.5 27.5 10.5s20.666 -3.5 27.999 -10.5s11 -16.167 11 -27.5
c0 -45.333 -10 -85.666 -30 -120.999s-48 -63 -84 -83s-77.333 -30 -124 -30c-44 0 -83.5 9.5 -118.5 28.5zM229.503 520.998c-11.667 11.333 -17.5 25.333 -17.5 42c0 16 5.83301 29.667 17.5 41s25.5 17 41.5 17c16.667 0 30.5 -5.66699 41.5 -17s16.5 -25 16.5 -41
c0 -16.667 -5.66699 -30.667 -17 -42s-25 -17 -41 -17s-29.833 5.66699 -41.5 17z" />
    <glyph glyph-name="Agrave" unicode="&#xc0;" horiz-adv-x="703" 
d="M690 39c0 -10.667 -3.83301 -19.835 -11.5 -27.502s-16.834 -11.5 -27.501 -11.5c-17.333 0 -29.666 8 -36.999 24l-67 162h-387l-67 -162c-5.33301 -16 -17.333 -24 -36 -24c-11.333 0 -20.5 3.83301 -27.5 11.5s-10.5 16.834 -10.5 27.501c0 6.66699 1 12.334 3 17.001
l294 698c7.33301 18 20 27 38 27s30.333 -9 37 -27l295 -699c2.66699 -4.66699 4 -10 4 -16zM520 252.999l-166 401l-166 -401h332zM202 1020c0 11.333 3.66602 20.833 10.999 28.5s16.333 11.5 27 11.5s20 -4 28 -12l112 -113c6.66699 -6 10 -14.333 10 -25
c0 -11.333 -3.66699 -20.833 -11 -28.5s-16.666 -11.5 -27.999 -11.5c-10 0 -18.667 3.66699 -26 11l-113 112c-6.66699 6.66699 -10 15.667 -10 27z" />
    <glyph glyph-name="Aacute" unicode="&#xc1;" horiz-adv-x="703" 
d="M690 39c0 -10.667 -3.83301 -19.835 -11.5 -27.502s-16.834 -11.5 -27.501 -11.5c-17.333 0 -29.666 8 -36.999 24l-67 162h-387l-67 -162c-5.33301 -16 -17.333 -24 -36 -24c-11.333 0 -20.5 3.83301 -27.5 11.5s-10.5 16.834 -10.5 27.501c0 6.66699 1 12.334 3 17.001
l294 698c7.33301 18 20 27 38 27s30.333 -9 37 -27l295 -699c2.66699 -4.66699 4 -10 4 -16zM520 252.999l-166 401l-166 -401h332zM455 1053c11.333 0 20.667 -3.83398 28 -11.501s11 -17.167 11 -28.5c0 -10.667 -3.66699 -19.334 -11 -26.001l-112 -113
c-6.66699 -6.66699 -15.334 -10 -26.001 -10c-11.333 0 -20.666 3.83301 -27.999 11.5s-11 16.834 -11 27.501s3 19.334 9 26.001l113 113c7.33301 7.33301 16.333 11 27 11z" />
    <glyph glyph-name="Acircumflex" unicode="&#xc2;" horiz-adv-x="703" 
d="M690 39c0 -10.667 -3.83301 -19.835 -11.5 -27.502s-16.834 -11.5 -27.501 -11.5c-17.333 0 -29.666 8 -36.999 24l-67 162h-387l-67 -162c-5.33301 -16 -17.333 -24 -36 -24c-11.333 0 -20.5 3.83301 -27.5 11.5s-10.5 16.834 -10.5 27.501c0 6.66699 1 12.334 3 17.001
l294 698c7.33301 18 20 27 38 27s30.333 -9 37 -27l295 -699c2.66699 -4.66699 4 -10 4 -16zM520 252.999l-166 401l-166 -401h332zM236 867.999c-11.333 0 -20.834 3.16699 -28.501 9.5s-11.5 14.833 -11.5 25.5c0 14 6.33301 25.333 19 34l118 78
c5.33301 3.33301 11.666 5 18.999 5c6.66699 0 13.334 -1.66699 20.001 -5l117 -78c12.667 -8.66699 19 -20 19 -34c0 -10 -3.66699 -18.333 -11 -25s-16.666 -10 -27.999 -10c-7.33301 0 -15.333 2.66699 -24 8l-93 64l-93 -64c-7.33301 -5.33301 -15 -8 -23 -8z" />
    <glyph glyph-name="Atilde" unicode="&#xc3;" horiz-adv-x="703" 
d="M690 39c0 -10.667 -3.83301 -19.835 -11.5 -27.502s-16.834 -11.5 -27.501 -11.5c-17.333 0 -29.666 8 -36.999 24l-67 162h-387l-67 -162c-5.33301 -16 -17.333 -24 -36 -24c-11.333 0 -20.5 3.83301 -27.5 11.5s-10.5 16.834 -10.5 27.501c0 6.66699 1 12.334 3 17.001
l294 698c7.33301 18 20 27 38 27s30.333 -9 37 -27l295 -699c2.66699 -4.66699 4 -10 4 -16zM520 252.999l-166 401l-166 -401h332zM330.5 994.499c10.333 -6.33301 22.832 -15.835 37.499 -28.502c10.667 -9.33301 18.834 -15.666 24.501 -18.999s11.167 -5 16.5 -5
c4.66699 0 9 1.83301 13 5.5s8 9.83398 12 18.501c3.33301 7.33301 8.33301 13.166 15 17.499s13.334 6.5 20.001 6.5c2.66699 0 6 -0.666992 10 -2c16 -6.66699 24 -16.667 24 -30c0 -6 -1.33301 -11.333 -4 -16c-11.333 -23.333 -23.666 -40.166 -36.999 -50.499
s-28.666 -15.5 -45.999 -15.5c-27.333 0 -53.333 12.333 -78 37c-10.667 10 -19.167 17 -25.5 21s-12.833 6 -19.5 6c-7.33301 0 -13.833 -3 -19.5 -9s-11.834 -15.333 -18.501 -28c-8.66699 -14 -19.334 -21 -32.001 -21c-10 0 -18 3 -24 9s-9 13.333 -9 22
c0 6 1.33301 11.667 4 17c12.667 26 26.667 44.833 42 56.5s33 17.5 53 17.5c17.333 0 31.166 -3.16699 41.499 -9.5z" />
    <glyph glyph-name="Adieresis" unicode="&#xc4;" horiz-adv-x="703" 
d="M690 39c0 -10.667 -3.83301 -19.835 -11.5 -27.502s-16.834 -11.5 -27.501 -11.5c-17.333 0 -29.666 8 -36.999 24l-67 162h-387l-67 -162c-5.33301 -16 -17.333 -24 -36 -24c-11.333 0 -20.5 3.83301 -27.5 11.5s-10.5 16.834 -10.5 27.501c0 6.66699 1 12.334 3 17.001
l294 698c7.33301 18 20 27 38 27s30.333 -9 37 -27l295 -699c2.66699 -4.66699 4 -10 4 -16zM520 252.999l-166 401l-166 -401h332zM287 974.999c10.667 -10.667 16 -23.667 16 -39s-5.33301 -28.333 -16 -39s-23.667 -16 -39 -16s-28.333 5.33301 -39 16s-16 23.667 -16 39
s5.33301 28.333 16 39s23.667 16 39 16s28.333 -5.33301 39 -16zM496 974.999c10.667 -10.667 16 -23.667 16 -39s-5.33301 -28.333 -16 -39s-23.667 -16 -39 -16s-28.333 5.33301 -39 16s-16 23.667 -16 39s5.33301 28.333 16 39s23.667 16 39 16s28.333 -5.33301 39 -16z
" />
    <glyph glyph-name="Aring" unicode="&#xc5;" horiz-adv-x="703" 
d="M690 39c0 -10.667 -3.83301 -19.835 -11.5 -27.502s-16.834 -11.5 -27.501 -11.5c-17.333 0 -29.666 8 -36.999 24l-67 162h-387l-67 -162c-5.33301 -16 -17.333 -24 -36 -24c-11.333 0 -20.5 3.83301 -27.5 11.5s-10.5 16.834 -10.5 27.501c0 6.66699 1 12.334 3 17.001
l294 698c7.33301 18 20 27 38 27s30.333 -9 37 -27l295 -699c2.66699 -4.66699 4 -10 4 -16zM520 252.999l-166 401l-166 -401h332zM422 994.999c18.667 -18.667 28 -42 28 -70s-9.33301 -51.333 -28 -70s-42 -28 -70 -28c-27.333 0 -50.5 9.33301 -69.5 28
s-28.5 42 -28.5 70s9.5 51.333 28.5 70s42.167 28 69.5 28c28 0 51.333 -9.33301 70 -28zM315 962.499c-10 -10.333 -15 -22.833 -15 -37.5s5 -27.167 15 -37.5s22.333 -15.5 37 -15.5c15.333 0 28 5.16699 38 15.5s15 22.833 15 37.5c0 15.333 -5 28 -15 38
s-22.667 15 -38 15c-14.667 0 -27 -5.16699 -37 -15.5z" />
    <glyph glyph-name="AE" unicode="&#xc6;" horiz-adv-x="960" 
d="M904 64.5c7.33301 -7 11.001 -15.834 11.001 -26.501s-3.66699 -19.667 -11 -27s-16.333 -11 -27 -11h-394c-10.667 0 -19.834 3.83301 -27.501 11.5s-11.5 16.834 -11.5 27.501v147h-253l-96 -162c-8 -16 -20 -24 -36 -24c-11.333 -0 -20.833 3.83301 -28.5 11.5
s-11.5 16.5 -11.5 26.5c0 5.33301 1.66699 11.333 5 18l419 695c6 10 13.167 17.5 21.5 22.5s18.833 7.5 31.5 7.5h381c10.667 0 19.667 -3.66699 27 -11s11 -16.333 11 -27s-3.66699 -19.5 -11 -26.5s-16.333 -10.5 -27 -10.5h-355v-276h238c11.333 0 20.5 -3.5 27.5 -10.5
s10.5 -16.167 10.5 -27.5c0 -10.667 -3.66699 -19.667 -11 -27s-16.333 -11 -27 -11h-238v-279h355c10.667 0 19.667 -3.5 27 -10.5zM444.001 252.999v358l-212 -358h212z" />
    <glyph glyph-name="Ccedilla" unicode="&#xc7;" horiz-adv-x="771" 
d="M582 770c39.333 -14 77.3369 -36.333 114.004 -67c7.33301 -5.33301 11 -13 11 -23c0 -5.33301 -1.33301 -10.166 -4 -14.499s-6.33398 -7.5 -11.001 -9.5c-1.33301 -4.66699 -4.33301 -8.33398 -9 -11.001s-9.66699 -4 -15 -4c-10 0 -18.333 3 -25 9
c-26 23.333 -54.333 40.333 -85 51s-66.334 16 -107.001 16c-56 0 -108 -14.833 -156 -44.5s-86.167 -69.5 -114.5 -119.5s-42.5 -104 -42.5 -162c0 -59.333 14 -114 42 -164s66 -89.667 114 -119s100.333 -44 157 -44c72.667 0 138.334 23.333 197.001 70
c7.33301 5.33301 14.666 8 21.999 8c10 0 18.667 -3.5 26 -10.5s11 -16.167 11 -27.5c0 -10.667 -3.66699 -20 -11 -28c-62.667 -57.333 -144.334 -86 -245.001 -86c-70.667 0 -135.667 18 -195 54s-106.5 84.667 -141.5 146s-52.5 128.333 -52.5 201
c0 72 17.333 138.667 52 200s81.667 110 141 146s124.666 54 195.999 54c48 0 91.667 -7 131 -21zM552.504 -72c14.333 -15.333 21.5 -34.332 21.5 -56.999c0 -18.667 -6 -36 -18 -52s-28.333 -28.667 -49 -38s-43.667 -14 -69 -14c-34.667 0 -63.667 7.33301 -87 22
s-35 32 -35 52c0 10 3.66699 18.667 11 26s16 11 26 11c12.667 0 24.334 -7 35.001 -21c10.667 -16 27.667 -24 51 -24c15.333 0 28 3.33301 38 10s15 16 15 28c0 12.667 -4 22.667 -12 30s-21.333 13.333 -40 18c-12.667 2.66699 -22.334 6.5 -29.001 11.5
s-10 11.833 -10 20.5c0 5.33301 1.66699 13 5 23l16 41c6.66699 20 21.334 30 44.001 30c10 0 18 -2.83301 24 -8.5s9 -12.834 9 -21.501c0 -4.66699 -1 -9.66699 -3 -15l-15 -36c33.333 -8.66699 57.166 -20.667 71.499 -36z" />
    <glyph glyph-name="Egrave" unicode="&#xc8;" horiz-adv-x="692" 
d="M636 64.5c7.33301 -7 11.002 -15.833 11.002 -26.5s-3.66699 -19.667 -11 -27s-16.666 -11 -27.999 -11h-469c-10.667 -0 -19.834 3.83301 -27.501 11.5s-11.5 16.834 -11.5 27.501v703c0 11.333 3.83301 20.666 11.5 27.999s16.834 11 27.501 11h469
c11.333 0 20.666 -3.66699 27.999 -11s11 -16.333 11 -27s-3.66699 -19.5 -11 -26.5s-16.666 -10.5 -27.999 -10.5h-430v-276h313c11.333 0 20.666 -3.66699 27.999 -11s11 -16.333 11 -27s-3.83301 -19.667 -11.5 -27s-16.834 -11 -27.501 -11h-313v-279h430
c11.333 0 20.666 -3.5 27.999 -10.5zM231.002 1020c0 11.333 3.66602 20.833 10.999 28.5s16.333 11.5 27 11.5s20 -4 28 -12l112 -113c6.66699 -6 10 -14.333 10 -25c0 -11.333 -3.66699 -20.833 -11 -28.5s-16.666 -11.5 -27.999 -11.5c-10 0 -18.667 3.66699 -26 11
l-113 112c-6.66699 6.66699 -10 15.667 -10 27z" />
    <glyph glyph-name="Eacute" unicode="&#xc9;" horiz-adv-x="692" 
d="M636 64.5c7.33301 -7 11.002 -15.833 11.002 -26.5s-3.66699 -19.667 -11 -27s-16.666 -11 -27.999 -11h-469c-10.667 -0 -19.834 3.83301 -27.501 11.5s-11.5 16.834 -11.5 27.501v703c0 11.333 3.83301 20.666 11.5 27.999s16.834 11 27.501 11h469
c11.333 0 20.666 -3.66699 27.999 -11s11 -16.333 11 -27s-3.66699 -19.5 -11 -26.5s-16.666 -10.5 -27.999 -10.5h-430v-276h313c11.333 0 20.666 -3.66699 27.999 -11s11 -16.333 11 -27s-3.83301 -19.667 -11.5 -27s-16.834 -11 -27.501 -11h-313v-279h430
c11.333 0 20.666 -3.5 27.999 -10.5zM484.002 1053c11.333 0 20.667 -3.83398 28 -11.501s11 -17.167 11 -28.5c0 -10.667 -3.66699 -19.334 -11 -26.001l-112 -113c-6.66699 -6.66699 -15.334 -10 -26.001 -10c-11.333 0 -20.666 3.83301 -27.999 11.5
s-11 16.834 -11 27.501s3 19.334 9 26.001l113 113c7.33301 7.33301 16.333 11 27 11z" />
    <glyph glyph-name="Ecircumflex" unicode="&#xca;" horiz-adv-x="692" 
d="M636 64.5c7.33301 -7 11.002 -15.833 11.002 -26.5s-3.66699 -19.667 -11 -27s-16.666 -11 -27.999 -11h-469c-10.667 -0 -19.834 3.83301 -27.501 11.5s-11.5 16.834 -11.5 27.501v703c0 11.333 3.83301 20.666 11.5 27.999s16.834 11 27.501 11h469
c11.333 0 20.666 -3.66699 27.999 -11s11 -16.333 11 -27s-3.66699 -19.5 -11 -26.5s-16.666 -10.5 -27.999 -10.5h-430v-276h313c11.333 0 20.666 -3.66699 27.999 -11s11 -16.333 11 -27s-3.83301 -19.667 -11.5 -27s-16.834 -11 -27.501 -11h-313v-279h430
c11.333 0 20.666 -3.5 27.999 -10.5zM265.002 868c-11.333 0 -20.834 3.16699 -28.501 9.5s-11.5 14.833 -11.5 25.5c0 14 6.33301 25.333 19 34l118 78c5.33301 3.33301 11.666 5 18.999 5c6.66699 0 13.334 -1.66699 20.001 -5l117 -78c12.667 -8.66699 19 -20 19 -34
c0 -10 -3.66699 -18.333 -11 -25s-16.666 -10 -27.999 -10c-7.33301 0 -15.333 2.66699 -24 8l-93 64l-93 -64c-7.33301 -5.33301 -15 -8 -23 -8z" />
    <glyph glyph-name="Edieresis" unicode="&#xcb;" horiz-adv-x="692" 
d="M636 64.5c7.33301 -7 11.002 -15.833 11.002 -26.5s-3.66699 -19.667 -11 -27s-16.666 -11 -27.999 -11h-469c-10.667 -0 -19.834 3.83301 -27.501 11.5s-11.5 16.834 -11.5 27.501v703c0 11.333 3.83301 20.666 11.5 27.999s16.834 11 27.501 11h469
c11.333 0 20.666 -3.66699 27.999 -11s11 -16.333 11 -27s-3.66699 -19.5 -11 -26.5s-16.666 -10.5 -27.999 -10.5h-430v-276h313c11.333 0 20.666 -3.66699 27.999 -11s11 -16.333 11 -27s-3.83301 -19.667 -11.5 -27s-16.834 -11 -27.501 -11h-313v-279h430
c11.333 0 20.666 -3.5 27.999 -10.5zM316.002 975c10.667 -10.667 16 -23.667 16 -39s-5.33301 -28.333 -16 -39s-23.667 -16 -39 -16s-28.333 5.33301 -39 16s-16 23.667 -16 39s5.33301 28.333 16 39s23.667 16 39 16s28.333 -5.33301 39 -16zM525.002 975
c10.667 -10.667 16 -23.667 16 -39s-5.33301 -28.333 -16 -39s-23.667 -16 -39 -16s-28.333 5.33301 -39 16s-16 23.667 -16 39s5.33301 28.333 16 39s23.667 16 39 16s28.333 -5.33301 39 -16z" />
    <glyph glyph-name="Igrave" unicode="&#xcc;" horiz-adv-x="278" 
d="M111.5 770c7.66699 7.33301 16.834 11 27.501 11c11.333 0 20.666 -3.66699 27.999 -11s11 -16.666 11 -27.999v-703c0 -10.667 -3.66699 -19.834 -11 -27.501s-16.666 -11.5 -27.999 -11.5c-10.667 -0 -19.834 3.83301 -27.501 11.5s-11.5 16.834 -11.5 27.501v703
c0 11.333 3.83301 20.666 11.5 27.999zM-11 1020c0 11.333 3.66602 20.833 10.999 28.5s16.333 11.5 27 11.5s20 -4 28 -12l112 -113c6.66699 -6 10 -14.333 10 -25c0 -11.333 -3.66699 -20.833 -11 -28.5s-16.666 -11.5 -27.999 -11.5c-10 0 -18.667 3.66699 -26 11
l-113 112c-6.66699 6.66699 -10 15.667 -10 27z" />
    <glyph glyph-name="Iacute" unicode="&#xcd;" horiz-adv-x="278" 
d="M111.5 770c7.66699 7.33301 16.834 11 27.501 11c11.333 0 20.666 -3.66699 27.999 -11s11 -16.666 11 -27.999v-703c0 -10.667 -3.66699 -19.834 -11 -27.501s-16.666 -11.5 -27.999 -11.5c-10.667 -0 -19.834 3.83301 -27.501 11.5s-11.5 16.834 -11.5 27.501v703
c0 11.333 3.83301 20.666 11.5 27.999zM242 1053c11.333 0 20.667 -3.83398 28 -11.501s11 -17.167 11 -28.5c0 -10.667 -3.66699 -19.334 -11 -26.001l-112 -113c-6.66699 -6.66699 -15.334 -10 -26.001 -10c-11.333 0 -20.666 3.83301 -27.999 11.5s-11 16.834 -11 27.501
s3 19.334 9 26.001l113 113c7.33301 7.33301 16.333 11 27 11z" />
    <glyph glyph-name="Icircumflex" unicode="&#xce;" horiz-adv-x="278" 
d="M111.5 770c7.66699 7.33301 16.834 11 27.501 11c11.333 0 20.666 -3.66699 27.999 -11s11 -16.666 11 -27.999v-703c0 -10.667 -3.66699 -19.834 -11 -27.501s-16.666 -11.5 -27.999 -11.5c-10.667 -0 -19.834 3.83301 -27.501 11.5s-11.5 16.834 -11.5 27.501v703
c0 11.333 3.83301 20.666 11.5 27.999zM23 868c-11.333 0 -20.834 3.16699 -28.501 9.5s-11.5 14.833 -11.5 25.5c0 14 6.33301 25.333 19 34l118 78c5.33301 3.33301 11.666 5 18.999 5c6.66699 0 13.334 -1.66699 20.001 -5l117 -78c12.667 -8.66699 19 -20 19 -34
c0 -10 -3.66699 -18.333 -11 -25s-16.666 -10 -27.999 -10c-7.33301 0 -15.333 2.66699 -24 8l-93 64l-93 -64c-7.33301 -5.33301 -15 -8 -23 -8z" />
    <glyph glyph-name="Idieresis" unicode="&#xcf;" horiz-adv-x="278" 
d="M111.5 770c7.66699 7.33301 16.834 11 27.501 11c11.333 0 20.666 -3.66699 27.999 -11s11 -16.666 11 -27.999v-703c0 -10.667 -3.66699 -19.834 -11 -27.501s-16.666 -11.5 -27.999 -11.5c-10.667 -0 -19.834 3.83301 -27.501 11.5s-11.5 16.834 -11.5 27.501v703
c0 11.333 3.83301 20.666 11.5 27.999zM74 975c10.667 -10.667 16 -23.667 16 -39s-5.33301 -28.333 -16 -39s-23.667 -16 -39 -16s-28.333 5.33301 -39 16s-16 23.667 -16 39s5.33301 28.333 16 39s23.667 16 39 16s28.333 -5.33301 39 -16zM283 975
c10.667 -10.667 16 -23.667 16 -39s-5.33301 -28.333 -16 -39s-23.667 -16 -39 -16s-28.333 5.33301 -39 16s-16 23.667 -16 39s5.33301 28.333 16 39s23.667 16 39 16s28.333 -5.33301 39 -16z" />
    <glyph glyph-name="Eth" unicode="&#xd0;" horiz-adv-x="770" 
d="M521 731c59.333 -33.333 105.5 -79.5 138.5 -138.5s49.5 -126.167 49.5 -201.5s-16.5 -142.666 -49.5 -201.999s-79.167 -105.666 -138.5 -138.999s-126.666 -50 -201.999 -50h-180c-11.333 0 -20.666 3.66699 -27.999 11s-11 16.666 -11 27.999v318h-64
c-10.667 0 -19.334 3 -26.001 9s-10 14.333 -10 25s3.33301 19 10 25s15.334 9 26.001 9h64v317c0 11.333 3.66699 20.666 11 27.999s16.666 11 27.999 11h180c75.333 0 142.666 -16.667 201.999 -50zM481 111.5c47.333 27.667 84.333 65.833 111 114.5s40 103.667 40 165
s-13.333 116.333 -40 165s-63.667 86.667 -111 114s-101.333 41 -162 41h-141v-286h150c11.333 0 20.333 -3 27 -9s10 -14.333 10 -25s-3.33301 -19 -10 -25s-15.667 -9 -27 -9h-150v-287h141c60.667 0 114.667 13.833 162 41.5z" />
    <glyph glyph-name="Ntilde" unicode="&#xd1;" horiz-adv-x="825" 
d="M658.5 770c7.66699 7.33301 16.832 11.0039 27.499 11.0039c11.333 0 20.666 -3.66699 27.999 -11s11 -16.666 11 -27.999v-703c0 -10.667 -3.66699 -19.834 -11 -27.501s-16.666 -11.5 -27.999 -11.5c-13.333 0 -23 4.33301 -29 13l-479 628v-602
c0 -10.667 -3.66699 -19.834 -11 -27.501s-16.666 -11.5 -27.999 -11.5s-20.666 3.66699 -27.999 11s-11 16.666 -11 27.999v703c0 11.333 3.66699 20.666 11 27.999s16.666 11 27.999 11c12 0 22 -4.66699 30 -14l478 -628v603c0 11.333 3.83301 20.666 11.5 27.999z
M409.998 976.004c13.333 -5.33301 28.6709 -13.335 46.0039 -24.002c15.333 -9.33301 26.833 -15.666 34.5 -18.999s16.5 -5 26.5 -5c20.667 0 37 6.66699 49 20c10 11.333 20.333 17 31 17c5.33301 0 10.666 -1.66699 15.999 -5c12 -6 18 -15.333 18 -28
c0 -7.33301 -2.66699 -14.666 -8 -21.999c-26.667 -32.667 -61.667 -49 -105 -49c-18.667 0 -35.334 3 -50.001 9s-30.334 14 -47.001 24c-14 8.66699 -25.333 14.667 -34 18s-17.334 5 -26.001 5c-24.667 0 -46.667 -11.667 -66 -35c-4 -6 -9 -10.667 -15 -14
s-12 -5 -18 -5s-11.667 1.66699 -17 5c-4.66699 2.66699 -8.5 6.5 -11.5 11.5s-4.5 10.167 -4.5 15.5c0 8 2.33301 15.333 7 22c16.667 21.333 36 37.833 58 49.5s45 17.5 69 17.5c18 0 33.667 -2.66699 47 -8z" />
    <glyph glyph-name="Ograve" unicode="&#xd2;" horiz-adv-x="921" 
d="M665.5 739c61 -34.667 108.667 -82.334 143 -143.001s51.5 -129 51.5 -205s-17.167 -144.5 -51.5 -205.5s-82 -108.833 -143 -143.5s-129.167 -52 -204.5 -52c-76 0 -144.333 17.333 -205 52s-108.167 82.5 -142.5 143.5s-51.5 129.5 -51.5 205.5
s17.167 144.333 51.5 205s81.833 108.334 142.5 143.001s129 52 205 52c75.333 0 143.5 -17.333 204.5 -52zM295.5 674c-49 -28.667 -87.5 -67.834 -115.5 -117.501s-42 -104.834 -42 -165.501c0 -61.333 14 -116.833 42 -166.5s66.5 -88.834 115.5 -117.501
s104.167 -43 165.5 -43c60.667 0 115.5 14.333 164.5 43s87.5 67.834 115.5 117.501s42 105.167 42 166.5c0 60.667 -14 115.834 -42 165.501s-66.5 88.834 -115.5 117.501s-103.833 43 -164.5 43c-61.333 0 -116.5 -14.333 -165.5 -43zM311 1020
c0 11.333 3.66602 20.833 10.999 28.5s16.333 11.5 27 11.5s20 -4 28 -12l112 -113c6.66699 -6 10 -14.333 10 -25c0 -11.333 -3.66699 -20.833 -11 -28.5s-16.666 -11.5 -27.999 -11.5c-10 0 -18.667 3.66699 -26 11l-113 112c-6.66699 6.66699 -10 15.667 -10 27z" />
    <glyph glyph-name="Oacute" unicode="&#xd3;" horiz-adv-x="921" 
d="M665.5 739c61 -34.667 108.667 -82.334 143 -143.001s51.5 -129 51.5 -205s-17.167 -144.5 -51.5 -205.5s-82 -108.833 -143 -143.5s-129.167 -52 -204.5 -52c-76 0 -144.333 17.333 -205 52s-108.167 82.5 -142.5 143.5s-51.5 129.5 -51.5 205.5
s17.167 144.333 51.5 205s81.833 108.334 142.5 143.001s129 52 205 52c75.333 0 143.5 -17.333 204.5 -52zM295.5 674c-49 -28.667 -87.5 -67.834 -115.5 -117.501s-42 -104.834 -42 -165.501c0 -61.333 14 -116.833 42 -166.5s66.5 -88.834 115.5 -117.501
s104.167 -43 165.5 -43c60.667 0 115.5 14.333 164.5 43s87.5 67.834 115.5 117.501s42 105.167 42 166.5c0 60.667 -14 115.834 -42 165.501s-66.5 88.834 -115.5 117.501s-103.833 43 -164.5 43c-61.333 0 -116.5 -14.333 -165.5 -43zM564 1053
c11.333 0 20.667 -3.83398 28 -11.501s11 -17.167 11 -28.5c0 -10.667 -3.66699 -19.334 -11 -26.001l-112 -113c-6.66699 -6.66699 -15.334 -10 -26.001 -10c-11.333 0 -20.666 3.83301 -27.999 11.5s-11 16.834 -11 27.501s3 19.334 9 26.001l113 113
c7.33301 7.33301 16.333 11 27 11z" />
    <glyph glyph-name="Ocircumflex" unicode="&#xd4;" horiz-adv-x="921" 
d="M665.5 739c61 -34.667 108.667 -82.334 143 -143.001s51.5 -129 51.5 -205s-17.167 -144.5 -51.5 -205.5s-82 -108.833 -143 -143.5s-129.167 -52 -204.5 -52c-76 0 -144.333 17.333 -205 52s-108.167 82.5 -142.5 143.5s-51.5 129.5 -51.5 205.5
s17.167 144.333 51.5 205s81.833 108.334 142.5 143.001s129 52 205 52c75.333 0 143.5 -17.333 204.5 -52zM295.5 674c-49 -28.667 -87.5 -67.834 -115.5 -117.501s-42 -104.834 -42 -165.501c0 -61.333 14 -116.833 42 -166.5s66.5 -88.834 115.5 -117.501
s104.167 -43 165.5 -43c60.667 0 115.5 14.333 164.5 43s87.5 67.834 115.5 117.501s42 105.167 42 166.5c0 60.667 -14 115.834 -42 165.501s-66.5 88.834 -115.5 117.501s-103.833 43 -164.5 43c-61.333 0 -116.5 -14.333 -165.5 -43zM345 868
c-11.333 0 -20.834 3.16699 -28.501 9.5s-11.5 14.833 -11.5 25.5c0 14 6.33301 25.333 19 34l118 78c5.33301 3.33301 11.666 5 18.999 5c6.66699 0 13.334 -1.66699 20.001 -5l117 -78c12.667 -8.66699 19 -20 19 -34c0 -10 -3.66699 -18.333 -11 -25
s-16.666 -10 -27.999 -10c-7.33301 0 -15.333 2.66699 -24 8l-93 64l-93 -64c-7.33301 -5.33301 -15 -8 -23 -8z" />
    <glyph glyph-name="Otilde" unicode="&#xd5;" horiz-adv-x="921" 
d="M665.5 739c61 -34.667 108.667 -82.334 143 -143.001s51.5 -129 51.5 -205s-17.167 -144.5 -51.5 -205.5s-82 -108.833 -143 -143.5s-129.167 -52 -204.5 -52c-76 0 -144.333 17.333 -205 52s-108.167 82.5 -142.5 143.5s-51.5 129.5 -51.5 205.5
s17.167 144.333 51.5 205s81.833 108.334 142.5 143.001s129 52 205 52c75.333 0 143.5 -17.333 204.5 -52zM295.5 674c-49 -28.667 -87.5 -67.834 -115.5 -117.501s-42 -104.834 -42 -165.501c0 -61.333 14 -116.833 42 -166.5s66.5 -88.834 115.5 -117.501
s104.167 -43 165.5 -43c60.667 0 115.5 14.333 164.5 43s87.5 67.834 115.5 117.501s42 105.167 42 166.5c0 60.667 -14 115.834 -42 165.501s-66.5 88.834 -115.5 117.501s-103.833 43 -164.5 43c-61.333 0 -116.5 -14.333 -165.5 -43zM458 976
c13.333 -5.33301 28.6709 -13.335 46.0039 -24.002c15.333 -9.33301 26.833 -15.666 34.5 -18.999s16.5 -5 26.5 -5c20.667 0 37 6.66699 49 20c10 11.333 20.333 17 31 17c5.33301 0 10.666 -1.66699 15.999 -5c12 -6 18 -15.333 18 -28
c0 -7.33301 -2.66699 -14.666 -8 -21.999c-26.667 -32.667 -61.667 -49 -105 -49c-18.667 0 -35.334 3 -50.001 9s-30.334 14 -47.001 24c-14 8.66699 -25.333 14.667 -34 18s-17.334 5 -26.001 5c-24.667 0 -46.667 -11.667 -66 -35c-4 -6 -9 -10.667 -15 -14
s-12 -5 -18 -5s-11.667 1.66699 -17 5c-4.66699 2.66699 -8.5 6.5 -11.5 11.5s-4.5 10.167 -4.5 15.5c0 8 2.33301 15.333 7 22c16.667 21.333 36 37.833 58 49.5s45 17.5 69 17.5c18 0 33.667 -2.66699 47 -8z" />
    <glyph glyph-name="Odieresis" unicode="&#xd6;" horiz-adv-x="921" 
d="M665.5 739c61 -34.667 108.667 -82.334 143 -143.001s51.5 -129 51.5 -205s-17.167 -144.5 -51.5 -205.5s-82 -108.833 -143 -143.5s-129.167 -52 -204.5 -52c-76 0 -144.333 17.333 -205 52s-108.167 82.5 -142.5 143.5s-51.5 129.5 -51.5 205.5
s17.167 144.333 51.5 205s81.833 108.334 142.5 143.001s129 52 205 52c75.333 0 143.5 -17.333 204.5 -52zM295.5 674c-49 -28.667 -87.5 -67.834 -115.5 -117.501s-42 -104.834 -42 -165.501c0 -61.333 14 -116.833 42 -166.5s66.5 -88.834 115.5 -117.501
s104.167 -43 165.5 -43c60.667 0 115.5 14.333 164.5 43s87.5 67.834 115.5 117.501s42 105.167 42 166.5c0 60.667 -14 115.834 -42 165.501s-66.5 88.834 -115.5 117.501s-103.833 43 -164.5 43c-61.333 0 -116.5 -14.333 -165.5 -43zM396 975
c10.667 -10.667 16 -23.667 16 -39s-5.33301 -28.333 -16 -39s-23.667 -16 -39 -16s-28.333 5.33301 -39 16s-16 23.667 -16 39s5.33301 28.333 16 39s23.667 16 39 16s28.333 -5.33301 39 -16zM605 975c10.667 -10.667 16 -23.667 16 -39s-5.33301 -28.333 -16 -39
s-23.667 -16 -39 -16s-28.333 5.33301 -39 16s-16 23.667 -16 39s5.33301 28.333 16 39s23.667 16 39 16s28.333 -5.33301 39 -16z" />
    <glyph glyph-name="multiply" unicode="&#xd7;" horiz-adv-x="469" 
d="M391 547c10.667 0 19.8369 -3.83203 27.5039 -11.499s11.5 -16.834 11.5 -27.501s-3.66699 -19.667 -11 -27l-129 -129l129 -129c7.33301 -8.66699 11 -18 11 -28c0 -10.667 -3.83301 -19.834 -11.5 -27.501s-16.834 -11.5 -27.501 -11.5
c-11.333 0 -20.333 3.33301 -27 10l-130 130l-129 -130c-7.33301 -6.66699 -16.333 -10 -27 -10s-19.834 3.83301 -27.501 11.5s-11.5 16.834 -11.5 27.501c0 10 3.33301 19.333 10 28l130 129l-130 129c-6.66699 8 -10 16.667 -10 26c0 11.333 3.66699 20.833 11 28.5
s16.666 11.5 27.999 11.5c10 0 19.333 -3.66699 28 -11l128 -129l129 129c7.33301 7.33301 16.666 11 27.999 11z" />
    <glyph glyph-name="Oslash" unicode="&#xd8;" horiz-adv-x="884" 
d="M836.5 534c15.667 -44.667 23.501 -92.333 23.501 -143c0 -76 -17.167 -144.5 -51.5 -205.5s-82 -108.833 -143 -143.5s-129.167 -52 -204.5 -52c-52.667 0 -102 8.66699 -148 26s-86.667 41.666 -122 72.999l-81 -81c-5.33301 -5.33301 -12.333 -8 -21 -8
c-9.33301 0 -16.833 3 -22.5 9s-8.5 13.333 -8.5 22c0 8 2.66699 14.667 8 20l82 82c-27.333 35.333 -48.5 74.833 -63.5 118.5s-22.5 90.167 -22.5 139.5c0 76 17.167 144.333 51.5 205s81.833 108.334 142.5 143.001s129 52 205 52
c51.333 0 99.666 -8.16699 144.999 -24.5s85.333 -39.833 120 -70.5l78 77c5.33301 5.33301 12.333 8 21 8s16.167 -3 22.5 -9s9.5 -13 9.5 -21c0 -7.33301 -3 -14 -9 -20l-79 -79c29.333 -34 51.833 -73.333 67.5 -118zM295.501 674.001
c-49 -28.667 -87.501 -67.833 -115.501 -117.5s-42 -104.834 -42 -165.501c0 -79.333 23 -148.333 69 -207l461 461c-28 22.667 -59.667 40.334 -95 53.001s-72.666 19 -111.999 19c-61.333 0 -116.5 -14.333 -165.5 -43zM625.5 107.002
c49 28.667 87.499 67.833 115.499 117.5s42 105.167 42 166.5c0 40 -6.16699 78 -18.5 114s-30.166 68 -53.499 96l-462 -462c28.667 -24 61 -42.5 97 -55.5s74.333 -19.5 115 -19.5c60.667 0 115.5 14.333 164.5 43z" />
    <glyph glyph-name="Ugrave" unicode="&#xd9;" horiz-adv-x="819" 
d="M111 770c7.33301 7.33301 16.668 11 28.001 11s20.666 -3.66699 27.999 -11s11 -16.666 11 -27.999v-484c0 -38.667 9.83301 -73.167 29.5 -103.5s47.167 -54 82.5 -71s75.666 -25.5 120.999 -25.5c44.667 0 84.334 8.5 119.001 25.5s61.834 40.667 81.501 71
s29.5 64.833 29.5 103.5v484c0 11.333 3.66699 20.666 11 27.999s16.666 11 27.999 11s20.666 -3.66699 27.999 -11s11 -16.666 11 -27.999v-484c0 -52.667 -13.167 -99.834 -39.5 -141.501s-62.833 -74.167 -109.5 -97.5s-99.667 -35 -159 -35
c-60 0 -113.667 11.667 -161 35s-84.166 55.833 -110.499 97.5s-39.5 88.834 -39.5 141.501v484c0 11.333 3.66699 20.666 11 27.999zM260.002 1020c0 11.333 3.66602 20.833 10.999 28.5s16.333 11.5 27 11.5s20 -4 28 -12l112 -113c6.66699 -6 10 -14.333 10 -25
c0 -11.333 -3.66699 -20.833 -11 -28.5s-16.666 -11.5 -27.999 -11.5c-10 0 -18.667 3.66699 -26 11l-113 112c-6.66699 6.66699 -10 15.667 -10 27z" />
    <glyph glyph-name="Uacute" unicode="&#xda;" horiz-adv-x="819" 
d="M111 770c7.33301 7.33301 16.668 11 28.001 11s20.666 -3.66699 27.999 -11s11 -16.666 11 -27.999v-484c0 -38.667 9.83301 -73.167 29.5 -103.5s47.167 -54 82.5 -71s75.666 -25.5 120.999 -25.5c44.667 0 84.334 8.5 119.001 25.5s61.834 40.667 81.501 71
s29.5 64.833 29.5 103.5v484c0 11.333 3.66699 20.666 11 27.999s16.666 11 27.999 11s20.666 -3.66699 27.999 -11s11 -16.666 11 -27.999v-484c0 -52.667 -13.167 -99.834 -39.5 -141.501s-62.833 -74.167 -109.5 -97.5s-99.667 -35 -159 -35
c-60 0 -113.667 11.667 -161 35s-84.166 55.833 -110.499 97.5s-39.5 88.834 -39.5 141.501v484c0 11.333 3.66699 20.666 11 27.999zM513.002 1053c11.333 0 20.667 -3.83398 28 -11.501s11 -17.167 11 -28.5c0 -10.667 -3.66699 -19.334 -11 -26.001l-112 -113
c-6.66699 -6.66699 -15.334 -10 -26.001 -10c-11.333 0 -20.666 3.83301 -27.999 11.5s-11 16.834 -11 27.501s3 19.334 9 26.001l113 113c7.33301 7.33301 16.333 11 27 11z" />
    <glyph glyph-name="Ucircumflex" unicode="&#xdb;" horiz-adv-x="819" 
d="M111 770c7.33301 7.33301 16.668 11 28.001 11s20.666 -3.66699 27.999 -11s11 -16.666 11 -27.999v-484c0 -38.667 9.83301 -73.167 29.5 -103.5s47.167 -54 82.5 -71s75.666 -25.5 120.999 -25.5c44.667 0 84.334 8.5 119.001 25.5s61.834 40.667 81.501 71
s29.5 64.833 29.5 103.5v484c0 11.333 3.66699 20.666 11 27.999s16.666 11 27.999 11s20.666 -3.66699 27.999 -11s11 -16.666 11 -27.999v-484c0 -52.667 -13.167 -99.834 -39.5 -141.501s-62.833 -74.167 -109.5 -97.5s-99.667 -35 -159 -35
c-60 0 -113.667 11.667 -161 35s-84.166 55.833 -110.499 97.5s-39.5 88.834 -39.5 141.501v484c0 11.333 3.66699 20.666 11 27.999zM294.002 868c-11.333 0 -20.834 3.16699 -28.501 9.5s-11.5 14.833 -11.5 25.5c0 14 6.33301 25.333 19 34l118 78
c5.33301 3.33301 11.666 5 18.999 5c6.66699 0 13.334 -1.66699 20.001 -5l117 -78c12.667 -8.66699 19 -20 19 -34c0 -10 -3.66699 -18.333 -11 -25s-16.666 -10 -27.999 -10c-7.33301 0 -15.333 2.66699 -24 8l-93 64l-93 -64c-7.33301 -5.33301 -15 -8 -23 -8z" />
    <glyph glyph-name="Udieresis" unicode="&#xdc;" horiz-adv-x="819" 
d="M111 770c7.33301 7.33301 16.668 11 28.001 11s20.666 -3.66699 27.999 -11s11 -16.666 11 -27.999v-484c0 -38.667 9.83301 -73.167 29.5 -103.5s47.167 -54 82.5 -71s75.666 -25.5 120.999 -25.5c44.667 0 84.334 8.5 119.001 25.5s61.834 40.667 81.501 71
s29.5 64.833 29.5 103.5v484c0 11.333 3.66699 20.666 11 27.999s16.666 11 27.999 11s20.666 -3.66699 27.999 -11s11 -16.666 11 -27.999v-484c0 -52.667 -13.167 -99.834 -39.5 -141.501s-62.833 -74.167 -109.5 -97.5s-99.667 -35 -159 -35
c-60 0 -113.667 11.667 -161 35s-84.166 55.833 -110.499 97.5s-39.5 88.834 -39.5 141.501v484c0 11.333 3.66699 20.666 11 27.999zM345.002 975c10.667 -10.667 16 -23.667 16 -39s-5.33301 -28.333 -16 -39s-23.667 -16 -39 -16s-28.333 5.33301 -39 16
s-16 23.667 -16 39s5.33301 28.333 16 39s23.667 16 39 16s28.333 -5.33301 39 -16zM554.002 975c10.667 -10.667 16 -23.667 16 -39s-5.33301 -28.333 -16 -39s-23.667 -16 -39 -16s-28.333 5.33301 -39 16s-16 23.667 -16 39s5.33301 28.333 16 39s23.667 16 39 16
s28.333 -5.33301 39 -16z" />
    <glyph glyph-name="Yacute" unicode="&#xdd;" horiz-adv-x="648" 
d="M633.5 770.5c6.33301 -7 9.50098 -15.5 9.50098 -25.5c0 -9.33301 -2.33301 -17.666 -7 -24.999l-273 -431v-250c0 -10.667 -3.66699 -19.834 -11 -27.501s-16.666 -11.5 -27.999 -11.5c-10.667 -0 -19.834 3.83301 -27.501 11.5s-11.5 16.834 -11.5 27.501v250l-272 431
c-5.33301 8.66699 -8 17 -8 25c0 10 3.66699 18.5 11 25.5s16.333 10.5 27 10.5c7.33301 0 13.5 -1.5 18.5 -4.5s9.83301 -7.83301 14.5 -14.5l249 -401l248 399c5.33301 7.33301 10.666 12.666 15.999 15.999s12 5 20 5c10 0 18.167 -3.5 24.5 -10.5zM427.001 1053
c11.333 0 20.667 -3.83398 28 -11.501s11 -17.167 11 -28.5c0 -10.667 -3.66699 -19.334 -11 -26.001l-112 -113c-6.66699 -6.66699 -15.334 -10 -26.001 -10c-11.333 0 -20.666 3.83301 -27.999 11.5s-11 16.834 -11 27.501s3 19.334 9 26.001l113 113
c7.33301 7.33301 16.333 11 27 11z" />
    <glyph glyph-name="Thorn" unicode="&#xde;" horiz-adv-x="612" 
d="M167 11c-7.33301 -7.33301 -16.668 -11.001 -28.001 -11.001s-20.666 3.66699 -27.999 11s-11 16.666 -11 27.999v703c0 11.333 3.83301 20.666 11.5 27.999s16.834 11 27.501 11c11.333 0 20.666 -3.66699 27.999 -11s11 -16.666 11 -27.999v-98h161
c48.667 0 92.167 -9.66699 130.5 -29s68.166 -46.5 89.499 -81.5s32 -75.167 32 -120.5c0 -44.667 -10.667 -84.167 -32 -118.5s-51.166 -61.166 -89.499 -80.499s-81.833 -29 -130.5 -29h-161v-146c0 -11.333 -3.66699 -20.666 -11 -27.999zM429.998 273.999
c26.667 14 47.5 33.166 62.5 57.499s22.5 51.5 22.5 81.5c0 30.667 -7.5 58.334 -22.5 83.001s-35.833 44.167 -62.5 58.5s-57 21.5 -91 21.5h-161v-323h161c34 0 64.333 7 91 21z" />
    <glyph glyph-name="germandbls" unicode="&#xdf;" horiz-adv-x="547" 
d="M78.5 677.5c17.667 29.667 42.499 53.165 74.499 70.498s68.333 26 109 26c36.667 0 69.5 -7.5 98.5 -22.5s51.667 -35.833 68 -62.5s24.5 -57 24.5 -91c0 -23.333 -4.5 -43.5 -13.5 -60.5s-21.833 -35.167 -38.5 -54.5c-12.667 -14.667 -22.167 -27.334 -28.5 -38.001
s-9.5 -22.334 -9.5 -35.001c0 -14 4.5 -26.667 13.5 -38s24.167 -27.333 45.5 -48c28.667 -25.333 51.167 -49.666 67.5 -72.999s24.5 -51.333 24.5 -84c0 -32 -8.33301 -61 -25 -87s-39.667 -46.5 -69 -61.5s-62.333 -22.5 -99 -22.5
c-23.333 0 -46.666 4.16699 -69.999 12.5s-42.5 19.166 -57.5 32.499s-22.5 27 -22.5 41c0 10 2.83301 18.167 8.5 24.5s13.5 9.5 23.5 9.5c7.33301 0 13.333 -1.33301 18 -4s10.334 -7 17.001 -13c10 -9.33301 21 -16.666 33 -21.999s30 -8 54 -8c35.333 0 63 8.5 83 25.5
s30 41.167 30 72.5c0 22.667 -6 42.334 -18 59.001s-30.667 37 -56 61s-44 44.333 -56 61s-18 36.667 -18 60c0 19.333 3.83301 35.5 11.5 48.5s19.167 27.833 34.5 44.5c15.333 17.333 26.666 32.333 33.999 45s11 28.667 11 48c0 34.667 -10.833 61.334 -32.5 80.001
s-51.167 28 -88.5 28s-68.333 -12.167 -93 -36.5s-37 -55.5 -37 -93.5v-534c0 -11.333 -3.66699 -20.5 -11 -27.5s-17 -10.5 -29 -10.5c-10.667 0 -19.667 3.66699 -27 11s-11 16.333 -11 27v540c0 36.667 8.83301 69.834 26.5 99.501z" />
    <glyph glyph-name="agrave" unicode="&#xe0;" 
d="M480.5 515.5c42.333 -24.333 75.666 -57.832 99.999 -100.499s36.5 -90 36.5 -142v-235c0 -10.667 -3.66699 -19.667 -11 -27s-16.666 -11 -27.999 -11s-20.666 3.5 -27.999 10.5s-11 16.167 -11 27.5v60c-23.333 -32 -53 -57.167 -89 -75.5s-75.667 -27.5 -119 -27.5
c-50.667 0 -96.5 12.167 -137.5 36.5s-73.333 57.666 -97 99.999s-35.5 89.5 -35.5 141.5s12.167 99.333 36.5 142s57.666 76.167 99.999 100.5s89.5 36.5 141.5 36.5s99.167 -12.167 141.5 -36.5zM442 92.001c30.667 18 54.834 42.833 72.501 74.5s26.5 67.167 26.5 106.5
s-8.83301 74.833 -26.5 106.5s-41.834 56.667 -72.501 75s-65 27.5 -103 27.5s-72.5 -9.16699 -103.5 -27.5s-55.333 -43.333 -73 -75s-26.5 -67.167 -26.5 -106.5s8.83301 -74.833 26.5 -106.5s42 -56.5 73 -74.5s65.5 -27 103.5 -27s72.333 9 103 27zM189 786.001
c0 11.333 3.66602 20.833 10.999 28.5s16.333 11.5 27 11.5s20 -4 28 -12l112 -113c6.66699 -6 10 -14.333 10 -25c0 -11.333 -3.66699 -20.833 -11 -28.5s-16.666 -11.5 -27.999 -11.5c-10 0 -18.667 3.66699 -26 11l-113 112c-6.66699 6.66699 -10 15.667 -10 27z" />
    <glyph glyph-name="aacute" unicode="&#xe1;" 
d="M480.5 515.5c42.333 -24.333 75.666 -57.832 99.999 -100.499s36.5 -90 36.5 -142v-235c0 -10.667 -3.66699 -19.667 -11 -27s-16.666 -11 -27.999 -11s-20.666 3.5 -27.999 10.5s-11 16.167 -11 27.5v60c-23.333 -32 -53 -57.167 -89 -75.5s-75.667 -27.5 -119 -27.5
c-50.667 0 -96.5 12.167 -137.5 36.5s-73.333 57.666 -97 99.999s-35.5 89.5 -35.5 141.5s12.167 99.333 36.5 142s57.666 76.167 99.999 100.5s89.5 36.5 141.5 36.5s99.167 -12.167 141.5 -36.5zM442 92.001c30.667 18 54.834 42.833 72.501 74.5s26.5 67.167 26.5 106.5
s-8.83301 74.833 -26.5 106.5s-41.834 56.667 -72.501 75s-65 27.5 -103 27.5s-72.5 -9.16699 -103.5 -27.5s-55.333 -43.333 -73 -75s-26.5 -67.167 -26.5 -106.5s8.83301 -74.833 26.5 -106.5s42 -56.5 73 -74.5s65.5 -27 103.5 -27s72.333 9 103 27zM442 819.001
c11.333 0 20.667 -3.83398 28 -11.501s11 -17.167 11 -28.5c0 -10.667 -3.66699 -19.334 -11 -26.001l-112 -113c-6.66699 -6.66699 -15.334 -10 -26.001 -10c-11.333 0 -20.666 3.83301 -27.999 11.5s-11 16.834 -11 27.501s3 19.334 9 26.001l113 113
c7.33301 7.33301 16.333 11 27 11z" />
    <glyph glyph-name="acircumflex" unicode="&#xe2;" 
d="M480.5 515.5c42.333 -24.333 75.666 -57.832 99.999 -100.499s36.5 -90 36.5 -142v-235c0 -10.667 -3.66699 -19.667 -11 -27s-16.666 -11 -27.999 -11s-20.666 3.5 -27.999 10.5s-11 16.167 -11 27.5v60c-23.333 -32 -53 -57.167 -89 -75.5s-75.667 -27.5 -119 -27.5
c-50.667 0 -96.5 12.167 -137.5 36.5s-73.333 57.666 -97 99.999s-35.5 89.5 -35.5 141.5s12.167 99.333 36.5 142s57.666 76.167 99.999 100.5s89.5 36.5 141.5 36.5s99.167 -12.167 141.5 -36.5zM442 92.001c30.667 18 54.834 42.833 72.501 74.5s26.5 67.167 26.5 106.5
s-8.83301 74.833 -26.5 106.5s-41.834 56.667 -72.501 75s-65 27.5 -103 27.5s-72.5 -9.16699 -103.5 -27.5s-55.333 -43.333 -73 -75s-26.5 -67.167 -26.5 -106.5s8.83301 -74.833 26.5 -106.5s42 -56.5 73 -74.5s65.5 -27 103.5 -27s72.333 9 103 27zM223 634.001
c-11.333 0 -20.834 3.16699 -28.501 9.5s-11.5 14.833 -11.5 25.5c0 14 6.33301 25.333 19 34l118 78c5.33301 3.33301 11.666 5 18.999 5c6.66699 0 13.334 -1.66699 20.001 -5l117 -78c12.667 -8.66699 19 -20 19 -34c0 -10 -3.66699 -18.333 -11 -25
s-16.666 -10 -27.999 -10c-7.33301 0 -15.333 2.66699 -24 8l-93 64l-93 -64c-7.33301 -5.33301 -15 -8 -23 -8z" />
    <glyph glyph-name="atilde" unicode="&#xe3;" 
d="M480.5 515.5c42.333 -24.333 75.666 -57.832 99.999 -100.499s36.5 -90 36.5 -142v-235c0 -10.667 -3.66699 -19.667 -11 -27s-16.666 -11 -27.999 -11s-20.666 3.5 -27.999 10.5s-11 16.167 -11 27.5v60c-23.333 -32 -53 -57.167 -89 -75.5s-75.667 -27.5 -119 -27.5
c-50.667 0 -96.5 12.167 -137.5 36.5s-73.333 57.666 -97 99.999s-35.5 89.5 -35.5 141.5s12.167 99.333 36.5 142s57.666 76.167 99.999 100.5s89.5 36.5 141.5 36.5s99.167 -12.167 141.5 -36.5zM442 92.001c30.667 18 54.834 42.833 72.501 74.5s26.5 67.167 26.5 106.5
s-8.83301 74.833 -26.5 106.5s-41.834 56.667 -72.501 75s-65 27.5 -103 27.5s-72.5 -9.16699 -103.5 -27.5s-55.333 -43.333 -73 -75s-26.5 -67.167 -26.5 -106.5s8.83301 -74.833 26.5 -106.5s42 -56.5 73 -74.5s65.5 -27 103.5 -27s72.333 9 103 27zM336 742.001
c13.333 -5.33301 28.6709 -13.335 46.0039 -24.002c15.333 -9.33301 26.833 -15.666 34.5 -18.999s16.5 -5 26.5 -5c20.667 0 37 6.66699 49 20c10 11.333 20.333 17 31 17c5.33301 0 10.666 -1.66699 15.999 -5c12 -6 18 -15.333 18 -28
c0 -7.33301 -2.66699 -14.666 -8 -21.999c-26.667 -32.667 -61.667 -49 -105 -49c-18.667 0 -35.334 3 -50.001 9s-30.334 14 -47.001 24c-14 8.66699 -25.333 14.667 -34 18s-17.334 5 -26.001 5c-24.667 0 -46.667 -11.667 -66 -35c-4 -6 -9 -10.667 -15 -14
s-12 -5 -18 -5s-11.667 1.66699 -17 5c-4.66699 2.66699 -8.5 6.5 -11.5 11.5s-4.5 10.167 -4.5 15.5c0 8 2.33301 15.333 7 22c16.667 21.333 36 37.833 58 49.5s45 17.5 69 17.5c18 0 33.667 -2.66699 47 -8z" />
    <glyph glyph-name="adieresis" unicode="&#xe4;" 
d="M480.5 515.5c42.333 -24.333 75.666 -57.832 99.999 -100.499s36.5 -90 36.5 -142v-235c0 -10.667 -3.66699 -19.667 -11 -27s-16.666 -11 -27.999 -11s-20.666 3.5 -27.999 10.5s-11 16.167 -11 27.5v60c-23.333 -32 -53 -57.167 -89 -75.5s-75.667 -27.5 -119 -27.5
c-50.667 0 -96.5 12.167 -137.5 36.5s-73.333 57.666 -97 99.999s-35.5 89.5 -35.5 141.5s12.167 99.333 36.5 142s57.666 76.167 99.999 100.5s89.5 36.5 141.5 36.5s99.167 -12.167 141.5 -36.5zM442 92.001c30.667 18 54.834 42.833 72.501 74.5s26.5 67.167 26.5 106.5
s-8.83301 74.833 -26.5 106.5s-41.834 56.667 -72.501 75s-65 27.5 -103 27.5s-72.5 -9.16699 -103.5 -27.5s-55.333 -43.333 -73 -75s-26.5 -67.167 -26.5 -106.5s8.83301 -74.833 26.5 -106.5s42 -56.5 73 -74.5s65.5 -27 103.5 -27s72.333 9 103 27zM274 741.001
c10.667 -10.667 16 -23.667 16 -39s-5.33301 -28.333 -16 -39s-23.667 -16 -39 -16s-28.333 5.33301 -39 16s-16 23.667 -16 39s5.33301 28.333 16 39s23.667 16 39 16s28.333 -5.33301 39 -16zM483 741.001c10.667 -10.667 16 -23.667 16 -39s-5.33301 -28.333 -16 -39
s-23.667 -16 -39 -16s-28.333 5.33301 -39 16s-16 23.667 -16 39s5.33301 28.333 16 39s23.667 16 39 16s28.333 -5.33301 39 -16z" />
    <glyph glyph-name="aring" unicode="&#xe5;" 
d="M480.5 515.5c42.333 -24.333 75.666 -57.832 99.999 -100.499s36.5 -90 36.5 -142v-235c0 -10.667 -3.66699 -19.667 -11 -27s-16.666 -11 -27.999 -11s-20.666 3.5 -27.999 10.5s-11 16.167 -11 27.5v60c-23.333 -32 -53 -57.167 -89 -75.5s-75.667 -27.5 -119 -27.5
c-50.667 0 -96.5 12.167 -137.5 36.5s-73.333 57.666 -97 99.999s-35.5 89.5 -35.5 141.5s12.167 99.333 36.5 142s57.666 76.167 99.999 100.5s89.5 36.5 141.5 36.5s99.167 -12.167 141.5 -36.5zM442 92.001c30.667 18 54.834 42.833 72.501 74.5s26.5 67.167 26.5 106.5
s-8.83301 74.833 -26.5 106.5s-41.834 56.667 -72.501 75s-65 27.5 -103 27.5s-72.5 -9.16699 -103.5 -27.5s-55.333 -43.333 -73 -75s-26.5 -67.167 -26.5 -106.5s8.83301 -74.833 26.5 -106.5s42 -56.5 73 -74.5s65.5 -27 103.5 -27s72.333 9 103 27zM409 761.001
c18.667 -18.667 28 -42 28 -70s-9.33301 -51.333 -28 -70s-42 -28 -70 -28c-27.333 0 -50.5 9.33301 -69.5 28s-28.5 42 -28.5 70s9.5 51.333 28.5 70s42.167 28 69.5 28c28 0 51.333 -9.33301 70 -28zM302 728.501c-10 -10.333 -15 -22.833 -15 -37.5s5 -27.167 15 -37.5
s22.333 -15.5 37 -15.5c15.333 0 28 5.16699 38 15.5s15 22.833 15 37.5c0 15.333 -5 28 -15 38s-22.667 15 -38 15c-14.667 0 -27 -5.16699 -37 -15.5z" />
    <glyph glyph-name="ae" unicode="&#xe6;" horiz-adv-x="1096" 
d="M937 517.5c38 -23 67.335 -54.833 88.002 -95.5s31 -87 31 -139c0 -10.667 -3.33301 -19.167 -10 -25.5s-15.334 -9.5 -26.001 -9.5h-403v-7c6.66699 -52.667 28.667 -95.334 66 -128.001s83 -49 137 -49c26 0 50.5 4 73.5 12s42.167 18.667 57.5 32
c8.66699 6.66699 17.667 10 27 10s16.666 -2.66699 21.999 -8c9.33301 -8 14 -17 14 -27c0 -8 -4 -15.667 -12 -23c-22 -18.667 -50 -34.167 -84 -46.5s-66.667 -18.5 -98 -18.5c-41.333 0 -79.333 7.83301 -114 23.5s-64.334 37.834 -89.001 66.501v-47
c0 -10.667 -3.66699 -19.667 -11 -27s-16.666 -11 -27.999 -11s-20.666 3.5 -27.999 10.5s-11 16.167 -11 27.5v60c-23.333 -32 -53 -57.167 -89 -75.5s-75.667 -27.5 -119 -27.5c-50.667 0 -96.5 12.167 -137.5 36.5s-73.333 57.666 -97 99.999s-35.5 89.5 -35.5 141.5
s12.167 99.333 36.5 142s57.666 76.167 99.999 100.5s89.5 36.5 141.5 36.5c52.667 0 100.5 -12.667 143.5 -38s76.167 -59.666 99.5 -102.999c20.667 44 50.5 78.5 89.5 103.5s83.5 37.5 133.5 37.5s94 -11.5 132 -34.5zM679.002 436
c-33.333 -31.333 -53.668 -72.666 -61.001 -123.999h367c-5.33301 51.333 -24.166 92.666 -56.499 123.999s-73.5 47 -123.5 47c-50.667 0 -92.667 -15.667 -126 -47zM442 92c30.667 18 54.834 42.833 72.501 74.5s26.5 67.167 26.5 106.5s-8.83301 74.833 -26.5 106.5
s-41.834 56.667 -72.501 75s-65 27.5 -103 27.5s-72.5 -9.16699 -103.5 -27.5s-55.333 -43.333 -73 -75s-26.5 -67.167 -26.5 -106.5s8.83301 -74.833 26.5 -106.5s42 -56.5 73 -74.5s65.5 -27 103.5 -27s72.333 9 103 27z" />
    <glyph glyph-name="ccedilla" unicode="&#xe7;" horiz-adv-x="596" 
d="M527 456c5.33301 -6 8.00195 -12.998 8.00195 -20.998c0 -10.667 -5.66699 -20 -17 -28c-6 -4 -12.333 -6 -19 -6c-10 0 -19.667 5 -29 15c-20 22 -42 38.5 -66 49.5s-50.667 16.5 -80 16.5c-36.667 0 -69.334 -8.83301 -98.001 -26.5s-50.834 -42.5 -66.501 -74.5
s-23.5 -68 -23.5 -108c0 -39.333 8.33301 -74.833 25 -106.5s40 -56.5 70 -74.5s64.333 -27 103 -27c53.333 0 96.333 14.333 129 43c8.66699 7.33301 17.667 11 27 11c8 0 15.333 -2.66699 22 -8c9.33301 -8 14 -17 14 -27c0 -8.66699 -3.33301 -16 -10 -22
c-48 -44.667 -108.667 -67 -182 -67c-52 0 -98.667 12.167 -140 36.5s-73.833 57.666 -97.5 99.999s-35.5 89.5 -35.5 141.5c0 53.333 11.333 101.166 34 143.499s54 75.5 94 99.5s85 36 135 36c83.333 0 151 -32 203 -96zM424.502 -71.998
c14.333 -15.333 21.5 -34.332 21.5 -56.999c0 -18.667 -6 -36 -18 -52s-28.333 -28.667 -49 -38s-43.667 -14 -69 -14c-34.667 0 -63.667 7.33301 -87 22s-35 32 -35 52c0 10 3.66699 18.667 11 26s16 11 26 11c12.667 0 24.334 -7 35.001 -21c10.667 -16 27.667 -24 51 -24
c15.333 0 28 3.33301 38 10s15 16 15 28c0 12.667 -4 22.667 -12 30s-21.333 13.333 -40 18c-12.667 2.66699 -22.334 6.5 -29.001 11.5s-10 11.833 -10 20.5c0 5.33301 1.66699 13 5 23l16 41c6.66699 20 21.334 30 44.001 30c10 0 18 -2.83301 24 -8.5
s9 -12.834 9 -21.501c0 -4.66699 -1 -9.66699 -3 -15l-15 -36c33.333 -8.66699 57.166 -20.667 71.499 -36z" />
    <glyph glyph-name="egrave" unicode="&#xe8;" horiz-adv-x="614" 
d="M454 517.5c38 -23 67.502 -54.8311 88.502 -95.498s31.5 -87 31.5 -139c0 -10.667 -3.33301 -19.167 -10 -25.5s-15.334 -9.5 -26.001 -9.5h-404c5.33301 -54.667 26.666 -99 63.999 -133s84 -51 140 -51c24 0 48.167 4.16699 72.5 12.5s43.833 18.833 58.5 31.5
c8.66699 6.66699 17.667 10 27 10c7.33301 0 14.666 -2.66699 21.999 -8c8.66699 -8 13 -17 13 -27c0 -8.66699 -3.66699 -16.334 -11 -23.001c-22 -18.667 -50 -34.167 -84 -46.5s-66.667 -18.5 -98 -18.5c-53.333 0 -101 11.833 -143 35.5s-74.833 56.667 -98.5 99
s-35.5 90.166 -35.5 143.499c0 54 11.167 102.167 33.5 144.5s53.333 75.333 93 99s84.834 35.5 135.501 35.5c49.333 0 93 -11.5 131 -34.5zM197.002 436.002c-33.333 -31.333 -53.667 -72.666 -61 -123.999h366c-5.33301 51.333 -24 92.666 -56 123.999s-73 47 -123 47
c-50.667 0 -92.667 -15.667 -126 -47zM168.001 786.002c0 11.333 3.66602 20.833 10.999 28.5s16.333 11.5 27 11.5s20 -4 28 -12l112 -113c6.66699 -6 10 -14.333 10 -25c0 -11.333 -3.66699 -20.833 -11 -28.5s-16.666 -11.5 -27.999 -11.5c-10 0 -18.667 3.66699 -26 11
l-113 112c-6.66699 6.66699 -10 15.667 -10 27z" />
    <glyph glyph-name="eacute" unicode="&#xe9;" horiz-adv-x="614" 
d="M454 517.5c38 -23 67.502 -54.8311 88.502 -95.498s31.5 -87 31.5 -139c0 -10.667 -3.33301 -19.167 -10 -25.5s-15.334 -9.5 -26.001 -9.5h-404c5.33301 -54.667 26.666 -99 63.999 -133s84 -51 140 -51c24 0 48.167 4.16699 72.5 12.5s43.833 18.833 58.5 31.5
c8.66699 6.66699 17.667 10 27 10c7.33301 0 14.666 -2.66699 21.999 -8c8.66699 -8 13 -17 13 -27c0 -8.66699 -3.66699 -16.334 -11 -23.001c-22 -18.667 -50 -34.167 -84 -46.5s-66.667 -18.5 -98 -18.5c-53.333 0 -101 11.833 -143 35.5s-74.833 56.667 -98.5 99
s-35.5 90.166 -35.5 143.499c0 54 11.167 102.167 33.5 144.5s53.333 75.333 93 99s84.834 35.5 135.501 35.5c49.333 0 93 -11.5 131 -34.5zM197.002 436.002c-33.333 -31.333 -53.667 -72.666 -61 -123.999h366c-5.33301 51.333 -24 92.666 -56 123.999s-73 47 -123 47
c-50.667 0 -92.667 -15.667 -126 -47zM421.001 819.002c11.333 0 20.667 -3.83398 28 -11.501s11 -17.167 11 -28.5c0 -10.667 -3.66699 -19.334 -11 -26.001l-112 -113c-6.66699 -6.66699 -15.334 -10 -26.001 -10c-11.333 0 -20.666 3.83301 -27.999 11.5
s-11 16.834 -11 27.501s3 19.334 9 26.001l113 113c7.33301 7.33301 16.333 11 27 11z" />
    <glyph glyph-name="ecircumflex" unicode="&#xea;" horiz-adv-x="614" 
d="M454 517.5c38 -23 67.502 -54.8311 88.502 -95.498s31.5 -87 31.5 -139c0 -10.667 -3.33301 -19.167 -10 -25.5s-15.334 -9.5 -26.001 -9.5h-404c5.33301 -54.667 26.666 -99 63.999 -133s84 -51 140 -51c24 0 48.167 4.16699 72.5 12.5s43.833 18.833 58.5 31.5
c8.66699 6.66699 17.667 10 27 10c7.33301 0 14.666 -2.66699 21.999 -8c8.66699 -8 13 -17 13 -27c0 -8.66699 -3.66699 -16.334 -11 -23.001c-22 -18.667 -50 -34.167 -84 -46.5s-66.667 -18.5 -98 -18.5c-53.333 0 -101 11.833 -143 35.5s-74.833 56.667 -98.5 99
s-35.5 90.166 -35.5 143.499c0 54 11.167 102.167 33.5 144.5s53.333 75.333 93 99s84.834 35.5 135.501 35.5c49.333 0 93 -11.5 131 -34.5zM197.002 436.002c-33.333 -31.333 -53.667 -72.666 -61 -123.999h366c-5.33301 51.333 -24 92.666 -56 123.999s-73 47 -123 47
c-50.667 0 -92.667 -15.667 -126 -47zM202.001 634.002c-11.333 0 -20.834 3.16699 -28.501 9.5s-11.5 14.833 -11.5 25.5c0 14 6.33301 25.333 19 34l118 78c5.33301 3.33301 11.666 5 18.999 5c6.66699 0 13.334 -1.66699 20.001 -5l117 -78
c12.667 -8.66699 19 -20 19 -34c0 -10 -3.66699 -18.333 -11 -25s-16.666 -10 -27.999 -10c-7.33301 0 -15.333 2.66699 -24 8l-93 64l-93 -64c-7.33301 -5.33301 -15 -8 -23 -8z" />
    <glyph glyph-name="edieresis" unicode="&#xeb;" horiz-adv-x="614" 
d="M454 517.5c38 -23 67.502 -54.8311 88.502 -95.498s31.5 -87 31.5 -139c0 -10.667 -3.33301 -19.167 -10 -25.5s-15.334 -9.5 -26.001 -9.5h-404c5.33301 -54.667 26.666 -99 63.999 -133s84 -51 140 -51c24 0 48.167 4.16699 72.5 12.5s43.833 18.833 58.5 31.5
c8.66699 6.66699 17.667 10 27 10c7.33301 0 14.666 -2.66699 21.999 -8c8.66699 -8 13 -17 13 -27c0 -8.66699 -3.66699 -16.334 -11 -23.001c-22 -18.667 -50 -34.167 -84 -46.5s-66.667 -18.5 -98 -18.5c-53.333 0 -101 11.833 -143 35.5s-74.833 56.667 -98.5 99
s-35.5 90.166 -35.5 143.499c0 54 11.167 102.167 33.5 144.5s53.333 75.333 93 99s84.834 35.5 135.501 35.5c49.333 0 93 -11.5 131 -34.5zM197.002 436.002c-33.333 -31.333 -53.667 -72.666 -61 -123.999h366c-5.33301 51.333 -24 92.666 -56 123.999s-73 47 -123 47
c-50.667 0 -92.667 -15.667 -126 -47zM253.001 741.002c10.667 -10.667 16 -23.667 16 -39s-5.33301 -28.333 -16 -39s-23.667 -16 -39 -16s-28.333 5.33301 -39 16s-16 23.667 -16 39s5.33301 28.333 16 39s23.667 16 39 16s28.333 -5.33301 39 -16zM462.001 741.002
c10.667 -10.667 16 -23.667 16 -39s-5.33301 -28.333 -16 -39s-23.667 -16 -39 -16s-28.333 5.33301 -39 16s-16 23.667 -16 39s5.33301 28.333 16 39s23.667 16 39 16s28.333 -5.33301 39 -16z" />
    <glyph glyph-name="igrave" unicode="&#xec;" horiz-adv-x="289" 
d="M117 536c7.33301 7.33301 16.666 11 27.999 11s20.5 -3.66699 27.5 -11s10.5 -16.666 10.5 -27.999v-469c0 -11.333 -3.5 -20.666 -10.5 -27.999s-16.167 -11 -27.5 -11s-20.666 3.66699 -27.999 11s-11 16.666 -11 27.999v469c0 11.333 3.66699 20.666 11 27.999z
M-5 786c0 11.333 3.66602 20.833 10.999 28.5s16.333 11.5 27 11.5s20 -4 28 -12l112 -113c6.66699 -6 10 -14.333 10 -25c0 -11.333 -3.66699 -20.833 -11 -28.5s-16.666 -11.5 -27.999 -11.5c-10 0 -18.667 3.66699 -26 11l-113 112c-6.66699 6.66699 -10 15.667 -10 27z
" />
    <glyph glyph-name="iacute" unicode="&#xed;" horiz-adv-x="289" 
d="M117 536c7.33301 7.33301 16.666 11 27.999 11s20.5 -3.66699 27.5 -11s10.5 -16.666 10.5 -27.999v-469c0 -11.333 -3.5 -20.666 -10.5 -27.999s-16.167 -11 -27.5 -11s-20.666 3.66699 -27.999 11s-11 16.666 -11 27.999v469c0 11.333 3.66699 20.666 11 27.999z
M248 819c11.333 0 20.667 -3.83398 28 -11.501s11 -17.167 11 -28.5c0 -10.667 -3.66699 -19.334 -11 -26.001l-112 -113c-6.66699 -6.66699 -15.334 -10 -26.001 -10c-11.333 0 -20.666 3.83301 -27.999 11.5s-11 16.834 -11 27.501s3 19.334 9 26.001l113 113
c7.33301 7.33301 16.333 11 27 11z" />
    <glyph glyph-name="icircumflex" unicode="&#xee;" horiz-adv-x="289" 
d="M117 536c7.33301 7.33301 16.666 11 27.999 11s20.5 -3.66699 27.5 -11s10.5 -16.666 10.5 -27.999v-469c0 -11.333 -3.5 -20.666 -10.5 -27.999s-16.167 -11 -27.5 -11s-20.666 3.66699 -27.999 11s-11 16.666 -11 27.999v469c0 11.333 3.66699 20.666 11 27.999z
M40.4111 634c-10.1992 0 -18.75 3.16699 -25.6494 9.5s-10.3496 14.833 -10.3496 25.5c0 14 5.7002 25.333 17.0996 34l106.195 78c4.7998 3.33301 10.5 5 17.1006 5c5.99902 0 11.999 -1.66699 17.999 -5l105.296 -78c11.3994 -8.66699 17.0986 -20 17.0986 -34
c0 -10 -3.2998 -18.333 -9.89941 -25s-14.999 -10 -25.1992 -10c-6.59961 0 -13.7988 2.66699 -21.5986 8l-83.6963 64l-83.6973 -64c-6.59961 -5.33301 -13.499 -8 -20.6992 -8z" />
    <glyph glyph-name="idieresis" unicode="&#xef;" horiz-adv-x="289" 
d="M88.5 764c11 -10.667 16.5 -23.334 16.5 -38.001c0 -15.333 -5.33301 -28.5 -16 -39.5s-23.667 -16.5 -39 -16.5s-28.5 5.5 -39.5 16.5s-16.5 24.167 -16.5 39.5c0 14.667 5.5 27.334 16.5 38.001s24.167 16 39.5 16c14.667 0 27.5 -5.33301 38.5 -16zM277.5 764
c11 -10.667 16.5 -23.334 16.5 -38.001c0 -15.333 -5.33301 -28.5 -16 -39.5s-23.667 -16.5 -39 -16.5s-28.333 5.5 -39 16.5s-16 24.167 -16 39.5c0 14.667 5.33301 27.334 16 38.001s23.667 16 39 16c14.667 0 27.5 -5.33301 38.5 -16zM117 536
c7.33301 7.33301 16.666 11 27.999 11s20.5 -3.66699 27.5 -11s10.5 -16.666 10.5 -27.999v-469c0 -11.333 -3.5 -20.666 -10.5 -27.999s-16.167 -11 -27.5 -11s-20.666 3.66699 -27.999 11s-11 16.666 -11 27.999v469c0 11.333 3.66699 20.666 11 27.999z" />
    <glyph glyph-name="eth" unicode="&#xf0;" horiz-adv-x="667" 
d="M497 650c34.667 -35.333 59.8301 -76.832 75.4971 -124.499s23.834 -104.5 24.501 -170.5v-82c0 -53.333 -11.667 -101.166 -35 -143.499s-55.333 -75.333 -96 -99s-87 -35.5 -139 -35.5c-51.333 0 -97.166 11.167 -137.499 33.5s-71.833 53.5 -94.5 93.5
s-34 85.333 -34 136c0 50 11 94.833 33 134.5s52.5 70.5 91.5 92.5s83.5 33 133.5 33c50.667 0 95.167 -12.667 133.5 -38s66.5 -59.666 84.5 -102.999c-4 80.667 -21.833 144.667 -53.5 192s-83.5 87.666 -155.5 120.999l-35 -69c-4.66699 -10 -12.334 -15 -23.001 -15
c-5.33301 0 -10.333 1.33301 -15 4c-10 5.33301 -15 12.666 -15 21.999c0 4.66699 1.33301 9.33398 4 14.001l33 65c-10.667 4.66699 -28 11 -52 19c-22 8 -33 19 -33 33c0 2 0.666992 5.66699 2 11c4.66699 13.333 14.334 20 29.001 20c4.66699 0 11.667 -1.33301 21 -4
c14.667 -4.66699 35.334 -12.334 62.001 -23.001l28 56c4.66699 10.667 12 16 22 16c5.33301 0 10.333 -1.33301 15 -4c10.667 -6 16 -13.667 16 -23c0 -2.66699 -1.33301 -7.33398 -4 -14.001l-27 -53c59.333 -28 106.333 -59.667 141 -95zM427.496 89.501
c29.667 16.333 52.834 39.166 69.501 68.499s25 62.666 25 99.999c0 36.667 -8.33301 69.5 -25 98.5s-39.834 51.5 -69.501 67.5s-63.167 24 -100.5 24c-36.667 0 -69.5 -8 -98.5 -24s-51.667 -38.5 -68 -67.5s-24.5 -61.833 -24.5 -98.5
c0 -37.333 8.16699 -70.666 24.5 -99.999s39 -52.166 68 -68.499s61.833 -24.5 98.5 -24.5c37.333 0 70.833 8.16699 100.5 24.5z" />
    <glyph glyph-name="ntilde" unicode="&#xf1;" 
d="M476.5 523c37.667 -20 67.165 -49.1689 88.498 -87.502s32 -84.166 32 -137.499v-260c0 -10.667 -3.66699 -19.667 -11 -27s-16.333 -11 -27 -11c-11.333 0 -20.666 3.66699 -27.999 11s-11 16.333 -11 27v260c0 59.333 -16.5 104.5 -49.5 135.5
s-76.167 46.5 -129.5 46.5c-32.667 0 -62.167 -6.33301 -88.5 -19s-47.166 -30.167 -62.499 -52.5s-23 -47.166 -23 -74.499v-296c0 -11.333 -3.5 -20.5 -10.5 -27.5s-16.167 -10.5 -27.5 -10.5s-20.666 3.5 -27.999 10.5s-11 16.167 -11 27.5v470
c0 11.333 3.66699 20.666 11 27.999s16.666 11 27.999 11s20.5 -3.66699 27.5 -11s10.5 -16.666 10.5 -27.999v-34c22 24.667 48.667 44 80 58s65.333 21 102 21c47.333 0 89.833 -10 127.5 -30zM335.998 741.998c13.333 -5.33301 28.6709 -13.335 46.0039 -24.002
c15.333 -9.33301 26.833 -15.666 34.5 -18.999s16.5 -5 26.5 -5c20.667 0 37 6.66699 49 20c10 11.333 20.333 17 31 17c5.33301 0 10.666 -1.66699 15.999 -5c12 -6 18 -15.333 18 -28c0 -7.33301 -2.66699 -14.666 -8 -21.999c-26.667 -32.667 -61.667 -49 -105 -49
c-18.667 0 -35.334 3 -50.001 9s-30.334 14 -47.001 24c-14 8.66699 -25.333 14.667 -34 18s-17.334 5 -26.001 5c-24.667 0 -46.667 -11.667 -66 -35c-4 -6 -9 -10.667 -15 -14s-12 -5 -18 -5s-11.667 1.66699 -17 5c-4.66699 2.66699 -8.5 6.5 -11.5 11.5
s-4.5 10.167 -4.5 15.5c0 8 2.33301 15.333 7 22c16.667 21.333 36 37.833 58 49.5s45 17.5 69 17.5c18 0 33.667 -2.66699 47 -8z" />
    <glyph glyph-name="ograve" unicode="&#xf2;" 
d="M481 516c42 -24 75.167 -57.333 99.5 -100s36.5 -90.334 36.5 -143.001s-12 -100.167 -36 -142.5s-57.167 -75.5 -99.5 -99.5s-89.833 -36 -142.5 -36s-100.167 12 -142.5 36s-75.5 57.167 -99.5 99.5s-36 89.833 -36 142.5s12 100.334 36 143.001s57.167 76 99.5 100
s89.833 36 142.5 36s100 -12 142 -36zM235.5 455c-31 -18 -55.333 -42.833 -73 -74.5s-26.5 -67.5 -26.5 -107.5c0 -39.333 8.83301 -74.833 26.5 -106.5s42 -56.5 73 -74.5s65.5 -27 103.5 -27c38.667 0 73.334 9 104.001 27s54.667 42.833 72 74.5s26 67.167 26 106.5
c0 40 -8.66699 75.833 -26 107.5s-41.333 56.5 -72 74.5s-65.334 27 -104.001 27c-38 0 -72.5 -9 -103.5 -27zM189 786c0 11.333 3.66602 20.833 10.999 28.5s16.333 11.5 27 11.5s20 -4 28 -12l112 -113c6.66699 -6 10 -14.333 10 -25
c0 -11.333 -3.66699 -20.833 -11 -28.5s-16.666 -11.5 -27.999 -11.5c-10 0 -18.667 3.66699 -26 11l-113 112c-6.66699 6.66699 -10 15.667 -10 27z" />
    <glyph glyph-name="oacute" unicode="&#xf3;" 
d="M481 516c42 -24 75.167 -57.333 99.5 -100s36.5 -90.334 36.5 -143.001s-12 -100.167 -36 -142.5s-57.167 -75.5 -99.5 -99.5s-89.833 -36 -142.5 -36s-100.167 12 -142.5 36s-75.5 57.167 -99.5 99.5s-36 89.833 -36 142.5s12 100.334 36 143.001s57.167 76 99.5 100
s89.833 36 142.5 36s100 -12 142 -36zM235.5 455c-31 -18 -55.333 -42.833 -73 -74.5s-26.5 -67.5 -26.5 -107.5c0 -39.333 8.83301 -74.833 26.5 -106.5s42 -56.5 73 -74.5s65.5 -27 103.5 -27c38.667 0 73.334 9 104.001 27s54.667 42.833 72 74.5s26 67.167 26 106.5
c0 40 -8.66699 75.833 -26 107.5s-41.333 56.5 -72 74.5s-65.334 27 -104.001 27c-38 0 -72.5 -9 -103.5 -27zM442 819c11.333 0 20.667 -3.83398 28 -11.501s11 -17.167 11 -28.5c0 -10.667 -3.66699 -19.334 -11 -26.001l-112 -113
c-6.66699 -6.66699 -15.334 -10 -26.001 -10c-11.333 0 -20.666 3.83301 -27.999 11.5s-11 16.834 -11 27.501s3 19.334 9 26.001l113 113c7.33301 7.33301 16.333 11 27 11z" />
    <glyph glyph-name="ocircumflex" unicode="&#xf4;" 
d="M481 516c42 -24 75.167 -57.333 99.5 -100s36.5 -90.334 36.5 -143.001s-12 -100.167 -36 -142.5s-57.167 -75.5 -99.5 -99.5s-89.833 -36 -142.5 -36s-100.167 12 -142.5 36s-75.5 57.167 -99.5 99.5s-36 89.833 -36 142.5s12 100.334 36 143.001s57.167 76 99.5 100
s89.833 36 142.5 36s100 -12 142 -36zM235.5 455c-31 -18 -55.333 -42.833 -73 -74.5s-26.5 -67.5 -26.5 -107.5c0 -39.333 8.83301 -74.833 26.5 -106.5s42 -56.5 73 -74.5s65.5 -27 103.5 -27c38.667 0 73.334 9 104.001 27s54.667 42.833 72 74.5s26 67.167 26 106.5
c0 40 -8.66699 75.833 -26 107.5s-41.333 56.5 -72 74.5s-65.334 27 -104.001 27c-38 0 -72.5 -9 -103.5 -27zM223 634c-11.333 0 -20.834 3.16699 -28.501 9.5s-11.5 14.833 -11.5 25.5c0 14 6.33301 25.333 19 34l118 78c5.33301 3.33301 11.666 5 18.999 5
c6.66699 0 13.334 -1.66699 20.001 -5l117 -78c12.667 -8.66699 19 -20 19 -34c0 -10 -3.66699 -18.333 -11 -25s-16.666 -10 -27.999 -10c-7.33301 0 -15.333 2.66699 -24 8l-93 64l-93 -64c-7.33301 -5.33301 -15 -8 -23 -8z" />
    <glyph glyph-name="otilde" unicode="&#xf5;" 
d="M481 516c42 -24 75.167 -57.333 99.5 -100s36.5 -90.334 36.5 -143.001s-12 -100.167 -36 -142.5s-57.167 -75.5 -99.5 -99.5s-89.833 -36 -142.5 -36s-100.167 12 -142.5 36s-75.5 57.167 -99.5 99.5s-36 89.833 -36 142.5s12 100.334 36 143.001s57.167 76 99.5 100
s89.833 36 142.5 36s100 -12 142 -36zM235.5 455c-31 -18 -55.333 -42.833 -73 -74.5s-26.5 -67.5 -26.5 -107.5c0 -39.333 8.83301 -74.833 26.5 -106.5s42 -56.5 73 -74.5s65.5 -27 103.5 -27c38.667 0 73.334 9 104.001 27s54.667 42.833 72 74.5s26 67.167 26 106.5
c0 40 -8.66699 75.833 -26 107.5s-41.333 56.5 -72 74.5s-65.334 27 -104.001 27c-38 0 -72.5 -9 -103.5 -27zM336 742c13.333 -5.33301 28.6709 -13.335 46.0039 -24.002c15.333 -9.33301 26.833 -15.666 34.5 -18.999s16.5 -5 26.5 -5c20.667 0 37 6.66699 49 20
c10 11.333 20.333 17 31 17c5.33301 0 10.666 -1.66699 15.999 -5c12 -6 18 -15.333 18 -28c0 -7.33301 -2.66699 -14.666 -8 -21.999c-26.667 -32.667 -61.667 -49 -105 -49c-18.667 0 -35.334 3 -50.001 9s-30.334 14 -47.001 24c-14 8.66699 -25.333 14.667 -34 18
s-17.334 5 -26.001 5c-24.667 0 -46.667 -11.667 -66 -35c-4 -6 -9 -10.667 -15 -14s-12 -5 -18 -5s-11.667 1.66699 -17 5c-4.66699 2.66699 -8.5 6.5 -11.5 11.5s-4.5 10.167 -4.5 15.5c0 8 2.33301 15.333 7 22c16.667 21.333 36 37.833 58 49.5s45 17.5 69 17.5
c18 0 33.667 -2.66699 47 -8z" />
    <glyph glyph-name="odieresis" unicode="&#xf6;" 
d="M481 516c42 -24 75.167 -57.333 99.5 -100s36.5 -90.334 36.5 -143.001s-12 -100.167 -36 -142.5s-57.167 -75.5 -99.5 -99.5s-89.833 -36 -142.5 -36s-100.167 12 -142.5 36s-75.5 57.167 -99.5 99.5s-36 89.833 -36 142.5s12 100.334 36 143.001s57.167 76 99.5 100
s89.833 36 142.5 36s100 -12 142 -36zM235.5 455c-31 -18 -55.333 -42.833 -73 -74.5s-26.5 -67.5 -26.5 -107.5c0 -39.333 8.83301 -74.833 26.5 -106.5s42 -56.5 73 -74.5s65.5 -27 103.5 -27c38.667 0 73.334 9 104.001 27s54.667 42.833 72 74.5s26 67.167 26 106.5
c0 40 -8.66699 75.833 -26 107.5s-41.333 56.5 -72 74.5s-65.334 27 -104.001 27c-38 0 -72.5 -9 -103.5 -27zM274 741c10.667 -10.667 16 -23.667 16 -39s-5.33301 -28.333 -16 -39s-23.667 -16 -39 -16s-28.333 5.33301 -39 16s-16 23.667 -16 39s5.33301 28.333 16 39
s23.667 16 39 16s28.333 -5.33301 39 -16zM483 741c10.667 -10.667 16 -23.667 16 -39s-5.33301 -28.333 -16 -39s-23.667 -16 -39 -16s-28.333 5.33301 -39 16s-16 23.667 -16 39s5.33301 28.333 16 39s23.667 16 39 16s28.333 -5.33301 39 -16z" />
    <glyph glyph-name="divide" unicode="&#xf7;" horiz-adv-x="469" 
d="M268 532.5c9.33301 -9.66699 14.001 -21.167 14.001 -34.5s-4.5 -24.666 -13.5 -33.999s-20.5 -14 -34.5 -14c-13.333 0 -24.833 4.66699 -34.5 14s-14.5 20.666 -14.5 33.999s4.83301 24.833 14.5 34.5s21.167 14.5 34.5 14.5s24.666 -4.83301 33.999 -14.5z
M419.001 379c7.33301 -7.33301 11 -16.333 11 -27c0 -11.333 -3.66699 -20.666 -11 -27.999s-16.666 -11 -27.999 -11h-313c-11.333 0 -20.666 3.66699 -27.999 11s-11 16.666 -11 27.999c0 10.667 3.66699 19.667 11 27s16.666 11 27.999 11h313
c11.333 0 20.666 -3.66699 27.999 -11zM268.001 239.5c9.33301 -9.66699 14.001 -21.167 14.001 -34.5c0 -14 -4.5 -25.667 -13.5 -35s-20.5 -14 -34.5 -14c-13.333 0 -24.833 4.83301 -34.5 14.5s-14.5 21.167 -14.5 34.5s4.83301 24.833 14.5 34.5s21.167 14.5 34.5 14.5
s24.666 -4.83301 33.999 -14.5z" />
    <glyph glyph-name="oslash" unicode="&#xf8;" horiz-adv-x="700" 
d="M578 444c18 -23.333 31.834 -49.832 41.501 -79.499s14.5 -60.834 14.5 -93.501c0 -52.667 -12 -100.167 -36 -142.5s-57.167 -75.5 -99.5 -99.5s-89.833 -36 -142.5 -36c-68.667 0 -128.334 20 -179.001 60l-63 -63c-6 -6 -13.333 -9 -22 -9s-16 3.16699 -22 9.5
s-9 13.5 -9 21.5s3 15 9 21l64 64c-37.333 50 -56 108 -56 174c0 52.667 12 100.334 36 143.001s57.167 76 99.5 100s89.833 36 142.5 36c34.667 0 67.167 -5.16699 97.5 -15.5s57.5 -25.5 81.5 -45.5l51 50c5.33301 6.66699 13 10 23 10c9.33301 0 16.5 -3.16699 21.5 -9.5
s7.5 -13.833 7.5 -22.5s-2.33301 -15.334 -7 -20.001zM252.501 453.001c-31 -18 -55.333 -42.833 -73 -74.5s-26.5 -67.5 -26.5 -107.5c0 -48.667 13 -90.667 39 -126l292 291c-35.333 29.333 -78 44 -128 44c-38 0 -72.5 -9 -103.5 -27zM460.001 90.001
c30.667 18 54.666 42.834 71.999 74.501s26 67.167 26 106.5c0 45.333 -11.333 85.666 -34 120.999l-291 -289c36 -26.667 77 -40 123 -40c38.667 0 73.334 9 104.001 27z" />
    <glyph glyph-name="ugrave" unicode="&#xf9;" 
d="M576 536.5c7.33301 -7 11.002 -16.165 11.002 -27.498v-470c0 -11.333 -3.66699 -20.666 -11 -27.999s-16.666 -11 -27.999 -11s-20.5 3.66699 -27.5 11s-10.5 16.666 -10.5 27.999v34c-22 -24.667 -48.667 -44 -80 -58s-65.333 -21 -102 -21
c-47.333 0 -89.833 10 -127.5 30s-67.167 49.167 -88.5 87.5s-32 84.166 -32 137.499v260c0 10.667 3.66699 19.667 11 27s16.333 11 27 11c11.333 0 20.666 -3.66699 27.999 -11s11 -16.333 11 -27v-260c0 -59.333 16.5 -104.5 49.5 -135.5s76.167 -46.5 129.5 -46.5
c32.667 0 62.167 6.33301 88.5 19s47.166 30.167 62.499 52.5s23 47.166 23 74.499v296c0 11.333 3.5 20.5 10.5 27.5s16.167 10.5 27.5 10.5s20.666 -3.5 27.999 -10.5zM189.002 786.002c0 11.333 3.66602 20.833 10.999 28.5s16.333 11.5 27 11.5s20 -4 28 -12l112 -113
c6.66699 -6 10 -14.333 10 -25c0 -11.333 -3.66699 -20.833 -11 -28.5s-16.666 -11.5 -27.999 -11.5c-10 0 -18.667 3.66699 -26 11l-113 112c-6.66699 6.66699 -10 15.667 -10 27z" />
    <glyph glyph-name="uacute" unicode="&#xfa;" 
d="M576 536.5c7.33301 -7 11.002 -16.165 11.002 -27.498v-470c0 -11.333 -3.66699 -20.666 -11 -27.999s-16.666 -11 -27.999 -11s-20.5 3.66699 -27.5 11s-10.5 16.666 -10.5 27.999v34c-22 -24.667 -48.667 -44 -80 -58s-65.333 -21 -102 -21
c-47.333 0 -89.833 10 -127.5 30s-67.167 49.167 -88.5 87.5s-32 84.166 -32 137.499v260c0 10.667 3.66699 19.667 11 27s16.333 11 27 11c11.333 0 20.666 -3.66699 27.999 -11s11 -16.333 11 -27v-260c0 -59.333 16.5 -104.5 49.5 -135.5s76.167 -46.5 129.5 -46.5
c32.667 0 62.167 6.33301 88.5 19s47.166 30.167 62.499 52.5s23 47.166 23 74.499v296c0 11.333 3.5 20.5 10.5 27.5s16.167 10.5 27.5 10.5s20.666 -3.5 27.999 -10.5zM442.002 819.002c11.333 0 20.667 -3.83398 28 -11.501s11 -17.167 11 -28.5
c0 -10.667 -3.66699 -19.334 -11 -26.001l-112 -113c-6.66699 -6.66699 -15.334 -10 -26.001 -10c-11.333 0 -20.666 3.83301 -27.999 11.5s-11 16.834 -11 27.501s3 19.334 9 26.001l113 113c7.33301 7.33301 16.333 11 27 11z" />
    <glyph glyph-name="ucircumflex" unicode="&#xfb;" 
d="M576 536.5c7.33301 -7 11.002 -16.165 11.002 -27.498v-470c0 -11.333 -3.66699 -20.666 -11 -27.999s-16.666 -11 -27.999 -11s-20.5 3.66699 -27.5 11s-10.5 16.666 -10.5 27.999v34c-22 -24.667 -48.667 -44 -80 -58s-65.333 -21 -102 -21
c-47.333 0 -89.833 10 -127.5 30s-67.167 49.167 -88.5 87.5s-32 84.166 -32 137.499v260c0 10.667 3.66699 19.667 11 27s16.333 11 27 11c11.333 0 20.666 -3.66699 27.999 -11s11 -16.333 11 -27v-260c0 -59.333 16.5 -104.5 49.5 -135.5s76.167 -46.5 129.5 -46.5
c32.667 0 62.167 6.33301 88.5 19s47.166 30.167 62.499 52.5s23 47.166 23 74.499v296c0 11.333 3.5 20.5 10.5 27.5s16.167 10.5 27.5 10.5s20.666 -3.5 27.999 -10.5zM223.002 634.002c-11.333 0 -20.834 3.16699 -28.501 9.5s-11.5 14.833 -11.5 25.5
c0 14 6.33301 25.333 19 34l118 78c5.33301 3.33301 11.666 5 18.999 5c6.66699 0 13.334 -1.66699 20.001 -5l117 -78c12.667 -8.66699 19 -20 19 -34c0 -10 -3.66699 -18.333 -11 -25s-16.666 -10 -27.999 -10c-7.33301 0 -15.333 2.66699 -24 8l-93 64l-93 -64
c-7.33301 -5.33301 -15 -8 -23 -8z" />
    <glyph glyph-name="udieresis" unicode="&#xfc;" 
d="M576 536.5c7.33301 -7 11.002 -16.165 11.002 -27.498v-470c0 -11.333 -3.66699 -20.666 -11 -27.999s-16.666 -11 -27.999 -11s-20.5 3.66699 -27.5 11s-10.5 16.666 -10.5 27.999v34c-22 -24.667 -48.667 -44 -80 -58s-65.333 -21 -102 -21
c-47.333 0 -89.833 10 -127.5 30s-67.167 49.167 -88.5 87.5s-32 84.166 -32 137.499v260c0 10.667 3.66699 19.667 11 27s16.333 11 27 11c11.333 0 20.666 -3.66699 27.999 -11s11 -16.333 11 -27v-260c0 -59.333 16.5 -104.5 49.5 -135.5s76.167 -46.5 129.5 -46.5
c32.667 0 62.167 6.33301 88.5 19s47.166 30.167 62.499 52.5s23 47.166 23 74.499v296c0 11.333 3.5 20.5 10.5 27.5s16.167 10.5 27.5 10.5s20.666 -3.5 27.999 -10.5zM274.002 741.002c10.667 -10.667 16 -23.667 16 -39s-5.33301 -28.333 -16 -39s-23.667 -16 -39 -16
s-28.333 5.33301 -39 16s-16 23.667 -16 39s5.33301 28.333 16 39s23.667 16 39 16s28.333 -5.33301 39 -16zM483.002 741.002c10.667 -10.667 16 -23.667 16 -39s-5.33301 -28.333 -16 -39s-23.667 -16 -39 -16s-28.333 5.33301 -39 16s-16 23.667 -16 39
s5.33301 28.333 16 39s23.667 16 39 16s28.333 -5.33301 39 -16z" />
    <glyph glyph-name="yacute" unicode="&#xfd;" horiz-adv-x="548" 
d="M541 515c0 -6 -1.33301 -12 -4 -18l-324 -712c-6 -15.333 -15.667 -23 -29 -23c-6.66699 0 -12.667 1.33301 -18 4c-15.333 6 -23 16 -23 30c0 6 1.33301 12 4 18l99 219v1l-223 462c-2.66699 5.33301 -4 11.333 -4 18c0 14 7.33301 24 22 30
c5.33301 2.66699 11.333 4 18 4c14 0 24 -7 30 -21l195 -411l186 410c6.66699 14.667 16.667 22 30 22c6 0 12 -1.33301 18 -4c15.333 -6 23 -15.667 23 -29zM384 819c11.333 0 20.667 -3.83398 28 -11.501s11 -17.167 11 -28.5c0 -10.667 -3.66699 -19.334 -11 -26.001
l-112 -113c-6.66699 -6.66699 -15.334 -10 -26.001 -10c-11.333 0 -20.666 3.83301 -27.999 11.5s-11 16.834 -11 27.501s3 19.334 9 26.001l113 113c7.33301 7.33301 16.333 11 27 11z" />
    <glyph glyph-name="thorn" unicode="&#xfe;" horiz-adv-x="707" 
d="M514.5 516.5c41 -23.667 73.167 -56.667 96.5 -99s35 -90.5 35 -144.5c0 -53.333 -11.5 -101.166 -34.5 -143.499s-55 -75.333 -96 -99s-87.5 -35.5 -139.5 -35.5c-46.667 0 -88.167 10.667 -124.5 32s-64.5 50.666 -84.5 87.999v-310
c0.666992 -11.333 -2.66602 -20.666 -9.99902 -27.999s-16.666 -11 -27.999 -11s-20.666 3.66699 -27.999 11s-11 16.666 -11 27.999v937c0 11.333 3.66699 20.666 11 27.999s16.666 11 27.999 11s20.666 -3.66699 27.999 -11s10.666 -16.666 9.99902 -27.999l-4 -314
c21.333 40 51.333 70.667 90 92s79.667 32 123 32c51.333 0 97.5 -11.833 138.5 -35.5zM472 91.5c30.667 17.667 54.667 42.334 72 74.001s26 67.5 26 107.5s-8.66699 75.833 -26 107.5s-41.333 56.5 -72 74.5s-65.667 27 -105 27c-38.667 0 -73.334 -9 -104.001 -27
s-54.5 -42.833 -71.5 -74.5s-25.5 -67.5 -25.5 -107.5s8.5 -75.833 25.5 -107.5s40.833 -56.334 71.5 -74.001s65.334 -26.5 104.001 -26.5c39.333 0 74.333 8.83301 105 26.5z" />
    <glyph glyph-name="ydieresis" unicode="&#xff;" horiz-adv-x="548" 
d="M541 515c0 -6 -1.33301 -12 -4 -18l-324 -712c-6 -15.333 -15.667 -23 -29 -23c-6.66699 0 -12.667 1.33301 -18 4c-15.333 6 -23 16 -23 30c0 6 1.33301 12 4 18l99 219v1l-223 462c-2.66699 5.33301 -4 11.333 -4 18c0 14 7.33301 24 22 30
c5.33301 2.66699 11.333 4 18 4c14 0 24 -7 30 -21l195 -411l186 410c6.66699 14.667 16.667 22 30 22c6 0 12 -1.33301 18 -4c15.333 -6 23 -15.667 23 -29zM216 741c10.667 -10.667 16 -23.667 16 -39s-5.33301 -28.333 -16 -39s-23.667 -16 -39 -16
s-28.333 5.33301 -39 16s-16 23.667 -16 39s5.33301 28.333 16 39s23.667 16 39 16s28.333 -5.33301 39 -16zM425 741c10.667 -10.667 16 -23.667 16 -39s-5.33301 -28.333 -16 -39s-23.667 -16 -39 -16s-28.333 5.33301 -39 16s-16 23.667 -16 39s5.33301 28.333 16 39
s23.667 16 39 16s28.333 -5.33301 39 -16z" />
    <glyph glyph-name="Amacron" unicode="&#x100;" horiz-adv-x="703" 
d="M690 39c0 -10.667 -3.83301 -19.835 -11.5 -27.502s-16.834 -11.5 -27.501 -11.5c-17.333 0 -29.666 8 -36.999 24l-67 162h-387l-67 -162c-5.33301 -16 -17.333 -24 -36 -24c-11.333 0 -20.5 3.83301 -27.5 11.5s-10.5 16.834 -10.5 27.501c0 6.66699 1 12.334 3 17.001
l294 698c7.33301 18 20 27 38 27s30.333 -9 37 -27l295 -699c2.66699 -4.66699 4 -10 4 -16zM520 252.999l-166 401l-166 -401h332zM508.5 951.999c7.66699 -6.66699 11.5 -15.334 11.5 -26.001s-3.83301 -19.334 -11.5 -26.001s-16.834 -10 -27.501 -10h-259
c-11.333 0 -20.666 3.33301 -27.999 10s-11 15.334 -11 26.001s3.66699 19.334 11 26.001s16.666 10 27.999 10h259c10.667 0 19.834 -3.33301 27.501 -10z" />
    <glyph glyph-name="amacron" unicode="&#x101;" 
d="M480.5 515.5c42.333 -24.333 75.666 -57.832 99.999 -100.499s36.5 -90 36.5 -142v-235c0 -10.667 -3.66699 -19.667 -11 -27s-16.666 -11 -27.999 -11s-20.666 3.5 -27.999 10.5s-11 16.167 -11 27.5v60c-23.333 -32 -53 -57.167 -89 -75.5s-75.667 -27.5 -119 -27.5
c-50.667 0 -96.5 12.167 -137.5 36.5s-73.333 57.666 -97 99.999s-35.5 89.5 -35.5 141.5s12.167 99.333 36.5 142s57.666 76.167 99.999 100.5s89.5 36.5 141.5 36.5s99.167 -12.167 141.5 -36.5zM442 92.001c30.667 18 54.834 42.833 72.501 74.5s26.5 67.167 26.5 106.5
s-8.83301 74.833 -26.5 106.5s-41.834 56.667 -72.501 75s-65 27.5 -103 27.5s-72.5 -9.16699 -103.5 -27.5s-55.333 -43.333 -73 -75s-26.5 -67.167 -26.5 -106.5s8.83301 -74.833 26.5 -106.5s42 -56.5 73 -74.5s65.5 -27 103.5 -27s72.333 9 103 27zM495.5 718.001
c7.66699 -6.66699 11.5 -15.334 11.5 -26.001s-3.83301 -19.334 -11.5 -26.001s-16.834 -10 -27.501 -10h-259c-11.333 0 -20.666 3.33301 -27.999 10s-11 15.334 -11 26.001s3.66699 19.334 11 26.001s16.666 10 27.999 10h259c10.667 0 19.834 -3.33301 27.501 -10z" />
    <glyph glyph-name="Abreve" unicode="&#x102;" horiz-adv-x="703" 
d="M690 39c0 -10.667 -3.83301 -19.835 -11.5 -27.502s-16.834 -11.5 -27.501 -11.5c-17.333 0 -29.666 8 -36.999 24l-67 162h-387l-67 -162c-5.33301 -16 -17.333 -24 -36 -24c-11.333 0 -20.5 3.83301 -27.5 11.5s-10.5 16.834 -10.5 27.501c0 6.66699 1 12.334 3 17.001
l294 698c7.33301 18 20 27 38 27s30.333 -9 37 -27l295 -699c2.66699 -4.66699 4 -10 4 -16zM520 252.999l-166 401l-166 -401h332zM259 1010.5c7.33301 -7 11 -15.5 11 -25.5c0 -15.333 7.66699 -28.333 23 -39s34.666 -16 57.999 -16c24.667 0 44.5 5.16699 59.5 15.5
s22.5 23.5 22.5 39.5c0 10.667 3.66699 19.334 11 26.001s16.333 10 27 10s19.5 -3.83301 26.5 -11.5s10.5 -16.834 10.5 -27.501c-1.33301 -34 -17.166 -62 -47.499 -84s-66.833 -33 -109.5 -33c-28 0 -54 5.16699 -78 15.5s-43 24.333 -57 42s-21 37.167 -21 58.5
c0 11.333 3.66699 20.833 11 28.5s16.333 11.5 27 11.5c10 0 18.667 -3.5 26 -10.5z" />
    <glyph glyph-name="abreve" unicode="&#x103;" 
d="M480.5 515.5c42.333 -24.333 75.666 -57.832 99.999 -100.499s36.5 -90 36.5 -142v-235c0 -10.667 -3.66699 -19.667 -11 -27s-16.666 -11 -27.999 -11s-20.666 3.5 -27.999 10.5s-11 16.167 -11 27.5v60c-23.333 -32 -53 -57.167 -89 -75.5s-75.667 -27.5 -119 -27.5
c-50.667 0 -96.5 12.167 -137.5 36.5s-73.333 57.666 -97 99.999s-35.5 89.5 -35.5 141.5s12.167 99.333 36.5 142s57.666 76.167 99.999 100.5s89.5 36.5 141.5 36.5s99.167 -12.167 141.5 -36.5zM442 92.001c30.667 18 54.834 42.833 72.501 74.5s26.5 67.167 26.5 106.5
s-8.83301 74.833 -26.5 106.5s-41.834 56.667 -72.501 75s-65 27.5 -103 27.5s-72.5 -9.16699 -103.5 -27.5s-55.333 -43.333 -73 -75s-26.5 -67.167 -26.5 -106.5s8.83301 -74.833 26.5 -106.5s42 -56.5 73 -74.5s65.5 -27 103.5 -27s72.333 9 103 27zM246 776.501
c7.33301 -7 11 -15.5 11 -25.5c0 -15.333 7.66699 -28.333 23 -39s34.666 -16 57.999 -16c24.667 0 44.5 5.16699 59.5 15.5s22.5 23.5 22.5 39.5c0 10.667 3.66699 19.334 11 26.001s16.333 10 27 10s19.5 -3.83301 26.5 -11.5s10.5 -16.834 10.5 -27.501
c-1.33301 -34 -17.166 -62 -47.499 -84s-66.833 -33 -109.5 -33c-28 0 -54 5.16699 -78 15.5s-43 24.333 -57 42s-21 37.167 -21 58.5c0 11.333 3.66699 20.833 11 28.5s16.333 11.5 27 11.5c10 0 18.667 -3.5 26 -10.5z" />
    <glyph glyph-name="Aogonek" unicode="&#x104;" horiz-adv-x="703" 
d="M690 39c0 -10.667 -3.83301 -19.835 -11.5 -27.502s-16.834 -11.5 -27.501 -11.5c-17.333 0 -29.666 8 -36.999 24l-67 162h-387l-67 -162c-5.33301 -16 -17.333 -24 -36 -24c-11.333 0 -20.5 3.83301 -27.5 11.5s-10.5 16.834 -10.5 27.501c0 6.66699 1 12.334 3 17.001
l294 698c7.33301 18 20 27 38 27s30.333 -9 37 -27l295 -699c2.66699 -4.66699 4 -10 4 -16zM520 252.999l-166 401l-166 -401h332zM648 -238.001c-32 0 -59.499 11.5 -82.499 34.5s-34.5 50.5 -34.5 82.5c0 36.667 16.333 68.667 49 96
c17.333 12.667 28.666 25.667 33.999 39c8 13.333 19.333 20 34 20c10.667 0 19.667 -3.5 27 -10.5s11.333 -16.167 12 -27.5c0 -26.667 -20.667 -55 -62 -85c-10.667 -8 -16 -18.667 -16 -32c0 -11.333 3.83301 -20.666 11.5 -27.999s16.834 -11 27.501 -11c8 0 15 2 21 6
l34 25c7.33301 5.33301 15 8 23 8c11.333 0 20.666 -3.83301 27.999 -11.5s11 -16.834 11 -27.501c0 -12 -4.33301 -22.333 -13 -31l-40 -26c-20 -14 -41.333 -21 -64 -21z" />
    <glyph glyph-name="aogonek" unicode="&#x105;" 
d="M480.5 515.5c42.333 -24.333 75.666 -57.832 99.999 -100.499s36.5 -90 36.5 -142v-235c0 -10.667 -3.66699 -19.667 -11 -27s-16.666 -11 -27.999 -11s-20.666 3.5 -27.999 10.5s-11 16.167 -11 27.5v60c-23.333 -32 -53 -57.167 -89 -75.5s-75.667 -27.5 -119 -27.5
c-50.667 0 -96.5 12.167 -137.5 36.5s-73.333 57.666 -97 99.999s-35.5 89.5 -35.5 141.5s12.167 99.333 36.5 142s57.666 76.167 99.999 100.5s89.5 36.5 141.5 36.5s99.167 -12.167 141.5 -36.5zM442 92.001c30.667 18 54.834 42.833 72.501 74.5s26.5 67.167 26.5 106.5
s-8.83301 74.833 -26.5 106.5s-41.834 56.667 -72.501 75s-65 27.5 -103 27.5s-72.5 -9.16699 -103.5 -27.5s-55.333 -43.333 -73 -75s-26.5 -67.167 -26.5 -106.5s8.83301 -74.833 26.5 -106.5s42 -56.5 73 -74.5s65.5 -27 103.5 -27s72.333 9 103 27zM609 -261.999
c-32 0 -59.499 11.5 -82.499 34.5s-34.5 50.5 -34.5 82.5c0 36.667 16.333 68.667 49 96c17.333 12.667 28.666 25.667 33.999 39c8 13.333 19.333 20 34 20c10.667 0 19.667 -3.5 27 -10.5s11.333 -16.167 12 -27.5c0 -26.667 -20.667 -55 -62 -85
c-10.667 -8 -16 -18.667 -16 -32c0 -11.333 3.83301 -20.666 11.5 -27.999s16.834 -11 27.501 -11c8 0 15 2 21 6l34 25c7.33301 5.33301 15 8 23 8c11.333 0 20.666 -3.83301 27.999 -11.5s11 -16.834 11 -27.501c0 -12 -4.33301 -22.333 -13 -31l-40 -26
c-20 -14 -41.333 -21 -64 -21z" />
    <glyph glyph-name="Cacute" unicode="&#x106;" horiz-adv-x="771" 
d="M582 770c39.333 -14 77.3369 -36.333 114.004 -67c7.33301 -5.33301 11 -13 11 -23c0 -5.33301 -1.33301 -10.166 -4 -14.499s-6.33398 -7.5 -11.001 -9.5c-1.33301 -4.66699 -4.33301 -8.33398 -9 -11.001s-9.66699 -4 -15 -4c-10 0 -18.333 3 -25 9
c-26 23.333 -54.333 40.333 -85 51s-66.334 16 -107.001 16c-56 0 -108 -14.833 -156 -44.5s-86.167 -69.5 -114.5 -119.5s-42.5 -104 -42.5 -162c0 -59.333 14 -114 42 -164s66 -89.667 114 -119s100.333 -44 157 -44c72.667 0 138.334 23.333 197.001 70
c7.33301 5.33301 14.666 8 21.999 8c10 0 18.667 -3.5 26 -10.5s11 -16.167 11 -27.5c0 -10.667 -3.66699 -20 -11 -28c-62.667 -57.333 -144.334 -86 -245.001 -86c-70.667 0 -135.667 18 -195 54s-106.5 84.667 -141.5 146s-52.5 128.333 -52.5 201
c0 72 17.333 138.667 52 200s81.667 110 141 146s124.666 54 195.999 54c48 0 91.667 -7 131 -21zM549.004 1053c11.333 0 20.667 -3.83398 28 -11.501s11 -17.167 11 -28.5c0 -10.667 -3.66699 -19.334 -11 -26.001l-112 -113c-6.66699 -6.66699 -15.334 -10 -26.001 -10
c-11.333 0 -20.666 3.83301 -27.999 11.5s-11 16.834 -11 27.501s3 19.334 9 26.001l113 113c7.33301 7.33301 16.333 11 27 11z" />
    <glyph glyph-name="cacute" unicode="&#x107;" horiz-adv-x="596" 
d="M527 456c5.33301 -6 8.00195 -12.998 8.00195 -20.998c0 -10.667 -5.66699 -20 -17 -28c-6 -4 -12.333 -6 -19 -6c-10 0 -19.667 5 -29 15c-20 22 -42 38.5 -66 49.5s-50.667 16.5 -80 16.5c-36.667 0 -69.334 -8.83301 -98.001 -26.5s-50.834 -42.5 -66.501 -74.5
s-23.5 -68 -23.5 -108c0 -39.333 8.33301 -74.833 25 -106.5s40 -56.5 70 -74.5s64.333 -27 103 -27c53.333 0 96.333 14.333 129 43c8.66699 7.33301 17.667 11 27 11c8 0 15.333 -2.66699 22 -8c9.33301 -8 14 -17 14 -27c0 -8.66699 -3.33301 -16 -10 -22
c-48 -44.667 -108.667 -67 -182 -67c-52 0 -98.667 12.167 -140 36.5s-73.833 57.666 -97.5 99.999s-35.5 89.5 -35.5 141.5c0 53.333 11.333 101.166 34 143.499s54 75.5 94 99.5s85 36 135 36c83.333 0 151 -32 203 -96zM427.002 819.002
c11.333 0 20.667 -3.83398 28 -11.501s11 -17.167 11 -28.5c0 -10.667 -3.66699 -19.334 -11 -26.001l-112 -113c-6.66699 -6.66699 -15.334 -10 -26.001 -10c-11.333 0 -20.666 3.83301 -27.999 11.5s-11 16.834 -11 27.501s3 19.334 9 26.001l113 113
c7.33301 7.33301 16.333 11 27 11z" />
    <glyph glyph-name="Ccircumflex" unicode="&#x108;" horiz-adv-x="771" 
d="M582 770c39.333 -14 77.3369 -36.333 114.004 -67c7.33301 -5.33301 11 -13 11 -23c0 -5.33301 -1.33301 -10.166 -4 -14.499s-6.33398 -7.5 -11.001 -9.5c-1.33301 -4.66699 -4.33301 -8.33398 -9 -11.001s-9.66699 -4 -15 -4c-10 0 -18.333 3 -25 9
c-26 23.333 -54.333 40.333 -85 51s-66.334 16 -107.001 16c-56 0 -108 -14.833 -156 -44.5s-86.167 -69.5 -114.5 -119.5s-42.5 -104 -42.5 -162c0 -59.333 14 -114 42 -164s66 -89.667 114 -119s100.333 -44 157 -44c72.667 0 138.334 23.333 197.001 70
c7.33301 5.33301 14.666 8 21.999 8c10 0 18.667 -3.5 26 -10.5s11 -16.167 11 -27.5c0 -10.667 -3.66699 -20 -11 -28c-62.667 -57.333 -144.334 -86 -245.001 -86c-70.667 0 -135.667 18 -195 54s-106.5 84.667 -141.5 146s-52.5 128.333 -52.5 201
c0 72 17.333 138.667 52 200s81.667 110 141 146s124.666 54 195.999 54c48 0 91.667 -7 131 -21zM330.004 868c-11.333 0 -20.834 3.16699 -28.501 9.5s-11.5 14.833 -11.5 25.5c0 14 6.33301 25.333 19 34l118 78c5.33301 3.33301 11.666 5 18.999 5
c6.66699 0 13.334 -1.66699 20.001 -5l117 -78c12.667 -8.66699 19 -20 19 -34c0 -10 -3.66699 -18.333 -11 -25s-16.666 -10 -27.999 -10c-7.33301 0 -15.333 2.66699 -24 8l-93 64l-93 -64c-7.33301 -5.33301 -15 -8 -23 -8z" />
    <glyph glyph-name="ccircumflex" unicode="&#x109;" horiz-adv-x="596" 
d="M527 456c5.33301 -6 8.00195 -12.998 8.00195 -20.998c0 -10.667 -5.66699 -20 -17 -28c-6 -4 -12.333 -6 -19 -6c-10 0 -19.667 5 -29 15c-20 22 -42 38.5 -66 49.5s-50.667 16.5 -80 16.5c-36.667 0 -69.334 -8.83301 -98.001 -26.5s-50.834 -42.5 -66.501 -74.5
s-23.5 -68 -23.5 -108c0 -39.333 8.33301 -74.833 25 -106.5s40 -56.5 70 -74.5s64.333 -27 103 -27c53.333 0 96.333 14.333 129 43c8.66699 7.33301 17.667 11 27 11c8 0 15.333 -2.66699 22 -8c9.33301 -8 14 -17 14 -27c0 -8.66699 -3.33301 -16 -10 -22
c-48 -44.667 -108.667 -67 -182 -67c-52 0 -98.667 12.167 -140 36.5s-73.833 57.666 -97.5 99.999s-35.5 89.5 -35.5 141.5c0 53.333 11.333 101.166 34 143.499s54 75.5 94 99.5s85 36 135 36c83.333 0 151 -32 203 -96zM208.002 634.002
c-11.333 0 -20.834 3.16699 -28.501 9.5s-11.5 14.833 -11.5 25.5c0 14 6.33301 25.333 19 34l118 78c5.33301 3.33301 11.666 5 18.999 5c6.66699 0 13.334 -1.66699 20.001 -5l117 -78c12.667 -8.66699 19 -20 19 -34c0 -10 -3.66699 -18.333 -11 -25
s-16.666 -10 -27.999 -10c-7.33301 0 -15.333 2.66699 -24 8l-93 64l-93 -64c-7.33301 -5.33301 -15 -8 -23 -8z" />
    <glyph glyph-name="Cdotaccent" unicode="&#x10a;" horiz-adv-x="771" 
d="M582 770c39.333 -14 77.3369 -36.333 114.004 -67c7.33301 -5.33301 11 -13 11 -23c0 -5.33301 -1.33301 -10.166 -4 -14.499s-6.33398 -7.5 -11.001 -9.5c-1.33301 -4.66699 -4.33301 -8.33398 -9 -11.001s-9.66699 -4 -15 -4c-10 0 -18.333 3 -25 9
c-26 23.333 -54.333 40.333 -85 51s-66.334 16 -107.001 16c-56 0 -108 -14.833 -156 -44.5s-86.167 -69.5 -114.5 -119.5s-42.5 -104 -42.5 -162c0 -59.333 14 -114 42 -164s66 -89.667 114 -119s100.333 -44 157 -44c72.667 0 138.334 23.333 197.001 70
c7.33301 5.33301 14.666 8 21.999 8c10 0 18.667 -3.5 26 -10.5s11 -16.167 11 -27.5c0 -10.667 -3.66699 -20 -11 -28c-62.667 -57.333 -144.334 -86 -245.001 -86c-70.667 0 -135.667 18 -195 54s-106.5 84.667 -141.5 146s-52.5 128.333 -52.5 201
c0 72 17.333 138.667 52 200s81.667 110 141 146s124.666 54 195.999 54c48 0 91.667 -7 131 -21zM484.004 979c10.667 -10 15.998 -23 15.998 -39c0 -15.333 -5.33301 -28.333 -16 -39s-23.667 -16 -39 -16s-28.166 5.33301 -38.499 16s-15.5 23.667 -15.5 39
c0 16 5.33301 29 16 39s23.667 15 39 15c14.667 0 27.334 -5 38.001 -15z" />
    <glyph glyph-name="cdotaccent" unicode="&#x10b;" horiz-adv-x="596" 
d="M527 456c5.33301 -6 8.00195 -12.998 8.00195 -20.998c0 -10.667 -5.66699 -20 -17 -28c-6 -4 -12.333 -6 -19 -6c-10 0 -19.667 5 -29 15c-20 22 -42 38.5 -66 49.5s-50.667 16.5 -80 16.5c-36.667 0 -69.334 -8.83301 -98.001 -26.5s-50.834 -42.5 -66.501 -74.5
s-23.5 -68 -23.5 -108c0 -39.333 8.33301 -74.833 25 -106.5s40 -56.5 70 -74.5s64.333 -27 103 -27c53.333 0 96.333 14.333 129 43c8.66699 7.33301 17.667 11 27 11c8 0 15.333 -2.66699 22 -8c9.33301 -8 14 -17 14 -27c0 -8.66699 -3.33301 -16 -10 -22
c-48 -44.667 -108.667 -67 -182 -67c-52 0 -98.667 12.167 -140 36.5s-73.833 57.666 -97.5 99.999s-35.5 89.5 -35.5 141.5c0 53.333 11.333 101.166 34 143.499s54 75.5 94 99.5s85 36 135 36c83.333 0 151 -32 203 -96zM362.002 745.002
c10.667 -10 15.998 -23 15.998 -39c0 -15.333 -5.33301 -28.333 -16 -39s-23.667 -16 -39 -16s-28.166 5.33301 -38.499 16s-15.5 23.667 -15.5 39c0 16 5.33301 29 16 39s23.667 15 39 15c14.667 0 27.334 -5 38.001 -15z" />
    <glyph glyph-name="Ccaron" unicode="&#x10c;" horiz-adv-x="771" 
d="M582 770c39.333 -14 77.3369 -36.333 114.004 -67c7.33301 -5.33301 11 -13 11 -23c0 -5.33301 -1.33301 -10.166 -4 -14.499s-6.33398 -7.5 -11.001 -9.5c-1.33301 -4.66699 -4.33301 -8.33398 -9 -11.001s-9.66699 -4 -15 -4c-10 0 -18.333 3 -25 9
c-26 23.333 -54.333 40.333 -85 51s-66.334 16 -107.001 16c-56 0 -108 -14.833 -156 -44.5s-86.167 -69.5 -114.5 -119.5s-42.5 -104 -42.5 -162c0 -59.333 14 -114 42 -164s66 -89.667 114 -119s100.333 -44 157 -44c72.667 0 138.334 23.333 197.001 70
c7.33301 5.33301 14.666 8 21.999 8c10 0 18.667 -3.5 26 -10.5s11 -16.167 11 -27.5c0 -10.667 -3.66699 -20 -11 -28c-62.667 -57.333 -144.334 -86 -245.001 -86c-70.667 0 -135.667 18 -195 54s-106.5 84.667 -141.5 146s-52.5 128.333 -52.5 201
c0 72 17.333 138.667 52 200s81.667 110 141 146s124.666 54 195.999 54c48 0 91.667 -7 131 -21zM572.004 1018c9.33301 0 16.668 -2.83301 22.001 -8.5s8 -12.5 8 -20.5c0 -13.333 -6.33301 -24.333 -19 -33l-117 -78c-4.66699 -3.33301 -11.334 -5 -20.001 -5
s-15 1.66699 -19 5l-118 78c-12.667 8.66699 -19 19.667 -19 33c0 8.66699 2.83301 15.667 8.5 21s13.167 8 22.5 8c10 0 20.667 -3.66699 32 -11l93 -63l93 62c11.333 8 22.333 12 33 12z" />
    <glyph glyph-name="ccaron" unicode="&#x10d;" horiz-adv-x="596" 
d="M527 456c5.33301 -6 8.00195 -12.998 8.00195 -20.998c0 -10.667 -5.66699 -20 -17 -28c-6 -4 -12.333 -6 -19 -6c-10 0 -19.667 5 -29 15c-20 22 -42 38.5 -66 49.5s-50.667 16.5 -80 16.5c-36.667 0 -69.334 -8.83301 -98.001 -26.5s-50.834 -42.5 -66.501 -74.5
s-23.5 -68 -23.5 -108c0 -39.333 8.33301 -74.833 25 -106.5s40 -56.5 70 -74.5s64.333 -27 103 -27c53.333 0 96.333 14.333 129 43c8.66699 7.33301 17.667 11 27 11c8 0 15.333 -2.66699 22 -8c9.33301 -8 14 -17 14 -27c0 -8.66699 -3.33301 -16 -10 -22
c-48 -44.667 -108.667 -67 -182 -67c-52 0 -98.667 12.167 -140 36.5s-73.833 57.666 -97.5 99.999s-35.5 89.5 -35.5 141.5c0 53.333 11.333 101.166 34 143.499s54 75.5 94 99.5s85 36 135 36c83.333 0 151 -32 203 -96zM450.002 784.002
c9.33301 0 16.668 -2.83301 22.001 -8.5s8 -12.5 8 -20.5c0 -13.333 -6.33301 -24.333 -19 -33l-117 -78c-4.66699 -3.33301 -11.334 -5 -20.001 -5s-15 1.66699 -19 5l-118 78c-12.667 8.66699 -19 19.667 -19 33c0 8.66699 2.83301 15.667 8.5 21s13.167 8 22.5 8
c10 0 20.667 -3.66699 32 -11l93 -63l93 62c11.333 8 22.333 12 33 12z" />
    <glyph glyph-name="Dcaron" unicode="&#x10e;" horiz-adv-x="770" 
d="M521 731c59.333 -33.333 105.5 -79.5 138.5 -138.5s49.5 -126.167 49.5 -201.5s-16.5 -142.666 -49.5 -201.999s-79.167 -105.666 -138.5 -138.999s-126.666 -50 -201.999 -50h-180c-11.333 0 -20.666 3.66699 -27.999 11s-11 16.666 -11 27.999v703
c0 11.333 3.66699 20.666 11 27.999s16.666 11 27.999 11h180c75.333 0 142.666 -16.667 201.999 -50zM481 111.5c47.333 27.667 84.333 65.833 111 114.5s40 103.667 40 165s-13.333 116.333 -40 165s-63.667 86.667 -111 114s-101.333 41 -162 41h-141v-641h141
c60.667 0 114.667 13.833 162 41.5zM512 1018c9.33301 0 16.668 -2.83301 22.001 -8.5s8 -12.5 8 -20.5c0 -13.333 -6.33301 -24.333 -19 -33l-117 -78c-4.66699 -3.33301 -11.334 -5 -20.001 -5s-15 1.66699 -19 5l-118 78c-12.667 8.66699 -19 19.667 -19 33
c0 8.66699 2.83301 15.667 8.5 21s13.167 8 22.5 8c10 0 20.667 -3.66699 32 -11l93 -63l93 62c11.333 8 22.333 12 33 12z" />
    <glyph glyph-name="dcaron" unicode="&#x10f;" horiz-adv-x="790" 
d="M617 509l-0.000976562 -234.999c0 -52 -12.167 -99.333 -36.5 -142s-57.666 -76.167 -99.999 -100.5s-89.5 -36.5 -141.5 -36.5s-99.167 12.167 -141.5 36.5s-75.666 57.833 -99.999 100.5s-36.5 90 -36.5 142s11.833 99.167 35.5 141.5s56 75.666 97 99.999
s86.833 36.5 137.5 36.5c43.333 0 83 -9.16699 119 -27.5s65.667 -43.5 89 -75.5v293c0 11.333 3.66699 20.666 11 27.999s16.666 11 27.999 11s20.5 -3.66699 27.5 -11s10.5 -16.666 10.5 -27.999v-224c0.666992 -2 1 -5 1 -9zM441.999 92.501
c30.667 18.333 54.833 43.334 72.5 75.001s26.5 67.167 26.5 106.5c0 11.333 -0.333008 19.666 -1 24.999c-0.666992 1.33301 -1 3 -1 5c-6.66699 52 -28.5 94.667 -65.5 128s-81.833 50 -134.5 50c-38 0 -72.5 -9 -103.5 -27s-55.333 -42.833 -73 -74.5
s-26.5 -67.167 -26.5 -106.5s8.83301 -74.833 26.5 -106.5s42 -56.667 73 -75s65.5 -27.5 103.5 -27.5s72.333 9.16699 103 27.5zM785.998 763.002c9.33301 -14 13.999 -32.001 13.999 -54.001c0 -4.66699 -0.666992 -12.334 -2 -23.001
c-3.33301 -22.667 -11.333 -46.667 -24 -72s-26.667 -46.666 -42 -63.999s-28.333 -26 -39 -26c-6.66699 0 -12 1.83301 -16 5.5s-6 8.83398 -6 15.501c0 8 5.33301 20.333 16 37c8.66699 12.667 15.667 24.834 21 36.501s8.66602 24.834 9.99902 39.501
c0.666992 8.66699 0.333984 16.167 -0.999023 22.5s-3.66602 13.833 -6.99902 22.5c-2 5.33301 -4 11.666 -6 18.999s-3 15 -3 23c0 13.333 4.16699 23.166 12.5 29.499s19.5 9.5 33.5 9.5c16.667 0 29.667 -7 39 -21z" />
    <glyph glyph-name="Dcroat" unicode="&#x110;" horiz-adv-x="770" 
d="M521 731c59.333 -33.333 105.5 -79.5 138.5 -138.5s49.5 -126.167 49.5 -201.5s-16.5 -142.666 -49.5 -201.999s-79.167 -105.666 -138.5 -138.999s-126.666 -50 -201.999 -50h-180c-11.333 0 -20.666 3.66699 -27.999 11s-11 16.666 -11 27.999v318h-64
c-10.667 0 -19.334 3 -26.001 9s-10 14.333 -10 25s3.33301 19 10 25s15.334 9 26.001 9h64v317c0 11.333 3.66699 20.666 11 27.999s16.666 11 27.999 11h180c75.333 0 142.666 -16.667 201.999 -50zM481 111.5c47.333 27.667 84.333 65.833 111 114.5s40 103.667 40 165
s-13.333 116.333 -40 165s-63.667 86.667 -111 114s-101.333 41 -162 41h-141v-286h150c11.333 0 20.333 -3 27 -9s10 -14.333 10 -25s-3.33301 -19 -10 -25s-15.667 -9 -27 -9h-150v-287h141c60.667 0 114.667 13.833 162 41.5z" />
    <glyph glyph-name="dcroat" unicode="&#x111;" horiz-adv-x="707" 
d="M696.5 677.5c7 -5.66699 10.499 -13.499 10.499 -23.499c0 -9.33301 -3.66699 -17.166 -11 -23.499s-16.333 -9.5 -27 -9.5h-53v-103c0.666992 -2 1 -5 1 -9v-235c0 -52 -12.167 -99.333 -36.5 -142s-57.666 -76.167 -99.999 -100.5s-89.5 -36.5 -141.5 -36.5
s-99.167 12.167 -141.5 36.5s-75.666 57.833 -99.999 100.5s-36.5 90 -36.5 142s11.833 99.167 35.5 141.5s56 75.666 97 99.999s86.833 36.5 137.5 36.5c43.333 0 83 -9.16699 119 -27.5s65.667 -43.5 89 -75.5v172h-161c-10.667 0 -19.5 3.16699 -26.5 9.5
s-10.5 14.166 -10.5 23.499c0 10 3.33301 17.833 10 23.5s15.667 8.5 27 8.5h161v56c0 11.333 3.66699 20.666 11 27.999s16.666 11 27.999 11s20.5 -3.66699 27.5 -11s10.5 -16.666 10.5 -27.999v-56h53c11.333 0 20.5 -2.83301 27.5 -8.5zM441.999 92.501
c30.667 18.333 54.833 43.334 72.5 75.001s26.5 67.167 26.5 106.5c0 11.333 -0.333008 19.666 -1 24.999c-0.666992 1.33301 -1 3 -1 5c-6.66699 52 -28.5 94.667 -65.5 128s-81.833 50 -134.5 50c-38 0 -72.5 -9 -103.5 -27s-55.333 -42.833 -73 -74.5
s-26.5 -67.167 -26.5 -106.5s8.83301 -74.833 26.5 -106.5s42 -56.667 73 -75s65.5 -27.5 103.5 -27.5s72.333 9.16699 103 27.5z" />
    <glyph glyph-name="Emacron" unicode="&#x112;" horiz-adv-x="692" 
d="M636 64.5c7.33301 -7 11.002 -15.833 11.002 -26.5s-3.66699 -19.667 -11 -27s-16.666 -11 -27.999 -11h-469c-10.667 -0 -19.834 3.83301 -27.501 11.5s-11.5 16.834 -11.5 27.501v703c0 11.333 3.83301 20.666 11.5 27.999s16.834 11 27.501 11h469
c11.333 0 20.666 -3.66699 27.999 -11s11 -16.333 11 -27s-3.66699 -19.5 -11 -26.5s-16.666 -10.5 -27.999 -10.5h-430v-276h313c11.333 0 20.666 -3.66699 27.999 -11s11 -16.333 11 -27s-3.83301 -19.667 -11.5 -27s-16.834 -11 -27.501 -11h-313v-279h430
c11.333 0 20.666 -3.5 27.999 -10.5zM537.502 952c7.66699 -6.66699 11.5 -15.334 11.5 -26.001s-3.83301 -19.334 -11.5 -26.001s-16.834 -10 -27.501 -10h-259c-11.333 0 -20.666 3.33301 -27.999 10s-11 15.334 -11 26.001s3.66699 19.334 11 26.001s16.666 10 27.999 10
h259c10.667 0 19.834 -3.33301 27.501 -10z" />
    <glyph glyph-name="emacron" unicode="&#x113;" horiz-adv-x="614" 
d="M454 517.5c38 -23 67.502 -54.8311 88.502 -95.498s31.5 -87 31.5 -139c0 -10.667 -3.33301 -19.167 -10 -25.5s-15.334 -9.5 -26.001 -9.5h-404c5.33301 -54.667 26.666 -99 63.999 -133s84 -51 140 -51c24 0 48.167 4.16699 72.5 12.5s43.833 18.833 58.5 31.5
c8.66699 6.66699 17.667 10 27 10c7.33301 0 14.666 -2.66699 21.999 -8c8.66699 -8 13 -17 13 -27c0 -8.66699 -3.66699 -16.334 -11 -23.001c-22 -18.667 -50 -34.167 -84 -46.5s-66.667 -18.5 -98 -18.5c-53.333 0 -101 11.833 -143 35.5s-74.833 56.667 -98.5 99
s-35.5 90.166 -35.5 143.499c0 54 11.167 102.167 33.5 144.5s53.333 75.333 93 99s84.834 35.5 135.501 35.5c49.333 0 93 -11.5 131 -34.5zM197.002 436.002c-33.333 -31.333 -53.667 -72.666 -61 -123.999h366c-5.33301 51.333 -24 92.666 -56 123.999s-73 47 -123 47
c-50.667 0 -92.667 -15.667 -126 -47zM474.501 718.002c7.66699 -6.66699 11.5 -15.334 11.5 -26.001s-3.83301 -19.334 -11.5 -26.001s-16.834 -10 -27.501 -10h-259c-11.333 0 -20.666 3.33301 -27.999 10s-11 15.334 -11 26.001s3.66699 19.334 11 26.001
s16.666 10 27.999 10h259c10.667 0 19.834 -3.33301 27.501 -10z" />
    <glyph glyph-name="Ebreve" unicode="&#x114;" horiz-adv-x="692" 
d="M636 64.5c7.33301 -7 11.002 -15.833 11.002 -26.5s-3.66699 -19.667 -11 -27s-16.666 -11 -27.999 -11h-469c-10.667 -0 -19.834 3.83301 -27.501 11.5s-11.5 16.834 -11.5 27.501v703c0 11.333 3.83301 20.666 11.5 27.999s16.834 11 27.501 11h469
c11.333 0 20.666 -3.66699 27.999 -11s11 -16.333 11 -27s-3.66699 -19.5 -11 -26.5s-16.666 -10.5 -27.999 -10.5h-430v-276h313c11.333 0 20.666 -3.66699 27.999 -11s11 -16.333 11 -27s-3.83301 -19.667 -11.5 -27s-16.834 -11 -27.501 -11h-313v-279h430
c11.333 0 20.666 -3.5 27.999 -10.5zM288.002 1010.5c7.33301 -7 11 -15.5 11 -25.5c0 -15.333 7.66699 -28.333 23 -39s34.666 -16 57.999 -16c24.667 0 44.5 5.16699 59.5 15.5s22.5 23.5 22.5 39.5c0 10.667 3.66699 19.334 11 26.001s16.333 10 27 10
s19.5 -3.83301 26.5 -11.5s10.5 -16.834 10.5 -27.501c-1.33301 -34 -17.166 -62 -47.499 -84s-66.833 -33 -109.5 -33c-28 0 -54 5.16699 -78 15.5s-43 24.333 -57 42s-21 37.167 -21 58.5c0 11.333 3.66699 20.833 11 28.5s16.333 11.5 27 11.5c10 0 18.667 -3.5 26 -10.5
z" />
    <glyph glyph-name="ebreve" unicode="&#x115;" horiz-adv-x="614" 
d="M454 517.5c38 -23 67.502 -54.8311 88.502 -95.498s31.5 -87 31.5 -139c0 -10.667 -3.33301 -19.167 -10 -25.5s-15.334 -9.5 -26.001 -9.5h-404c5.33301 -54.667 26.666 -99 63.999 -133s84 -51 140 -51c24 0 48.167 4.16699 72.5 12.5s43.833 18.833 58.5 31.5
c8.66699 6.66699 17.667 10 27 10c7.33301 0 14.666 -2.66699 21.999 -8c8.66699 -8 13 -17 13 -27c0 -8.66699 -3.66699 -16.334 -11 -23.001c-22 -18.667 -50 -34.167 -84 -46.5s-66.667 -18.5 -98 -18.5c-53.333 0 -101 11.833 -143 35.5s-74.833 56.667 -98.5 99
s-35.5 90.166 -35.5 143.499c0 54 11.167 102.167 33.5 144.5s53.333 75.333 93 99s84.834 35.5 135.501 35.5c49.333 0 93 -11.5 131 -34.5zM197.002 436.002c-33.333 -31.333 -53.667 -72.666 -61 -123.999h366c-5.33301 51.333 -24 92.666 -56 123.999s-73 47 -123 47
c-50.667 0 -92.667 -15.667 -126 -47zM225.001 776.502c7.33301 -7 11 -15.5 11 -25.5c0 -15.333 7.66699 -28.333 23 -39s34.666 -16 57.999 -16c24.667 0 44.5 5.16699 59.5 15.5s22.5 23.5 22.5 39.5c0 10.667 3.66699 19.334 11 26.001s16.333 10 27 10
s19.5 -3.83301 26.5 -11.5s10.5 -16.834 10.5 -27.501c-1.33301 -34 -17.166 -62 -47.499 -84s-66.833 -33 -109.5 -33c-28 0 -54 5.16699 -78 15.5s-43 24.333 -57 42s-21 37.167 -21 58.5c0 11.333 3.66699 20.833 11 28.5s16.333 11.5 27 11.5c10 0 18.667 -3.5 26 -10.5
z" />
    <glyph glyph-name="Edotaccent" unicode="&#x116;" horiz-adv-x="692" 
d="M636 64.5c7.33301 -7 11.002 -15.833 11.002 -26.5s-3.66699 -19.667 -11 -27s-16.666 -11 -27.999 -11h-469c-10.667 -0 -19.834 3.83301 -27.501 11.5s-11.5 16.834 -11.5 27.501v703c0 11.333 3.83301 20.666 11.5 27.999s16.834 11 27.501 11h469
c11.333 0 20.666 -3.66699 27.999 -11s11 -16.333 11 -27s-3.66699 -19.5 -11 -26.5s-16.666 -10.5 -27.999 -10.5h-430v-276h313c11.333 0 20.666 -3.66699 27.999 -11s11 -16.333 11 -27s-3.83301 -19.667 -11.5 -27s-16.834 -11 -27.501 -11h-313v-279h430
c11.333 0 20.666 -3.5 27.999 -10.5zM419.002 979c10.667 -10 15.998 -23 15.998 -39c0 -15.333 -5.33301 -28.333 -16 -39s-23.667 -16 -39 -16s-28.166 5.33301 -38.499 16s-15.5 23.667 -15.5 39c0 16 5.33301 29 16 39s23.667 15 39 15c14.667 0 27.334 -5 38.001 -15z
" />
    <glyph glyph-name="edotaccent" unicode="&#x117;" horiz-adv-x="614" 
d="M454 517.5c38 -23 67.502 -54.8311 88.502 -95.498s31.5 -87 31.5 -139c0 -10.667 -3.33301 -19.167 -10 -25.5s-15.334 -9.5 -26.001 -9.5h-404c5.33301 -54.667 26.666 -99 63.999 -133s84 -51 140 -51c24 0 48.167 4.16699 72.5 12.5s43.833 18.833 58.5 31.5
c8.66699 6.66699 17.667 10 27 10c7.33301 0 14.666 -2.66699 21.999 -8c8.66699 -8 13 -17 13 -27c0 -8.66699 -3.66699 -16.334 -11 -23.001c-22 -18.667 -50 -34.167 -84 -46.5s-66.667 -18.5 -98 -18.5c-53.333 0 -101 11.833 -143 35.5s-74.833 56.667 -98.5 99
s-35.5 90.166 -35.5 143.499c0 54 11.167 102.167 33.5 144.5s53.333 75.333 93 99s84.834 35.5 135.501 35.5c49.333 0 93 -11.5 131 -34.5zM197.002 436.002c-33.333 -31.333 -53.667 -72.666 -61 -123.999h366c-5.33301 51.333 -24 92.666 -56 123.999s-73 47 -123 47
c-50.667 0 -92.667 -15.667 -126 -47zM356.001 745.002c10.667 -10 15.998 -23 15.998 -39c0 -15.333 -5.33301 -28.333 -16 -39s-23.667 -16 -39 -16s-28.166 5.33301 -38.499 16s-15.5 23.667 -15.5 39c0 16 5.33301 29 16 39s23.667 15 39 15
c14.667 0 27.334 -5 38.001 -15z" />
    <glyph glyph-name="Eogonek" unicode="&#x118;" horiz-adv-x="692" 
d="M636 64.5c7.33301 -7 11.002 -15.833 11.002 -26.5s-3.66699 -19.667 -11 -27s-16.666 -11 -27.999 -11h-469c-10.667 -0 -19.834 3.83301 -27.501 11.5s-11.5 16.834 -11.5 27.501v703c0 11.333 3.83301 20.666 11.5 27.999s16.834 11 27.501 11h469
c11.333 0 20.666 -3.66699 27.999 -11s11 -16.333 11 -27s-3.66699 -19.5 -11 -26.5s-16.666 -10.5 -27.999 -10.5h-430v-276h313c11.333 0 20.666 -3.66699 27.999 -11s11 -16.333 11 -27s-3.83301 -19.667 -11.5 -27s-16.834 -11 -27.501 -11h-313v-279h430
c11.333 0 20.666 -3.5 27.999 -10.5zM626.002 -262c-32 0 -59.499 11.5 -82.499 34.5s-34.5 50.5 -34.5 82.5c0 36.667 16.333 68.667 49 96c17.333 12.667 28.666 25.667 33.999 39c8 13.333 19.333 20 34 20c10.667 0 19.667 -3.5 27 -10.5s11.333 -16.167 12 -27.5
c0 -26.667 -20.667 -55 -62 -85c-10.667 -8 -16 -18.667 -16 -32c0 -11.333 3.83301 -20.666 11.5 -27.999s16.834 -11 27.501 -11c8 0 15 2 21 6l34 25c7.33301 5.33301 15 8 23 8c11.333 0 20.666 -3.83301 27.999 -11.5s11 -16.834 11 -27.501
c0 -12 -4.33301 -22.333 -13 -31l-40 -26c-20 -14 -41.333 -21 -64 -21z" />
    <glyph glyph-name="eogonek" unicode="&#x119;" horiz-adv-x="614" 
d="M454 517.5c38 -23 67.502 -54.8311 88.502 -95.498s31.5 -87 31.5 -139c0 -10.667 -3.33301 -19.167 -10 -25.5s-15.334 -9.5 -26.001 -9.5h-404c5.33301 -54.667 26.666 -99 63.999 -133s84 -51 140 -51c24 0 48.167 4.16699 72.5 12.5s43.833 18.833 58.5 31.5
c8.66699 6.66699 17.667 10 27 10c7.33301 0 14.666 -2.66699 21.999 -8c8.66699 -8 13 -17 13 -27c0 -8.66699 -3.66699 -16.334 -11 -23.001c-22 -18.667 -50 -34.167 -84 -46.5s-66.667 -18.5 -98 -18.5c-53.333 0 -101 11.833 -143 35.5s-74.833 56.667 -98.5 99
s-35.5 90.166 -35.5 143.499c0 54 11.167 102.167 33.5 144.5s53.333 75.333 93 99s84.834 35.5 135.501 35.5c49.333 0 93 -11.5 131 -34.5zM197.002 436.002c-33.333 -31.333 -53.667 -72.666 -61 -123.999h366c-5.33301 51.333 -24 92.666 -56 123.999s-73 47 -123 47
c-50.667 0 -92.667 -15.667 -126 -47zM407.001 -197.998c-32 0 -59.499 11.5 -82.499 34.5s-34.5 50.5 -34.5 82.5c0 36.667 16.333 68.667 49 96c17.333 12.667 28.666 25.667 33.999 39c8 13.333 19.333 20 34 20c10.667 0 19.667 -3.5 27 -10.5s11.333 -16.167 12 -27.5
c0 -26.667 -20.667 -55 -62 -85c-10.667 -8 -16 -18.667 -16 -32c0 -11.333 3.83301 -20.666 11.5 -27.999s16.834 -11 27.501 -11c8 0 15 2 21 6l34 25c7.33301 5.33301 15 8 23 8c11.333 0 20.666 -3.83301 27.999 -11.5s11 -16.834 11 -27.501
c0 -12 -4.33301 -22.333 -13 -31l-40 -26c-20 -14 -41.333 -21 -64 -21z" />
    <glyph glyph-name="Ecaron" unicode="&#x11a;" horiz-adv-x="692" 
d="M636 64.5c7.33301 -7 11.002 -15.833 11.002 -26.5s-3.66699 -19.667 -11 -27s-16.666 -11 -27.999 -11h-469c-10.667 -0 -19.834 3.83301 -27.501 11.5s-11.5 16.834 -11.5 27.501v703c0 11.333 3.83301 20.666 11.5 27.999s16.834 11 27.501 11h469
c11.333 0 20.666 -3.66699 27.999 -11s11 -16.333 11 -27s-3.66699 -19.5 -11 -26.5s-16.666 -10.5 -27.999 -10.5h-430v-276h313c11.333 0 20.666 -3.66699 27.999 -11s11 -16.333 11 -27s-3.83301 -19.667 -11.5 -27s-16.834 -11 -27.501 -11h-313v-279h430
c11.333 0 20.666 -3.5 27.999 -10.5zM507.002 1018c9.33301 0 16.668 -2.83301 22.001 -8.5s8 -12.5 8 -20.5c0 -13.333 -6.33301 -24.333 -19 -33l-117 -78c-4.66699 -3.33301 -11.334 -5 -20.001 -5s-15 1.66699 -19 5l-118 78c-12.667 8.66699 -19 19.667 -19 33
c0 8.66699 2.83301 15.667 8.5 21s13.167 8 22.5 8c10 0 20.667 -3.66699 32 -11l93 -63l93 62c11.333 8 22.333 12 33 12z" />
    <glyph glyph-name="ecaron" unicode="&#x11b;" horiz-adv-x="614" 
d="M454 517.5c38 -23 67.502 -54.8311 88.502 -95.498s31.5 -87 31.5 -139c0 -10.667 -3.33301 -19.167 -10 -25.5s-15.334 -9.5 -26.001 -9.5h-404c5.33301 -54.667 26.666 -99 63.999 -133s84 -51 140 -51c24 0 48.167 4.16699 72.5 12.5s43.833 18.833 58.5 31.5
c8.66699 6.66699 17.667 10 27 10c7.33301 0 14.666 -2.66699 21.999 -8c8.66699 -8 13 -17 13 -27c0 -8.66699 -3.66699 -16.334 -11 -23.001c-22 -18.667 -50 -34.167 -84 -46.5s-66.667 -18.5 -98 -18.5c-53.333 0 -101 11.833 -143 35.5s-74.833 56.667 -98.5 99
s-35.5 90.166 -35.5 143.499c0 54 11.167 102.167 33.5 144.5s53.333 75.333 93 99s84.834 35.5 135.501 35.5c49.333 0 93 -11.5 131 -34.5zM197.002 436.002c-33.333 -31.333 -53.667 -72.666 -61 -123.999h366c-5.33301 51.333 -24 92.666 -56 123.999s-73 47 -123 47
c-50.667 0 -92.667 -15.667 -126 -47zM444.001 784.002c9.33301 0 16.668 -2.83301 22.001 -8.5s8 -12.5 8 -20.5c0 -13.333 -6.33301 -24.333 -19 -33l-117 -78c-4.66699 -3.33301 -11.334 -5 -20.001 -5s-15 1.66699 -19 5l-118 78c-12.667 8.66699 -19 19.667 -19 33
c0 8.66699 2.83301 15.667 8.5 21s13.167 8 22.5 8c10 0 20.667 -3.66699 32 -11l93 -63l93 62c11.333 8 22.333 12 33 12z" />
    <glyph glyph-name="Gcircumflex" unicode="&#x11c;" horiz-adv-x="771" 
d="M696 379.5c7.33301 -7 11.0029 -16.1689 11.0029 -27.502v-248c0 -11.333 -3.66699 -20.666 -11 -27.999c-62 -57.333 -143.667 -86 -245 -86c-70.667 0 -135.667 18 -195 54s-106.5 84.667 -141.5 146s-52.5 128.333 -52.5 201c0 72 17.333 138.667 52 200
s81.667 110 141 146s124.666 54 195.999 54c48 0 91.667 -7 131 -21s77.333 -36.333 114 -67c7.33301 -5.33301 11 -13 11 -23c0 -5.33301 -1.33301 -10.166 -4 -14.499s-6.33398 -7.5 -11.001 -9.5c-1.33301 -4.66699 -4.33301 -8.5 -9 -11.5s-9.66699 -4.5 -15 -4.5
c-9.33301 0 -17.666 3.33301 -24.999 10c-26 23.333 -54.333 40.333 -85 51s-66.334 16 -107.001 16c-56 0 -108 -14.833 -156 -44.5s-86.167 -69.5 -114.5 -119.5s-42.5 -104 -42.5 -162c0 -59.333 14 -114 42 -164s66 -89.667 114 -119s100.333 -44 157 -44
c64.667 0 124.667 19 180 57v200h-156c-11.333 0 -20.666 3.33301 -27.999 10s-11 15 -11 25s3.66699 18.167 11 24.5s16.666 9.5 27.999 9.5h193c11.333 0 20.666 -3.5 27.999 -10.5zM324.003 867.998c-11.333 0 -20.834 3.16699 -28.501 9.5s-11.5 14.833 -11.5 25.5
c0 14 6.33301 25.333 19 34l118 78c5.33301 3.33301 11.666 5 18.999 5c6.66699 0 13.334 -1.66699 20.001 -5l117 -78c12.667 -8.66699 19 -20 19 -34c0 -10 -3.66699 -18.333 -11 -25s-16.666 -10 -27.999 -10c-7.33301 0 -15.333 2.66699 -24 8l-93 64l-93 -64
c-7.33301 -5.33301 -15 -8 -23 -8z" />
    <glyph glyph-name="gcircumflex" unicode="&#x11d;" 
d="M482 516.5c42 -23.667 75.002 -56.668 99.002 -99.001s36 -90.5 36 -144.5v-204c0 -53.333 -11.833 -101.666 -35.5 -144.999s-56.5 -77.5 -98.5 -102.5s-89.333 -37.5 -142 -37.5c-51.333 0 -97 9.66699 -137 29s-73.667 46.333 -101 81c-6 6.66699 -9 14.334 -9 23.001
c0 10 4.66699 18.667 14 26c6.66699 4.66699 14 7 22 7c6 0 12 -1.5 18 -4.5s10.667 -6.83301 14 -11.5c20 -25.333 45.333 -45 76 -59s65.334 -21 104.001 -21c37.333 0 71.166 9.16699 101.499 27.5s54.166 44 71.499 77s26 70.833 26 113.5v45
c-20 -38 -48.333 -67.833 -85 -89.5s-78.334 -32.5 -125.001 -32.5c-52 0 -98.5 11.833 -139.5 35.5s-73 56.667 -96 99s-34.5 90.166 -34.5 143.499c0 54 12 102.167 36 144.5s57.167 75.333 99.5 99s89.833 35.5 142.5 35.5c53.333 0 101 -11.833 143 -35.5z
M443.002 91.499c30.667 17.667 54.667 42.334 72 74.001s26 67.5 26 107.5s-8.66699 75.833 -26 107.5s-41.333 56.5 -72 74.5s-65.334 27 -104.001 27c-39.333 0 -74.333 -9 -105 -27s-54.667 -42.833 -72 -74.5s-26 -67.5 -26 -107.5s8.66699 -75.833 26 -107.5
s41.333 -56.334 72 -74.001s65.667 -26.5 105 -26.5c38.667 0 73.334 8.83301 104.001 26.5zM223.002 633.999c-11.333 0 -20.834 3.16699 -28.501 9.5s-11.5 14.833 -11.5 25.5c0 14 6.33301 25.333 19 34l118 78c5.33301 3.33301 11.666 5 18.999 5
c6.66699 0 13.334 -1.66699 20.001 -5l117 -78c12.667 -8.66699 19 -20 19 -34c0 -10 -3.66699 -18.333 -11 -25s-16.666 -10 -27.999 -10c-7.33301 0 -15.333 2.66699 -24 8l-93 64l-93 -64c-7.33301 -5.33301 -15 -8 -23 -8z" />
    <glyph glyph-name="Gbreve" unicode="&#x11e;" horiz-adv-x="771" 
d="M696 379.5c7.33301 -7 11.0029 -16.1689 11.0029 -27.502v-248c0 -11.333 -3.66699 -20.666 -11 -27.999c-62 -57.333 -143.667 -86 -245 -86c-70.667 0 -135.667 18 -195 54s-106.5 84.667 -141.5 146s-52.5 128.333 -52.5 201c0 72 17.333 138.667 52 200
s81.667 110 141 146s124.666 54 195.999 54c48 0 91.667 -7 131 -21s77.333 -36.333 114 -67c7.33301 -5.33301 11 -13 11 -23c0 -5.33301 -1.33301 -10.166 -4 -14.499s-6.33398 -7.5 -11.001 -9.5c-1.33301 -4.66699 -4.33301 -8.5 -9 -11.5s-9.66699 -4.5 -15 -4.5
c-9.33301 0 -17.666 3.33301 -24.999 10c-26 23.333 -54.333 40.333 -85 51s-66.334 16 -107.001 16c-56 0 -108 -14.833 -156 -44.5s-86.167 -69.5 -114.5 -119.5s-42.5 -104 -42.5 -162c0 -59.333 14 -114 42 -164s66 -89.667 114 -119s100.333 -44 157 -44
c64.667 0 124.667 19 180 57v200h-156c-11.333 0 -20.666 3.33301 -27.999 10s-11 15 -11 25s3.66699 18.167 11 24.5s16.666 9.5 27.999 9.5h193c11.333 0 20.666 -3.5 27.999 -10.5zM347.003 1010.5c7.33301 -7 11 -15.5 11 -25.5c0 -15.333 7.66699 -28.333 23 -39
s34.666 -16 57.999 -16c24.667 0 44.5 5.16699 59.5 15.5s22.5 23.5 22.5 39.5c0 10.667 3.66699 19.334 11 26.001s16.333 10 27 10s19.5 -3.83301 26.5 -11.5s10.5 -16.834 10.5 -27.501c-1.33301 -34 -17.166 -62 -47.499 -84s-66.833 -33 -109.5 -33
c-28 0 -54 5.16699 -78 15.5s-43 24.333 -57 42s-21 37.167 -21 58.5c0 11.333 3.66699 20.833 11 28.5s16.333 11.5 27 11.5c10 0 18.667 -3.5 26 -10.5z" />
    <glyph glyph-name="gbreve" unicode="&#x11f;" 
d="M482 516.5c42 -23.667 75.002 -56.668 99.002 -99.001s36 -90.5 36 -144.5v-204c0 -53.333 -11.833 -101.666 -35.5 -144.999s-56.5 -77.5 -98.5 -102.5s-89.333 -37.5 -142 -37.5c-51.333 0 -97 9.66699 -137 29s-73.667 46.333 -101 81c-6 6.66699 -9 14.334 -9 23.001
c0 10 4.66699 18.667 14 26c6.66699 4.66699 14 7 22 7c6 0 12 -1.5 18 -4.5s10.667 -6.83301 14 -11.5c20 -25.333 45.333 -45 76 -59s65.334 -21 104.001 -21c37.333 0 71.166 9.16699 101.499 27.5s54.166 44 71.499 77s26 70.833 26 113.5v45
c-20 -38 -48.333 -67.833 -85 -89.5s-78.334 -32.5 -125.001 -32.5c-52 0 -98.5 11.833 -139.5 35.5s-73 56.667 -96 99s-34.5 90.166 -34.5 143.499c0 54 12 102.167 36 144.5s57.167 75.333 99.5 99s89.833 35.5 142.5 35.5c53.333 0 101 -11.833 143 -35.5z
M443.002 91.499c30.667 17.667 54.667 42.334 72 74.001s26 67.5 26 107.5s-8.66699 75.833 -26 107.5s-41.333 56.5 -72 74.5s-65.334 27 -104.001 27c-39.333 0 -74.333 -9 -105 -27s-54.667 -42.833 -72 -74.5s-26 -67.5 -26 -107.5s8.66699 -75.833 26 -107.5
s41.333 -56.334 72 -74.001s65.667 -26.5 105 -26.5c38.667 0 73.334 8.83301 104.001 26.5zM246.002 776.499c7.33301 -7 11 -15.5 11 -25.5c0 -15.333 7.66699 -28.333 23 -39s34.666 -16 57.999 -16c24.667 0 44.5 5.16699 59.5 15.5s22.5 23.5 22.5 39.5
c0 10.667 3.66699 19.334 11 26.001s16.333 10 27 10s19.5 -3.83301 26.5 -11.5s10.5 -16.834 10.5 -27.501c-1.33301 -34 -17.166 -62 -47.499 -84s-66.833 -33 -109.5 -33c-28 0 -54 5.16699 -78 15.5s-43 24.333 -57 42s-21 37.167 -21 58.5
c0 11.333 3.66699 20.833 11 28.5s16.333 11.5 27 11.5c10 0 18.667 -3.5 26 -10.5z" />
    <glyph glyph-name="Gdotaccent" unicode="&#x120;" horiz-adv-x="771" 
d="M696 379.5c7.33301 -7 11.0029 -16.1689 11.0029 -27.502v-248c0 -11.333 -3.66699 -20.666 -11 -27.999c-62 -57.333 -143.667 -86 -245 -86c-70.667 0 -135.667 18 -195 54s-106.5 84.667 -141.5 146s-52.5 128.333 -52.5 201c0 72 17.333 138.667 52 200
s81.667 110 141 146s124.666 54 195.999 54c48 0 91.667 -7 131 -21s77.333 -36.333 114 -67c7.33301 -5.33301 11 -13 11 -23c0 -5.33301 -1.33301 -10.166 -4 -14.499s-6.33398 -7.5 -11.001 -9.5c-1.33301 -4.66699 -4.33301 -8.5 -9 -11.5s-9.66699 -4.5 -15 -4.5
c-9.33301 0 -17.666 3.33301 -24.999 10c-26 23.333 -54.333 40.333 -85 51s-66.334 16 -107.001 16c-56 0 -108 -14.833 -156 -44.5s-86.167 -69.5 -114.5 -119.5s-42.5 -104 -42.5 -162c0 -59.333 14 -114 42 -164s66 -89.667 114 -119s100.333 -44 157 -44
c64.667 0 124.667 19 180 57v200h-156c-11.333 0 -20.666 3.33301 -27.999 10s-11 15 -11 25s3.66699 18.167 11 24.5s16.666 9.5 27.999 9.5h193c11.333 0 20.666 -3.5 27.999 -10.5zM478.003 978.998c10.667 -10 15.998 -23 15.998 -39
c0 -15.333 -5.33301 -28.333 -16 -39s-23.667 -16 -39 -16s-28.166 5.33301 -38.499 16s-15.5 23.667 -15.5 39c0 16 5.33301 29 16 39s23.667 15 39 15c14.667 0 27.334 -5 38.001 -15z" />
    </font>
</defs>
</svg>
